<?xml version="1.0" encoding="UTF-8"?>
<svg width="112px" height="110px" viewBox="0 0 112 110" version="1.1" xmlns="http://www.w3.org/2000/svg" xmlns:xlink="http://www.w3.org/1999/xlink">
    <!-- Generator: sketchtool 52.6 (67491) - http://www.bohemiancoding.com/sketch -->
    <title>A6AD2452-FDD2-420A-9833-47BBC99AB137</title>
    <desc>Created with sketchtool.</desc>
    <g id="WPSAL-Screens" stroke="none" stroke-width="1" fill="none" fill-rule="evenodd">
        <g id="Custom-icons" transform="translate(-1024.000000, -461.000000)" fill="#FFFFFF" fill-rule="nonzero">
            <g id="Custom-Icons" transform="translate(151.000000, 228.000000)">
                <g id="Logo" transform="translate(807.000000, 204.666667)">
                    <g id="Atoms-/-icons-/-custom-reversed-audit-log" transform="translate(52.000000, 15.000000)">
                        <path d="M70.0848745,78.3655002 C77.8000942,78.3655002 84.0549161,72.1106781 84.0549161,64.3945192 C84.0549161,56.1195586 76.8768975,49.596136 68.5531006,50.5118195 C69.0311343,51.9215023 69.3025522,53.4260406 69.3025522,54.9972594 C69.3025522,62.1950007 63.8572883,68.1173593 56.8624063,68.8799592 C58.7332179,74.3928429 63.9399346,78.3655002 70.0848745,78.3655002 Z M70.0407322,25.5770557 L108.273095,29.6990398 C124.82959,63.7709155 106.045402,102.819413 69.9881391,111.52451 C69.5410978,111.415567 69.1194138,111.283145 68.6780075,111.167628 L68.6761292,93.8720122 C68.6723725,93.8720122 68.669555,93.8720122 68.6657984,93.8720122 C53.0747629,93.1291346 40.6186516,80.2118939 40.6186516,64.43866 C40.6186516,54.9080391 47.582541,36.0092725 68.6657984,35.006247 C68.669555,35.006247 68.6723725,35.0053078 68.6761292,35.0053078 L68.6817641,25.7292 C69.7317477,25.6108655 69.8575955,25.5948998 70.0407322,25.5770557 Z M114.429119,81.5746154 C122.612041,63.7680958 122.070145,43.0745908 112.988444,24.5665168 L70.0001611,19.826564 L27.0109392,24.5665168 C17.9292384,43.0736516 17.3873416,63.7671566 25.5712032,81.5746154 C33.7823005,99.4421807 49.9509212,112.474938 70.0001611,117.41775 C90.049401,112.474938 106.218022,99.4431198 114.429119,81.5746154 Z M117.441014,20.5309357 C128.00753,40.9802592 128.828358,64.1108914 119.692186,83.9929607 C110.639599,103.690015 92.7710942,117.985946 70.6669667,123.215203 L70.0001614,123.372043 L69.333356,123.215203 C47.2292285,117.985946 29.3597845,103.690015 20.3081368,83.9929607 C11.1719645,64.1108914 11.9918533,40.97932 22.5593092,20.5309357 L23.2721335,19.1522453 L70.0001614,14 L116.728189,19.1522453 L117.441014,20.5309357 Z" id="custom-reversed-audit-log"></path>
                    </g>
                </g>
            </g>
        </g>
    </g>
</svg>