<?xml version="1.0" encoding="UTF-8"?>
<svg width="112px" height="112px" viewBox="0 0 112 112" version="1.1" xmlns="http://www.w3.org/2000/svg" xmlns:xlink="http://www.w3.org/1999/xlink">
    <!-- Generator: sketchtool 52.6 (67491) - http://www.bohemiancoding.com/sketch -->
    <title>E659F055-705B-4618-8717-0BFB150F927A</title>
    <desc>Created with sketchtool.</desc>
    <defs>
        <path d="M65.4594588,77.5675664 L65.4594588,41.2432437 L77.5675672,41.2432437 L77.5675672,77.5675664 L65.4594588,77.5675664 Z M71.513513,86.6486454 C74.8570748,86.6486454 77.5675672,89.3591378 77.5675672,92.7026996 C77.5675672,96.0462614 74.8570748,98.7567538 71.513513,98.7567538 C68.1699512,98.7567538 65.4594588,96.0462614 65.4594588,92.7026996 C65.4594588,89.3591378 68.1699512,86.6486454 71.513513,86.6486454 Z M70,126 C39.072054,126 14,100.927946 14,70 C14,39.072054 39.072054,14 70,14 C100.927946,14 126,39.072054 126,70 C126,100.927946 100.927946,126 70,126 Z M70.0000008,113.891893 C94.2408237,113.891893 113.891893,94.2408237 113.891893,70.0000008 C113.891893,45.759178 94.2408237,26.1081084 70.0000008,26.1081084 C45.759178,26.1081084 26.1081084,45.759178 26.1081084,70.0000008 C26.1081084,94.2408237 45.759178,113.891893 70.0000008,113.891893 Z" id="path-1"></path>
    </defs>
    <g id="WPSAL-Screens" stroke="none" stroke-width="1" fill="none" fill-rule="evenodd">
        <g id="Custom-icons" transform="translate(-165.000000, -1121.000000)">
            <g id="Custom-Icons" transform="translate(151.000000, 228.000000)">
                <g id="Informational" transform="translate(0.000000, 879.000000)">
                    <g id="Atoms-/-icons-/-custom-info-outline">
                        <mask id="mask-2" fill="white">
                            <use xlink:href="#path-1"></use>
                        </mask>
                        <use id="custom-info-outline" fill="#8B572A" fill-rule="nonzero" transform="translate(70.000000, 70.000000) rotate(-180.000000) translate(-70.000000, -70.000000) " xlink:href="#path-1"></use>
                    </g>
                </g>
            </g>
        </g>
    </g>
</svg>