<?xml version="1.0" encoding="UTF-8"?>
<svg width="102px" height="105px" viewBox="0 0 102 105" version="1.1" xmlns="http://www.w3.org/2000/svg" xmlns:xlink="http://www.w3.org/1999/xlink">
    <!-- Generator: sketchtool 52.6 (67491) - http://www.bohemiancoding.com/sketch -->
    <title>129C6FBB-62B3-4446-BA0D-832CC5382A20</title>
    <desc>Created with sketchtool.</desc>
    <g id="WPSAL-Screens" stroke="none" stroke-width="1" fill="none" fill-rule="evenodd">
        <g id="Custom-icons" transform="translate(-1031.000000, -688.000000)" fill="#1C73A9" fill-rule="nonzero">
            <g id="Custom-Icons" transform="translate(151.000000, 228.000000)">
                <g id="Save-Search" transform="translate(859.000000, 439.333333)">
                    <g id="Atoms-/-icons-/-custom-save-search">
                        <path d="M96.5260623,69.9165725 C95.4906026,73.6159887 93.8935816,77.1942159 91.7349992,80.5175011 C92.5749992,81.2175011 93.2749992,81.9875011 94.2549992,82.6875011 C95.6549992,83.8075011 97.5449991,85.2075012 99.9249991,86.8175012 C102.304999,88.4975012 103.844999,89.5475012 104.544999,90.1075013 C107.484999,92.2775013 109.654999,94.0975013 111.124999,95.5675014 C113.364999,97.8075014 115.324999,100.117501 117.004999,102.567501 C118.754999,105.017502 120.084999,107.397502 121.134999,109.847502 C122.114999,112.297502 122.604999,114.607502 122.394999,116.847502 C122.254999,119.087502 121.414999,120.977502 119.874999,122.517502 C118.334999,124.057502 116.444999,124.897502 114.204999,125.037502 C112.034999,125.177502 109.654999,124.757502 107.274999,123.707502 C104.824999,122.727502 102.374999,121.327502 99.9949991,119.577502 C97.5449991,117.897502 95.2349992,115.937502 92.9949992,113.697502 C91.5249992,112.227502 89.7049992,110.057502 87.6049993,107.187502 C86.9049993,106.277502 85.8549993,104.737502 84.3149993,102.567501 C82.7749993,100.327501 81.5149993,98.5775014 80.3949993,97.1075014 C79.2749993,95.7075014 78.3649994,94.6575013 77.3149994,93.6075013 C62.8249995,101.237501 44.4849997,98.9275014 32.2349999,86.7475012 C17.255,71.6975009 17.255,47.2675005 32.2349999,32.2875002 C44.9660687,19.556431 64.3591651,17.594805 79.1432283,26.4026223 C78.4623469,26.9503455 77.80372,27.5397153 77.1707317,28.1707317 C74.3379601,31.0123557 72.3444956,34.3706782 71.1903383,37.9395193 C61.8802613,32.8729133 49.9960846,34.2789069 42.1749995,42.1575002 C32.5849996,51.7475003 32.5849996,67.2175006 42.1749995,76.8075007 C51.6949995,86.3975009 67.2349993,86.3975009 76.8249993,76.8075007 C79.6496051,73.9621257 81.6361439,70.5991209 82.7846157,67.0256504 C87.0378123,69.3406429 91.8268044,70.3042836 96.5260623,69.9165725 Z M99.2727273,63 L89.7272727,63 L89.7272727,50.2727273 L77,50.2727273 L77,40.7272727 L89.7272727,40.7272727 L89.7272727,28 L99.2727273,28 L99.2727273,40.7272727 L112,40.7272727 L112,50.2727273 L99.2727273,50.2727273 L99.2727273,63 Z" id="custom-save-search"></path>
                    </g>
                </g>
            </g>
        </g>
    </g>
</svg>