<svg width="18" height="18" viewBox="0 0 18 18" fill="none" xmlns="http://www.w3.org/2000/svg">
<g clip-path="url(#clip0_3_4612)">
<path d="M17.5412 2.67387C18.1524 2.06273 18.1524 1.0712 17.5412 0.460059C16.9301 -0.151082 15.9386 -0.151082 15.3274 0.460059L9.00065 6.78684L2.67387 0.458661C2.06273 -0.15248 1.0712 -0.15248 0.458661 0.458661C-0.15248 1.0698 -0.15248 2.06133 0.458661 2.67387L6.78544 9.00065L0.458661 15.326C-0.15248 15.9372 -0.15248 16.9287 0.458661 17.5412C1.0698 18.1524 2.06133 18.1524 2.67387 17.5412L9.00065 11.2145L15.3274 17.5412C15.9386 18.1524 16.9301 18.1524 17.5412 17.5412C18.1524 16.9301 18.1524 15.9386 17.5412 15.3274L11.2145 9.00065L17.5412 2.67387Z" fill="#1A3060"/>
</g>
<defs>
<clipPath id="clip0_3_4612">
<rect width="18" height="18" fill="white"/>
</clipPath>
</defs>
</svg>
