<svg width="18" height="19" viewBox="0 0 18 19" fill="none" xmlns="http://www.w3.org/2000/svg">
<path d="M17.5412 2.90422C18.1524 2.29308 18.1524 1.30155 17.5412 0.690406C16.9301 0.0792651 15.9386 0.0792651 15.3274 0.690406L9.00065 7.01718L2.67387 0.689008C2.06273 0.0778666 1.0712 0.0778666 0.458661 0.689008C-0.15248 1.30015 -0.15248 2.29168 0.458661 2.90422L6.78544 9.231L0.458661 15.5564C-0.15248 16.1675 -0.15248 17.159 0.458661 17.7716C1.0698 18.3827 2.06133 18.3827 2.67387 17.7716L9.00065 11.4448L15.3274 17.7716C15.9386 18.3827 16.9301 18.3827 17.5412 17.7716C18.1524 17.1604 18.1524 16.1689 17.5412 15.5578L11.2145 9.231L17.5412 2.90422Z" fill="white"/>
</svg>
