<svg xmlns="http://www.w3.org/2000/svg" width="17" height="16" fill="none" xmlns:v="https://vecta.io/nano"><g clip-path="url(#A)" fill="#fff"><path d="M10.83 3H5.31C2.38 3 0 5.38 0 8.31s2.38 5.31 5.31 5.31h5.52c2.93 0 5.31-2.38 5.31-5.31S13.76 3 10.83 3zm3.92 5.31a3.92 3.92 0 0 1-3.92 3.92H5.31a3.92 3.92 0 1 1 0-7.84h5.52a3.92 3.92 0 0 1 3.92 3.92zm-9.44 2.54a2.54 2.54 0 0 0 0-5.08 2.54 2.54 0 0 0 0 5.08z"/></g><defs><clipPath id="A"><path fill="#fff" transform="translate(0 3)" d="M0 0h16.14v10.62H0z"/></clipPath></defs></svg>