<svg xmlns="http://www.w3.org/2000/svg" width="16" height="17" fill="none" xmlns:v="https://vecta.io/nano"><g clip-path="url(#A)"><path d="M7.69 1.5A6.7 6.7 0 0 0 1 8.19a6.7 6.7 0 0 0 6.69 6.69 6.7 6.7 0 0 0 6.69-6.69A6.69 6.69 0 0 0 7.69 1.5zm.36 10.6c0 .24-.07.43-.2.56s-.32.2-.56.2h-.16c-.24 0-.43-.07-.56-.2s-.2-.32-.2-.56v-.21c0-.24.07-.43.2-.56s.32-.2.56-.2h.16c.24 0 .43.07.56.2s.2.32.2.56v.21zm2.31-4.48c-.13.32-.31.6-.54.83s-.5.42-.81.56a4.01 4.01 0 0 1-1 .3c-.02 0-.03.02-.04.03-.01 0-.02.02-.02.04v.47a.77.77 0 0 1-.21.55.7.7 0 0 1-.54.22.7.7 0 0 1-.54-.22.77.77 0 0 1-.21-.55v-.96a.77.77 0 0 1 .21-.55.7.7 0 0 1 .54-.22c.34 0 .66-.05.93-.16a1.41 1.41 0 0 0 .66-.51c.16-.24.25-.55.25-.93 0-.29-.07-.54-.21-.76s-.33-.39-.57-.52a1.67 1.67 0 0 0-.81-.19c-.24 0-.46.04-.66.13a2 2 0 0 0-.56.34c-.13.12-.3.2-.49.26-.19.05-.38.01-.57-.13-.2-.15-.31-.33-.33-.54s.06-.4.24-.58c.3-.31.66-.55 1.07-.73.41-.17.84-.26 1.31-.26.58 0 1.1.13 1.57.4s.84.62 1.12 1.07.42.95.42 1.51c0 .42-.06.79-.19 1.12l-.02-.02z" fill="#fff"/></g><defs><clipPath id="A"><path fill="#fff" transform="translate(1 1.5)" d="M0 0h13.38v13.38H0z"/></clipPath></defs></svg>