<svg xmlns="http://www.w3.org/2000/svg" width="16" height="17" fill="none" xmlns:v="https://vecta.io/nano"><g clip-path="url(#A)"><path d="M8.61 2.5C5.68 2.5 3.3 4.88 3.3 7.81a5.32 5.32 0 0 0 .76 2.74L2 12.61l.41.41.49.49.06.06.43.43.54.54 2.1-2.1c.76.43 1.64.67 2.58.67 2.93 0 5.31-2.38 5.31-5.31s-2.38-5.3-5.31-5.3zm0 9.23a3.84 3.84 0 0 1-1.55-.32c-.24-.11-.48-.23-.69-.39-.38-.27-.71-.6-.98-.98a3.96 3.96 0 0 1-.31-.52c-.25-.52-.4-1.1-.4-1.72A3.92 3.92 0 0 1 8.6 3.88a3.93 3.93 0 0 1 3.92 3.92 3.93 3.93 0 0 1-3.92 3.92l.01.01z" fill="#fff"/></g><defs><clipPath id="A"><path fill="#fff" transform="translate(2 2.5)" d="M0 0h11.92v12.04H0z"/></clipPath></defs></svg>