<svg width="160" height="31" viewBox="0 0 160 31" fill="none" xmlns="http://www.w3.org/2000/svg">
<g clip-path="url(#clip0_3_4608)">
<path fill-rule="evenodd" clip-rule="evenodd" d="M54.9271 10.912C53.9011 10.912 53.0803 11.1882 52.3278 11.6716C51.5754 12.1551 51.0966 12.7767 50.823 13.6054H50.6862C50.481 12.7767 50.0706 12.1551 49.3865 11.6716C48.7025 11.1882 47.9501 10.912 46.9925 10.912C46.0348 10.912 45.2824 11.1191 44.5984 11.6026C43.9143 12.086 43.4355 12.7076 43.1619 13.5363H43.0935V11.0501H38.9894V24.6554H43.2987V16.6442C43.2987 16.1607 43.3671 15.8154 43.5723 15.4701C43.7775 15.1248 43.9828 14.8485 44.2564 14.7104C44.53 14.5723 44.872 14.4342 45.214 14.4342C45.7612 14.4342 46.24 14.6413 46.582 14.9867C46.9241 15.332 47.0609 15.8845 47.0609 16.506V24.7245H51.165V16.5751C51.165 15.9535 51.3018 15.401 51.6438 14.9867C51.9858 14.5723 52.4647 14.4342 53.0119 14.4342C53.5591 14.4342 54.0379 14.6413 54.3799 14.9867C54.7219 15.332 54.9271 15.8845 54.9271 16.5751V24.7936H59.2365V15.5392C59.2365 14.0888 58.8261 12.9838 58.0736 12.1551C57.3212 11.3263 56.1584 10.912 54.9271 10.912ZM64.9823 16.3679C64.9823 15.9535 65.1191 15.5392 65.3243 15.1938C65.5295 14.8485 65.8715 14.5032 66.2135 14.296C66.5555 14.0888 67.0344 13.9507 67.5132 13.9507C67.992 13.9507 68.4024 14.0198 68.7444 14.227C69.0864 14.4342 69.4284 14.7104 69.6337 15.0557C69.8389 15.401 69.9757 15.8154 69.9757 16.2988C69.9757 16.3679 64.9823 16.3679 64.9823 16.3679ZM72.1645 12.6385C71.6173 12.017 70.8649 11.6026 70.1125 11.3263C69.36 11.0501 68.4708 10.8429 67.5132 10.8429C66.1451 10.8429 64.9823 11.1191 63.9563 11.7407C62.9302 12.2932 62.1778 13.191 61.6306 14.227C61.0834 15.2629 60.8097 16.506 60.8097 17.9564C60.8097 19.4067 61.0834 20.6498 61.6306 21.6857C62.1778 22.7217 62.9302 23.5504 63.9563 24.1029C64.9823 24.6554 66.2135 24.9317 67.5816 24.9317C68.7444 24.9317 69.7705 24.7245 70.6597 24.3792C71.5489 24.0339 72.3013 23.4814 72.8486 22.8598C73.3958 22.2382 73.7378 21.4095 73.943 20.5117L69.9757 20.3736C69.8389 20.6498 69.7021 20.9261 69.4968 21.1332C69.2916 21.3404 69.018 21.4786 68.676 21.6167C68.334 21.7548 67.992 21.7548 67.65 21.7548C67.1028 21.7548 66.6239 21.6167 66.2135 21.4095C65.8031 21.2023 65.5295 20.857 65.3243 20.4426C65.1191 20.0282 64.9823 19.6139 64.9823 19.0614V18.9232H73.943V17.8182C73.943 16.7132 73.8062 15.6773 73.4642 14.8485C73.1222 14.0198 72.7118 13.2601 72.1645 12.6385ZM75.5163 24.7245H79.8256V6.49194H75.5163V24.7245ZM89.5387 19.821C89.5387 20.2354 89.4019 20.6498 89.1967 20.9951C88.9915 21.3404 88.6495 21.6167 88.3075 21.7548C87.9655 21.8929 87.5551 22.1001 87.0763 22.1001C86.5974 22.1001 86.187 21.962 85.845 21.7548C85.503 21.5476 85.3662 21.2023 85.3662 20.7189C85.3662 20.4426 85.4346 20.1664 85.5714 19.9592C85.7082 19.752 85.9134 19.5448 86.187 19.4067C86.4606 19.2685 86.8027 19.1995 87.2131 19.1304L87.8287 19.0614L88.4443 18.9232L88.9915 18.7851C89.1967 18.716 89.3335 18.647 89.4019 18.5779L89.5387 19.821ZM92.138 12.086C91.5908 11.6716 90.9752 11.3954 90.2228 11.1882C89.4703 10.981 88.7179 10.912 87.8287 10.912C86.5974 10.912 85.5714 11.1191 84.7506 11.4645C83.9298 11.8098 83.2457 12.3623 82.6985 12.9838C82.2197 13.6054 81.8777 14.4342 81.8093 15.1938L85.7766 15.332C85.845 14.9176 86.1186 14.5723 86.4606 14.296C86.8027 14.0198 87.2815 13.9507 87.8287 13.9507C88.3759 13.9507 88.7863 14.0888 89.0599 14.296C89.3335 14.5032 89.5387 14.9176 89.5387 15.332V15.401C89.5387 15.6773 89.4019 15.8845 89.1967 16.0226C88.9915 16.1607 88.6495 16.2988 88.1707 16.3679L86.3238 16.5751C85.6398 16.6442 85.0242 16.7132 84.4086 16.9204C83.7929 17.1276 83.2457 17.3348 82.8353 17.6801C82.4249 18.0254 82.0145 18.4398 81.7409 18.9232C81.4673 19.4067 81.3305 20.0973 81.3305 20.857C81.3305 21.7548 81.5357 22.5145 81.8777 23.067C82.2197 23.6195 82.7669 24.1029 83.4509 24.3792C84.135 24.6554 84.8874 24.7936 85.7082 24.7936C86.3238 24.7936 86.8711 24.7245 87.4183 24.5864C87.8971 24.4482 88.3759 24.172 88.7179 23.8957C89.1283 23.5504 89.4019 23.1361 89.6072 22.7217H89.744V24.6554H93.7797V15.401C93.7797 14.7104 93.6429 14.0198 93.3693 13.4673C93.0957 12.9148 92.6169 12.4313 92.138 12.086ZM104.656 19.821C104.45 20.3736 104.177 20.7879 103.835 21.0642C103.493 21.3404 103.014 21.4786 102.467 21.4786C101.92 21.4786 101.509 21.3404 101.099 21.0642C100.688 20.7879 100.415 20.3736 100.278 19.821C100.141 19.2685 100.004 18.647 100.004 17.8873C100.004 17.1276 100.073 16.506 100.278 15.9535C100.483 15.401 100.757 14.9867 101.099 14.7104C101.441 14.4342 101.92 14.296 102.467 14.296C103.014 14.296 103.424 14.4342 103.835 14.7104C104.245 14.9867 104.45 15.401 104.656 15.9535C104.861 16.506 104.929 17.1276 104.929 17.8873C104.929 18.647 104.861 19.2685 104.656 19.821ZM106.639 11.6026C105.819 11.1191 104.929 10.8429 104.04 10.8429C103.356 10.8429 102.74 10.981 102.193 11.1882C101.714 11.4645 101.304 11.7407 100.962 12.1551C100.62 12.5695 100.415 12.9148 100.21 13.3292H100.073V11.0501H95.8318V29.8351H100.141V22.5145H100.21C100.415 22.9289 100.688 23.3432 100.962 23.6886C101.304 24.0339 101.714 24.3792 102.193 24.5864C102.672 24.7936 103.288 24.8626 103.972 24.8626C104.998 24.8626 105.887 24.5864 106.708 24.1029C107.529 23.6195 108.144 22.7907 108.623 21.7548C109.102 20.7189 109.375 19.4067 109.375 17.8873C109.375 16.3679 109.102 14.9867 108.623 13.9507C108.144 12.9148 107.46 12.086 106.639 11.6026ZM126.271 10.8429C127.228 10.8429 128.118 10.981 128.87 11.3263C129.623 11.6716 130.375 12.086 130.922 12.6385C131.469 13.191 131.948 13.9507 132.29 14.8485C132.632 15.7463 132.769 16.7132 132.769 17.8182V18.9232H123.808V19.0614C123.808 19.6139 123.945 20.0973 124.15 20.5117C124.356 20.9261 124.698 21.2714 125.04 21.4786C125.382 21.6857 125.929 21.8239 126.476 21.8239C126.886 21.8239 127.228 21.7548 127.502 21.6857C127.776 21.6167 128.049 21.4095 128.323 21.2023C128.597 20.9951 128.733 20.7189 128.802 20.4426L132.769 20.5807C132.632 21.4786 132.222 22.2382 131.675 22.9289C131.127 23.6195 130.375 24.1029 129.486 24.4483C128.597 24.7936 127.57 25.0008 126.408 25.0008C124.971 25.0008 123.808 24.7245 122.782 24.172C121.756 23.6195 121.004 22.7907 120.457 21.7548C119.909 20.7189 119.636 19.4757 119.636 18.0254C119.636 16.5751 119.909 15.401 120.457 14.296C121.004 13.2601 121.756 12.4313 122.782 11.8098C123.74 11.1882 124.903 10.8429 126.271 10.8429ZM118.473 10.8429C118.678 10.8429 118.883 10.8429 119.089 10.912C119.294 10.912 119.499 10.981 119.704 11.0501V14.8485C119.499 14.7795 119.225 14.7104 118.883 14.7104C118.541 14.7104 118.268 14.6413 117.994 14.6413C117.515 14.6413 117.037 14.7795 116.626 14.9867C116.216 15.1938 115.874 15.5392 115.668 15.9535C115.463 16.3679 115.326 16.8514 115.326 17.4039V24.7936H111.017V11.0501H115.19V13.5363H115.326C115.6 12.6385 115.942 11.9479 116.558 11.5335C117.173 11.1191 117.721 10.8429 118.473 10.8429ZM126.339 14.0198C125.86 14.0198 125.45 14.1579 125.04 14.3651C124.629 14.5723 124.356 14.8485 124.15 15.2629C123.945 15.6082 123.808 16.0226 123.808 16.437H128.802C128.802 15.9535 128.665 15.5392 128.46 15.1938C128.255 14.8485 127.981 14.5723 127.57 14.3651C127.16 14.1579 126.818 14.0198 126.339 14.0198ZM142.482 16.6442L139.883 16.1607C139.336 16.0226 138.925 15.8845 138.72 15.6773C138.515 15.4701 138.378 15.2629 138.378 14.9867C138.378 14.6413 138.515 14.3651 138.925 14.1579C139.336 13.9507 139.678 13.8817 140.225 13.8817C140.635 13.8817 140.909 13.9507 141.251 14.0888C141.593 14.227 141.798 14.3651 141.935 14.6413C142.072 14.9176 142.209 15.1248 142.277 15.401L146.244 15.2629C146.108 13.8817 145.56 12.8457 144.466 12.086C143.371 11.3263 142.003 10.912 140.157 10.912C138.925 10.912 137.899 11.0501 137.01 11.3954C136.121 11.7407 135.437 12.2242 134.958 12.9148C134.479 13.6054 134.206 14.3651 134.206 15.2629C134.206 16.2988 134.548 17.1276 135.163 17.8182C135.779 18.5089 136.805 18.9232 138.173 19.1995L140.499 19.6829C141.046 19.821 141.456 19.9592 141.73 20.0973C142.003 20.2354 142.14 20.5117 142.14 20.857C142.14 21.2023 141.935 21.4786 141.593 21.6857C141.251 21.8929 140.772 22.0311 140.225 22.0311C139.609 22.0311 139.13 21.8929 138.72 21.6167C138.31 21.3404 138.104 20.9951 137.968 20.5117L133.727 20.6498C133.863 22.0311 134.548 23.067 135.642 23.8957C136.736 24.7245 138.241 25.0698 140.225 25.0698C141.456 25.0698 142.482 24.8626 143.44 24.5173C144.397 24.172 145.081 23.6195 145.629 22.9289C146.176 22.2382 146.45 21.4095 146.45 20.5117C146.45 19.5448 146.108 18.716 145.424 18.0945C144.739 17.4729 143.85 16.9204 142.482 16.6442ZM159.036 17.9564C158.352 17.3348 157.394 16.9204 156.026 16.6442L153.427 16.1607C152.879 16.0226 152.469 15.8845 152.264 15.6773C152.059 15.4701 151.922 15.2629 151.922 14.9867C151.922 14.6413 152.059 14.3651 152.469 14.1579C152.879 13.9507 153.221 13.8817 153.769 13.8817C154.179 13.8817 154.453 13.9507 154.795 14.0888C155.137 14.227 155.342 14.3651 155.479 14.6413C155.615 14.9176 155.752 15.1248 155.821 15.401L159.788 15.2629C159.651 13.8817 159.104 12.8457 158.01 12.086C156.915 11.3263 155.547 10.912 153.7 10.912C152.469 10.912 151.443 11.0501 150.554 11.3954C149.664 11.7407 148.98 12.2242 148.502 12.9148C148.023 13.6054 147.749 14.3651 147.749 15.2629C147.749 16.2988 148.091 17.1276 148.707 17.8182C149.322 18.5089 150.348 18.9232 151.717 19.1995L154.042 19.6829C154.589 19.821 155 19.9592 155.273 20.0973C155.547 20.2354 155.684 20.5117 155.684 20.857C155.684 21.2023 155.479 21.4786 155.137 21.6857C154.795 21.8929 154.316 22.0311 153.769 22.0311C153.153 22.0311 152.674 21.8929 152.264 21.6167C151.853 21.3404 151.648 20.9951 151.511 20.5117L147.27 20.6498C147.407 22.0311 148.091 23.067 149.186 23.8957C150.28 24.7245 151.785 25.0698 153.769 25.0698C155 25.0698 156.026 24.8626 156.984 24.5173C157.941 24.172 158.625 23.6195 159.172 22.9289C159.72 22.2382 159.993 21.4095 159.993 20.5117C160.062 19.3376 159.72 18.5089 159.036 17.9564Z" fill="#485D89"/>
<path fill-rule="evenodd" clip-rule="evenodd" d="M30.0971 0L14.3645 9.66878L20.3839 15.6772L8.20831 23.2741V30.3876H30.0971V0Z" fill="#485D89"/>
<path fill-rule="evenodd" clip-rule="evenodd" d="M0 0V30.3876H4.99337V21.2713L15.0485 15.0557L0 0Z" fill="#485D89"/>
</g>
<defs>
<clipPath id="clip0_3_4608">
<rect width="160" height="30.3876" fill="white"/>
</clipPath>
</defs>
</svg>
