<svg xmlns="http://www.w3.org/2000/svg" width="17" height="17" fill="none" xmlns:v="https://vecta.io/nano"><g clip-path="url(#A)" fill="#fff"><path d="M9.36 6.92h-.58V1.5H7.4v5.42h-.58a1.27 1.27 0 1 0 0 2.54h.58v5.42h1.38V9.46h.58a1.27 1.27 0 1 0 0-2.54zM3.81 9.46h-.56V1.5H1.87v7.96h-.6A1.27 1.27 0 0 0 0 10.73 1.27 1.27 0 0 0 1.27 12h.6v2.87h1.38V12h.56a1.27 1.27 0 1 0 0-2.54zm11.07-1.27h-.58V1.5h-1.38v6.69h-.58a1.27 1.27 0 1 0 0 2.54h.58v4.15h1.38v-4.15h.58a1.27 1.27 0 1 0 0-2.54z"/></g><defs><clipPath id="A"><path fill="#fff" transform="translate(0 1.5)" d="M0 0h16.16v13.37H0z"/></clipPath></defs></svg>