<svg xmlns="http://www.w3.org/2000/svg" width="41" height="40" fill="none" xmlns:v="https://vecta.io/nano"><path fill-rule="evenodd" d="M40.041 31.29V40H20.015l20.027-8.71zM20.015 40H0v-8.71L20.015 40z" fill="#bdd63a"/><path d="M20.015 6.125C8.952 6.125 0 19.994 0 19.994s8.964 13.869 20.015 13.869S40.03 19.994 40.03 19.994 31.066 6.125 20.015 6.125zm0 23.057c-5.059 0-9.174-4.099-9.174-9.164 0-.081.012-.151.012-.233.396.116.816.198 1.247.198 2.53 0 4.593-2.049 4.593-4.588 0-1.269-.513-2.422-1.364-3.249 1.376-.815 2.973-1.293 4.674-1.293 5.059 0 9.174 4.099 9.174 9.164s-4.103 9.165-9.174 9.165h.012z" fill="#fff"/><path fill-rule="evenodd" d="M20.015 0L0 8.71V0h20.015zm20.027 8.71L20.015 0h20.027v8.71z" fill="#009344"/></svg>