<svg width="287" height="108" viewBox="0 0 287 108" fill="none" xmlns="http://www.w3.org/2000/svg">
<path d="M276.606 93.5656V98.1045H280.861C280.846 98.7572 280.694 99.334 280.39 99.8198C280.071 100.336 279.585 100.746 278.931 101.019C278.293 101.307 277.472 101.444 276.515 101.444C275.406 101.444 274.494 101.186 273.749 100.67C273.005 100.154 272.443 99.3948 272.078 98.4232C271.698 97.4517 271.516 96.2677 271.516 94.8863C271.516 93.5049 271.713 92.3664 272.108 91.4101C272.503 90.4538 273.081 89.7099 273.825 89.1938C274.585 88.6929 275.497 88.4196 276.561 88.4196C277.062 88.4196 277.518 88.4804 277.928 88.5866C278.339 88.6929 278.718 88.8599 279.038 89.0724C279.357 89.2849 279.615 89.5581 279.828 89.8617C280.04 90.1653 280.208 90.5297 280.299 90.9395H286.742C286.62 89.7707 286.271 88.6929 285.708 87.691C285.146 86.7043 284.402 85.8542 283.475 85.1256C282.548 84.3969 281.499 83.8505 280.299 83.4558C279.098 83.0611 277.807 82.8638 276.409 82.8638C274.828 82.8638 273.339 83.1218 271.956 83.6531C270.574 84.1844 269.358 84.9738 268.294 86.006C267.231 87.0383 266.41 88.3134 265.817 89.801C265.225 91.3038 264.921 93.0192 264.921 94.9622C264.921 97.4365 265.407 99.5769 266.38 101.368C267.352 103.159 268.689 104.541 270.422 105.512C272.154 106.484 274.16 106.97 276.439 106.97C278.49 106.97 280.314 106.56 281.879 105.77C283.475 104.966 284.721 103.797 285.617 102.294C286.529 100.776 286.97 98.9545 286.97 96.8142V93.5656H276.561H276.576H276.606Z" fill="white"/>
<path d="M257.277 84.2908C255.545 83.3648 253.63 82.9094 251.503 82.9094C249.376 82.9094 247.431 83.3648 245.714 84.2908C243.996 85.2168 242.629 86.5678 241.611 88.359C240.593 90.1503 240.091 92.3514 240.091 94.9623C240.091 97.5733 240.593 99.7592 241.611 101.55C242.629 103.342 243.996 104.693 245.714 105.634C247.431 106.575 249.36 107.015 251.503 107.015C253.646 107.015 255.56 106.56 257.277 105.634C259.01 104.708 260.377 103.357 261.395 101.566C262.414 99.7744 262.915 97.5733 262.915 94.9623C262.915 92.3514 262.414 90.1503 261.395 88.359C260.377 86.5678 259.01 85.2168 257.277 84.2908ZM255.803 98.5144C255.424 99.486 254.892 100.215 254.162 100.716C253.433 101.216 252.552 101.475 251.488 101.475C250.424 101.475 249.543 101.216 248.813 100.716C248.084 100.215 247.537 99.486 247.172 98.5144C246.792 97.5429 246.61 96.3589 246.61 94.9623C246.61 93.5658 246.792 92.3817 247.172 91.4102C247.552 90.4387 248.084 89.7101 248.813 89.2091C249.543 88.7082 250.424 88.4501 251.488 88.4501C252.552 88.4501 253.433 88.693 254.162 89.2091C254.892 89.7101 255.439 90.4539 255.803 91.4102C256.168 92.3665 256.366 93.5658 256.366 94.9623C256.366 96.3589 256.183 97.5581 255.803 98.5144Z" fill="white"/>
<path d="M229.834 83.228H223.467V106.681H239.331V101.55H229.834V83.228Z" fill="white"/>
<path d="M204.898 92.7459H204.716L200.127 83.228H193.015L201.646 99.3036V106.681H207.968V99.3036L216.599 83.228H209.487L204.898 92.7459Z" fill="white"/>
<path d="M171.999 88.3589H179.065V106.681H185.341V88.3589H192.407V83.228H171.999V88.3589Z" fill="white"/>
<path d="M170.434 83.228H164.052V106.681H170.434V83.228Z" fill="white"/>
<path d="M150.589 99.759H150.406L145.589 83.228H138.387L146.136 106.681H154.859L162.609 83.228H155.406L150.589 99.759Z" fill="white"/>
<path d="M136.958 83.228H130.576V106.681H136.958V83.228Z" fill="white"/>
<path d="M108.588 88.3589H115.654V106.681H121.945V88.3589H128.996V83.228H108.588V88.3589Z" fill="white"/>
<path d="M93.9394 89.2243C94.684 88.7082 95.5805 88.4501 96.6442 88.4501C97.252 88.4501 97.7991 88.5412 98.2853 88.7082C98.7716 88.8752 99.1819 89.1332 99.5162 89.452C99.8505 89.7708 100.124 90.1351 100.322 90.5753C100.519 91.0155 100.641 91.5013 100.686 92.0326H107.144C107.023 90.5753 106.673 89.285 106.111 88.1465C105.534 87.008 104.774 86.0669 103.847 85.2927C102.905 84.5185 101.811 83.9265 100.565 83.5166C99.3186 83.1068 97.951 82.9094 96.4619 82.9094C94.3497 82.9094 92.4502 83.3648 90.7331 84.2908C89.016 85.2168 87.6636 86.5678 86.6455 88.359C85.6426 90.1503 85.1259 92.3514 85.1259 94.9623C85.1259 97.5733 85.6122 99.7592 86.6151 101.55C87.6028 103.342 88.9552 104.708 90.6723 105.634C92.3742 106.56 94.3041 107.015 96.4619 107.015C98.179 107.015 99.6985 106.757 100.99 106.226C102.297 105.71 103.376 105.011 104.257 104.146C105.139 103.281 105.822 102.325 106.309 101.308C106.795 100.275 107.068 99.2734 107.144 98.2716L100.686 98.226C100.61 98.727 100.458 99.1823 100.246 99.577C100.018 99.9869 99.7441 100.321 99.4098 100.594C99.0755 100.883 98.6652 101.095 98.1942 101.247C97.7231 101.399 97.2064 101.475 96.6138 101.475C95.5805 101.475 94.6992 101.232 93.9546 100.746C93.2252 100.26 92.663 99.5315 92.2679 98.5752C91.8728 97.6188 91.6904 96.4044 91.6904 94.9775C91.6904 93.6265 91.888 92.4576 92.2527 91.4861C92.6326 90.5146 93.1948 89.7708 93.9242 89.2547H93.9546L93.9394 89.2243Z" fill="white"/>
<path d="M68.426 83.228L60.6762 106.681H67.5598L68.9122 102.188H76.662L78.0144 106.681H84.8981L77.1483 83.228H68.4412H68.426ZM70.3558 97.4213L72.696 89.6795H72.8783L75.2184 97.4213H70.3558Z" fill="white"/>
<path d="M50.1761 84.2451C48.8692 83.562 47.3345 83.2129 45.6022 83.2129H35.4667V106.666H41.8488V99.6983H45.3894C47.1825 99.6983 48.7477 99.3644 50.0849 98.7116C51.4221 98.0589 52.4706 97.1026 53.2152 95.873C53.9598 94.6434 54.3397 93.1861 54.3397 91.5163C54.3397 89.8465 53.975 88.4044 53.2456 87.1597C52.5162 85.9149 51.5133 84.9434 50.1912 84.2603L50.1761 84.2451ZM47.2433 93.2469C46.9546 93.7326 46.5443 94.1121 46.0276 94.3702C45.4958 94.6282 44.8576 94.7648 44.113 94.7648H41.864V88.3134H44.113C44.8576 88.3134 45.4958 88.4348 46.0276 88.6929C46.5595 88.9509 46.9698 89.3152 47.2433 89.801C47.532 90.2716 47.6688 90.8484 47.6688 91.5163C47.6688 92.1843 47.532 92.7611 47.2433 93.2469Z" fill="white"/>
<path d="M23.8875 97.6945H23.7052L19.9063 83.228H14.3143L10.5002 97.649H10.3178L7.11156 83.228H0L6.92921 106.681H13.0227L17.0191 93.5656H17.2015L21.1827 106.681H27.2914L34.2054 83.228H27.109L23.8875 97.6945Z" fill="white"/>
<rect x="112" y="5" width="62" height="62" rx="6" fill="#384A2F" stroke="#384A2F" stroke-width="10"/>
<path fill-rule="evenodd" clip-rule="evenodd" d="M143.091 62.1432H117V50.7886L143.091 62.1432ZM143.091 62.1432H169.197V50.7886L143.091 62.1432Z" fill="#BDD63A"/>
<path d="M143.091 17.9846C128.67 17.9846 117 36.064 117 36.064C117 36.064 128.685 54.1433 143.091 54.1433C157.496 54.1433 169.182 36.064 169.182 36.064C169.182 36.064 157.496 17.9846 143.091 17.9846ZM143.091 48.041C136.496 48.041 131.132 42.6976 131.132 36.0943C131.132 35.9881 131.147 35.897 131.147 35.7907C131.664 35.9425 132.211 36.0488 132.773 36.0488C136.071 36.0488 138.76 33.3771 138.76 30.0679C138.76 28.4133 138.092 26.9104 136.982 25.8327C138.775 24.7701 140.857 24.1477 143.076 24.1477C149.671 24.1477 155.035 29.491 155.035 36.0943C155.035 42.6976 149.686 48.041 143.076 48.041H143.091Z" fill="white"/>
<path fill-rule="evenodd" clip-rule="evenodd" d="M143.091 10L117 21.3546V10H143.091ZM143.091 10H169.197V21.3546L143.091 10Z" fill="#009344"/>
</svg>
