<?xml version="1.0" encoding="UTF-8"?> <svg xmlns="http://www.w3.org/2000/svg" xmlns:v="https://vecta.io/nano" width="128" height="128" fill="#009344" fill-rule="evenodd"><path d="M66.782 45.169c3.661-.47 7.545-.728 10.854-3.229 1.596-1.207 1.727-2.42 2.367-4.155.586-1.586 1.512-1.948-.102-3.315-2.522-2.137-6.665-2.477-9.793-3.149-6.408-1.378-13.25-1.254-19.657-.174-1.109.187-1.731.554-2.862.593-1.812.063-3.604.406-5.41.556-1.276.107-3.363.24-4.488.882-.318.182-.543.677-.796.805-.494.25-.993.029-1.486.197-.555.189-2.054 1.465-2.261 2.045-.24.67-.046.738.455 1.328.978 1.15 2.322 2.113 3.617 2.87 3.039 1.779 6.537 2.545 9.935 3.304 1.788.4 3.691 1.271 5.51 1.385 1.643.104 3.281-.266 4.951-.112 3.023.279 6.135-.379 9.166.169h0zM32.377 77.822c0-3.826-.4-7.914.113-11.705.25-1.847-.08-3.443-.121-5.286-.049-2.164.126-4.361.18-6.527.049-1.989-.005-4.043.288-6.014.133-.895.411-1.719.334-2.631-.089-1.054-.411-2.052-.466-3.118-.091-1.771-.928-2.436-1.471-4.027-.497-1.453-.159-3.116.605-4.42 1.435-2.45 5.318-3.574 7.859-4.243 1.782-.47 3.591-.982 5.442-1.055s3.233-.055 5.015-.467c3.743-.865 8.007-1.201 11.844-1.19 1.565.005 3.47-.273 4.98-.056 1.64.235 3.267.868 4.984 1.068a16.99 16.99 0 0 1 4.833 1.291c1.181.51 3.823.672 4.664 1.677.233.278-.022.775.259 1.144.433.569 1.228.612 1.625 1.326.615 1.106.21 2.893.243 4.121.102 3.848.43 8.015.033 11.846-.084.815-.54 3.724-1.86 3.484-1.209-.219-1.231-3.642-1.448-4.544-.226-.939.347-3.898-.651-4.167-.972-.263-2.042 1.332-2.629 1.802-1.309 1.049-2.813 1.118-4.311 1.476-1.694.406-3.03.901-4.83 1.073-4.083.39-8.152-.067-12.241-.238-3.998-.166-7.63-.596-11.458-1.805-1.923-.607-4.13-1.037-5.943-1.926-.885-.434-2.559-2.359-3.292-1.255-.232.35-.129 2.976-.208 3.552-.148 1.074-.23 2.131-.205 3.218.042 1.897.371 3.561.032 5.355-.35 1.848-.2 4.263-.293 6.173-.081 1.677.227 3.413.22 5.061-.003 1.022-.348 1.877-.291 2.895.045.787-.039 1.345-.062 2.154-.025.916.2 1.813.15 2.789-.046.907-.122 1.974.251 2.825-.885 1.109-.218 3.915-.375 5.32-.101.906-.034 1.757.014 2.665.036.7-.218 2.005.076 2.62.512 1.069 2.834 2.366 3.81 3.031 1.41.961 2.907 1.778 4.507 2.368 3.488 1.286 7.204 2.687 10.901 3.181.908.121 3.238-1.282 3.954-.507.731.791-.292 2.753-.792 3.413-1.157 1.524-2.105.792-3.677.477-1.841-.367-3.635-.547-5.447-1.125-3.178-1.013-6.486-2.137-9.413-3.754-2.226-1.23-5.334-2.921-5.663-5.608-.466-3.816-.065-7.9-.065-11.737h-.004zm47.586 19.227c1.078.155 2.008-.231 2.989-.638 1.826-.759 3.986-2.798 5.314-4.227 1.676-1.803 2.77-3.987 3.761-6.217 1.187-2.674 2.057-4.593 1.593-7.561-.208-1.332-.333-2.058-.938-3.127-.515-.911-.903-1.801-1.145-2.834-.906-3.883-3.01-8.038-6.403-10.374-.937-.645-2.015-.788-2.994-1.318-.844-.458-1.352-1.012-2.359-1.132-1.881-.225-3.896.148-5.634-.251-.755-.173-1.736-.46-2.569-.469-1.064-.012-1.594.639-2.587.831-.807.157-1.254-.065-1.961.468-.508.383-.598 1.197-1.198 1.501-.551.279-1.278.116-1.914.401-.667.298-1.652 1.032-2.035 1.636-.642 1.012.211 1.063-.11 2.011-.196.578-1.305 1.134-1.72 1.59-1.39 1.531-1.619 3.439-2.158 5.332-.236.831-.737 1.283-1.032 2.019-.229.574-.116 1.508-.31 2.178-.681 2.355-.372 4.533.266 6.883.548 2.016 2.086 3.372 3.151 5.119 1.196 1.96 2.66 3.385 4.541 4.715 1.684 1.19 3.004 1.71 4.894 2.409 1.818.673 3.19 1.883 5.199 2.019 1.194.082 1.827-.048 2.838-.431.918-.348 1.505-.609 2.521-.533m15.116-25.828c-.246.998.677 1.749 1.032 2.589.376.891.605 1.953.818 2.892.599 2.641-.717 4.059-1.448 6.476-.253.838-.269 1.763-.574 2.577-.401 1.073-1.197 2.145-1.706 3.182-1.121 2.287-2.708 4.23-4.43 6.096-.64.693-1.555 1.201-2.225 1.76-.544.455-1.084.965-1.73 1.395-.933.621-1.807 1.569-2.918 1.817-1.065.237-2.112-.1-3.178.301-2.211.832-4.621 1.076-7.063.851-.878-.081-1.62-.295-2.385-.731-1.183-.675-2.381-1.001-3.639-1.594-3.808-1.798-6.845-5.494-9.247-8.832-1.335-1.855-1.86-4.212-2.468-6.375-.381-1.354-.723-2.101-.451-3.421.305-1.475.535-2.975.867-4.443.565-2.493 1.759-4.752 2.845-7.046.988-2.087.996-4.241 2.399-6.102 2.687-3.563 7.155-4.688 11.2-5.969 1.383-.438 2.559-.589 4.004-.379 1.477.215 2.847.039 4.321.106 2.583.119 5.167 1.201 7.372 2.502 2.341 1.382 4.059 3.228 5.365 5.6.543.987.973 2.069 1.611 3.001.29.424.547.668.733 1.132.278.694-.034 1.275.64 1.855.274.235.325.536.255.76M37.558 55.783c.876-.092 1.022.854 1.472 1.364.682.774 1.493.918 2.449 1.12l6.766 1.585c1.248.179 4.279.227 4.763 1.761.348 1.102-.898 2.37-1.989 2.475-1.63.156-3.733-.734-5.329-1.048-1.041-.206-1.505-.54-2.416-1.018-.885-.465-1.786-.488-2.732-.706-1.384-.318-3.624-1.133-4.752-2.079-1.376-1.155-.757-3.003.982-3.332l.786-.122m10.254 24.431c-1.242-.106-3.142-.755-4.377-1.131-1.426-.434-2.851-1.042-4.214-1.647-1.473-.653-5.375-2.178-3.018-4.335.727-.666 1.565-.11 2.296.274 1.688.888 3.181 1.514 5.049 1.944 1.505.346 3.317.435 4.753.969 1.693.63.754 2.014.324 3.447-.125.417-.436.497-.813.479"></path><path d="M74.777 81.378c1.036.001 1.361-.275 1.42-1.228.078-1.234.706-1.762-.183-2.866-.672-.834-1.044-.788-1.832-.052-1.105 1.033-1.829 4.389.595 4.146m1.716-8.317c1.56.06 1.589 1.031 2.721-.159 1.096-1.152 2.36-2.714 3.603-3.68.668-.518 2.284-1.9 3.111-2.011 1.697-.227 1.764 1.63.976 2.662-.567.741-1.447 1.229-2.067 1.945-.409.471-.76 1.156-1.242 1.562-1.214 1.024-2.202.924-3.039 2.513-.828 1.57.433 1.414.12 2.934-.247 1.203-1.393 2.596-2.269 3.399-.955.876-2.304 1.826-3.553 2.236-1.108.365-2.69-.152-3.606.542-.377.285-.416.948-.829 1.258-.47.353-1.623.826-2.208.862-1.718.104-1.898-1.202-1.191-2.421.62-1.07 2.337-1.911 2.737-3.003.379-1.034-.469-2.244.062-3.506.505-1.198 1.772-2.611 2.639-3.536.979-1.043 2.637-1.597 4.035-1.597M58.944 77.09c.196-2.625 1.162-5.12 2.732-7.228 1.504-2.019 3.914-4.586 6.181-5.759 1.067-.552 2.859-1.33 4.006-1.558.731-.145 1.542.142 2.366.09 1.465-.091 6.526-.167 5.81 2.531-.689 2.6-5.039 1.041-6.807 1.035-2.421-.009-4.784.47-6.627 2.139-.9.816-2.262 2.087-2.852 3.147-.486.872-.525 2.307-.797 3.314-.144.533-.325 1.077-.289 1.64.028.431.499 1.207.387 1.625-.159.598-1.754 2.078-2.397 1.679-.992-.615-1.805-1.344-1.713-2.655"></path></svg> 