<?xml version="1.0" encoding="UTF-8"?> <svg xmlns="http://www.w3.org/2000/svg" xmlns:xlink="http://www.w3.org/1999/xlink" xmlns:v="https://vecta.io/nano" width="128" height="128"><defs><path id="A" d="M0 0h118.038v120.371H0z"></path></defs><g transform="translate(5 4)" fill-rule="evenodd"><mask id="B" fill="#fff"><use xlink:href="#A"></use></mask><path d="M54.777 56.62c.244-1.379-.355-2.56-1.142-3.74-3.545-5.316-9.583-6.305-15.411-4.43-4.719 1.518-6.084 9.032-4.396 13.138 1.942 4.723 8.914 9.16 14.08 7.4 4.935-1.681 7.136-7.492 6.869-12.368m50.149-7.671c1.686.74 3.488-.916 5.488.07.738.364 1.221 1.022 1.94 1.384.986.496 2.015.518 2.937 1.207 3.126 2.335 3.176 8.859 2.152 12.219-1.469 4.821-6.705 6.95-11.364 6.46-2.245-.236-4.439-1.213-5.933-2.949-1.584-1.84-1.021-3.527-1.763-5.528-1.116-3.013-8.875-1.929-11.532-1.988-2.721-.06-5.273-.46-7.935-.967-2.785-.531-5.491-.144-8.296-.371-2.647-.214-5.31-.091-7.943-.484-2.21-.331-5.001-1.739-5.613 1.055-.443 2.024-.784 4.164-1.618 6.159-1.033 2.47-2.874 3.437-4.53 5.203-1.483 1.581.268 5.716.811 7.751.614 2.306 1.374 4.516 1.863 6.809.571 2.681 1.825 5.223 2.633 7.845.593 1.926 3.051 5.906 1.607 7.688 2.469.547 4.921 1.866 7.067 3.179 2.461 1.505 2.574 2.927 2.865 5.537.286 2.566.379 4.116-1.131 6.38-1.41 2.112-3.509 3.528-5.886 4.401-2.334.856-5.12.045-7.363-.899-2.406-1.012-3.154-2.391-3.209-4.841-.056-2.478.118-4.918.842-7.34.798-2.667 3.266-4.062 5.184-5.931-3.11-3.885-3.082-9.606-4.725-14.135-.976-2.69-1.548-5.54-2.265-8.306-.446-1.723-.228-5.415-1.71-6.054-.826-.356-2.919.151-3.901.093-1.403-.082-2.377-.456-3.64-1.058-1.145-.546-2.31-1.072-3.37-1.773-.574-.38-2.146-2.202-2.682-2.157-.784.066-.505.866-.887 1.28-.8.867-1.767 1.579-2.56 2.489-1.647 1.892-3.749 3.222-5.354 5.111-1.644 1.937-.887 4.245-1.038 6.667-.164 2.635-1.532 4.304-3.128 6.299-2.936 3.672-8.411 6.057-12.542 2.707s-4.216-8.977-1.86-13.41c2.312-4.349 7.294-4.476 11.713-4.844 1.287-.107 1.888.049 3.006.366 1.372.39 1.514.364 2.652-.875 1.806-1.965 3.009-3.761 5.156-5.379.673-.508 2.104-1.491 2.456-2.282.55-1.234-.192-1.729-.737-2.899-1.087-2.333-1.15-5.421-.463-7.881.312-1.119 1.558-2.553 1.534-3.713-.03-1.463-.465-.918-1.7-1.273-1.921-.554-3.743-1.866-5.234-3.095-1.536-1.266-3.451-3.167-5.155-4.019-.684-.341-1.771-.816-2.474-1.044-1.526-.494-1.847-.102-3.364.641-2.268 1.11-5.163 2.185-7.563 1.112-2.125-.951-4.027-2.132-4.912-4.316-1.665-4.11-2.358-9.952.46-13.789 2.539-3.457 9.746-5.04 13.072-2.108 1.612 1.421 2.609 3.567 3.583 5.433.659 1.261.69 1.943.736 3.433.051 1.644-.587 3.367-.541 4.893.077 2.529 2.749 3.524 4.634 4.825 2.59 1.788 5.112 2.843 7.843 4.215.955.479 1.879 1.445 3.044 1.21.869-.175 1.837-1.392 2.601-1.785 2.468-1.27 4.946-1.428 7.705-1.274 1.479.083 2.838.169 4.277.379 1.213.176 1.293.288 2.044-.6.756-.894 1-2.973 1.523-4.069.547-1.147 1.005-2.261 1.518-3.417 1.256-2.825 2.468-5.803 4.116-8.419 1.655-2.627 2.506-5.666 4.213-8.227-1.691-1.931-3.353-3.65-3.585-6.317-.204-2.352-.41-5.711.417-7.953 1.553-4.209 7.72-6.012 11.714-5.631 1.957.187 2.757 1.194 3.924 2.971 1.152 1.754 2.255 4.202 2.319 6.323.128 4.244-3.359 8.887-7.004 10.736-.923.468-1.942.885-2.961 1.078-.887.168-2.041-.128-2.838.299-1.825.975-2.358 4.521-3.184 6.295-1.799 3.862-3.57 7.883-4.795 11.923-.582 1.921-1.579 3.787-2.666 5.466-.593.915-1.047.653-.716 1.793.233.806 1.815 1.705 2.391 2.392 1.296 1.549 1.863 3.93 3.54 5.088 1.618 1.116 4.03.74 5.886.853 5.735.349 11.491.171 17.237.512 3.046.181 6.022.755 9.031.314 1.31-.192 2.399-.148 3.699.059 1.073.171 3.548.015 4.383.593.883-1.378.626-4.455 2.694-4.929 1.27-.291 3.923.911 3.297-1.736-.078-.329-.449-.591-.137-1.13" fill="#009344" mask="url(#B)"></path></g></svg> 