<?xml version="1.0" encoding="UTF-8"?> <svg xmlns="http://www.w3.org/2000/svg" xmlns:xlink="http://www.w3.org/1999/xlink" width="128px" height="128px" viewBox="0 0 128 128" version="1.1"><title>icon / illo / whitelist</title><g id="icon-/-illo-/-whitelist" stroke="none" stroke-width="1" fill="none" fill-rule="evenodd"><g transform="translate(23.000000, 22.886100)" fill="#009344" id="Group-52"><path d="M73.6271205,67.6765 C71.8711205,72.6065 67.8151205,76.7185 62.2081205,79.2535 C57.9621205,81.1735 54.2371205,82.0675 50.4831205,82.0695 L50.4251205,82.0695 L50.3681205,82.0595 C49.7351205,81.9515 49.0761205,81.8655 48.4391205,81.7825 C46.9811205,81.5925 45.4741205,81.3955 44.0521205,80.9175 C40.2531205,79.6405 37.9541205,76.7995 37.4051205,72.7025 C37.3461205,72.2595 37.3031205,71.8065 37.2601205,71.3535 C37.1461205,70.1325 37.0371205,68.9795 36.6061205,67.9975 C34.9341205,64.1905 35.3111205,60.2245 37.6941205,56.5275 C37.9261205,56.1665 38.1681205,55.8065 38.4181205,55.4445 C40.1731205,52.9145 42.3911205,50.3435 45.3121205,47.4475 C46.3651205,46.4035 48.1011205,45.6085 49.8861205,45.3245 C50.1411205,45.2845 50.3971205,45.2545 50.6521205,45.2355 C51.4711205,45.1745 52.2991205,45.1025 53.1291205,45.0305 C55.7451205,44.8025 58.4471205,44.5665 60.9601205,44.6895 C65.5721205,44.9145 69.8671205,47.9285 72.1701205,52.5565 C74.7791205,57.8005 75.2831205,63.0285 73.6271205,67.6765 M77.9441205,51.8875 C77.7111205,50.8425 77.4701205,49.7615 77.1771205,48.7245 C76.9541205,47.9335 76.5221205,47.1875 76.0511205,46.7795 C75.6281205,46.4125 75.2071205,46.0425 74.7851205,45.6725 C72.7521205,43.8875 70.6501205,42.0415 68.3851205,40.5785 C64.7431205,38.2235 61.7931205,37.8965 58.8191205,39.5145 C57.5761205,40.1915 56.0341205,40.5995 54.5891205,40.6335 C49.0031205,40.7655 44.0821205,43.3675 40.7321205,47.9595 C37.4141205,52.5065 33.2131205,54.5545 26.6851205,54.8075 C26.5511205,54.8125 26.4161205,54.8145 26.2811205,54.8165 C25.9701205,54.8215 25.6771205,54.8255 25.4091205,54.8705 C22.9641205,55.2795 22.1981205,55.8685 21.8761205,59.2165 L31.6421205,59.2165 L31.6421205,70.5215 L31.0881205,70.6285 C30.4521205,70.7505 29.8491205,70.8615 29.2701205,70.9685 C28.0861205,71.1855 26.9661205,71.3915 25.8861205,71.6425 C23.2241205,72.2605 22.7261205,72.6515 23.2731205,76.1335 C23.5171205,76.1205 23.7621205,76.1095 24.0071205,76.0975 C24.9911205,76.0505 26.0071205,76.0015 26.9971205,75.8935 C27.4751205,75.8405 27.9721205,75.8045 28.4761205,75.8045 C30.7851205,75.8045 33.2221205,76.5665 34.5291205,80.0445 C35.6381205,82.9955 38.1241205,84.9545 41.9181205,85.8675 C50.6121205,87.9585 58.8901205,86.2645 67.2241205,80.6865 C71.9921205,77.4945 74.4981205,72.7465 77.1511205,67.7205 L77.7531205,66.5835 C79.7471205,62.8325 80.1651205,59.5415 79.0681205,56.2285 C78.5961205,54.8015 78.2641205,53.3205 77.9441205,51.8875" id="Fill-1"></path><path d="M33.305209,26.0711 C33.7536839,26.0721 34.2332833,26.0571 34.7043941,26.0431 C35.181164,26.0271 35.6635928,26.0121 36.1474364,26.0121 C36.9793078,26.0121 37.812594,26.0571 38.6204147,26.2261 C45.8992897,27.7431 53.3012478,26.9991 60.455625,26.2791 C62.2848933,26.0951 64.1764104,25.9051 66.0452917,25.7541 C67.1586978,25.6641 68.0471591,25.4581 68.5437354,25.1751 C69.5298143,24.6121 70.4112019,23.9331 70.6432205,23.6281 C70.0730773,22.8161 68.8068784,22.0091 68.3739658,22.0091 L68.372551,22.0091 C67.8476798,22.0431 67.3185643,22.0821 66.7922783,22.1201 C62.7517599,22.4121 58.57967,22.7151 54.5207599,21.2191 C54.492465,21.2271 54.4641701,21.2351 54.4330456,21.2431 C54.1981976,21.3061 53.9039301,21.3841 53.5728792,21.3941 C52.9376577,21.4141 52.3010214,21.4361 51.6643851,21.4581 C49.5832918,21.5301 47.4357053,21.6041 45.3050959,21.6001 C42.9311499,21.5961 40.5204204,21.5641 38.1889168,21.5331 C34.4610576,21.4841 30.6058711,21.4341 26.8284958,21.4941 C22.9435996,21.5581 21.8938571,21.9501 20.6432205,26.0671 L23.6990747,26.0661 C27.0322194,26.0641 30.1672995,26.0631 33.305209,26.0711" id="Fill-10"></path><path d="M33.305209,8.0711 C33.7536839,8.0721 34.2332833,8.0571 34.7043941,8.0431 C35.181164,8.0271 35.6635928,8.0121 36.1474364,8.0121 C36.9793078,8.0121 37.812594,8.0571 38.6204147,8.2261 C45.8992897,9.7431 53.3012478,8.9991 60.455625,8.2791 C62.2848933,8.0951 64.1764104,7.9051 66.0452917,7.7541 C67.1586978,7.6641 68.0471591,7.4581 68.5437354,7.1751 C69.5298143,6.6121 70.4112019,5.9331 70.6432205,5.6281 C70.0730773,4.8161 68.8068784,4.0091 68.3739658,4.0091 L68.372551,4.0091 C67.8476798,4.0431 67.3185643,4.0821 66.7922783,4.1201 C62.7517599,4.4121 58.57967,4.7151 54.5207599,3.2191 C54.492465,3.2271 54.4641701,3.2351 54.4330456,3.2431 C54.1981976,3.3061 53.9039301,3.3841 53.5728792,3.3941 C52.9376577,3.4141 52.3010214,3.4361 51.6643851,3.4581 C49.5832918,3.5301 47.4357053,3.6041 45.3050959,3.6001 C42.9311499,3.5961 40.5204204,3.5641 38.1889168,3.5331 C34.4610576,3.4841 30.6058711,3.4341 26.8284958,3.4941 C22.9435996,3.5581 21.8938571,3.9501 20.6432205,8.0671 L23.6990747,8.0661 C27.0322194,8.0641 30.1672995,8.0631 33.305209,8.0711" id="Fill-10-Copy"></path><path d="M35.7490205,35.4487 C33.9830205,35.4487 32.1400205,35.5577 30.2090205,35.7747 C28.0320205,36.0197 25.7660205,37.2237 23.8360205,38.3697 C23.0560205,38.8337 22.4710205,39.5437 22.3100205,40.2237 C22.1940205,40.7147 22.2840205,41.1827 22.5860205,41.6547 C23.0400205,42.3627 23.6690205,42.5977 24.1170205,42.6707 C24.7840205,42.7807 25.4970205,42.5927 26.0210205,42.1707 C28.2680205,40.3627 30.6190205,40.5047 32.8940205,40.6417 C33.1900205,40.6597 33.4890205,40.6777 33.7890205,40.6907 C34.6530205,40.7307 35.5290205,40.8047 36.3760205,40.8757 C39.7030205,41.1547 42.8460205,41.4197 45.8470205,39.8587 C46.4320205,39.5547 46.9800205,39.1807 47.7390205,38.6647 C47.9210205,38.5407 48.1130205,38.4097 48.3180205,38.2717 C48.0920205,38.1137 47.8940205,37.9707 47.7160205,37.8427 C47.1540205,37.4377 46.8140205,37.1927 46.4930205,37.0847 C43.2370205,35.9917 39.6880205,35.4487 35.7490205,35.4487" id="Fill-12"></path><path d="M4.73762047,29.287 C5.80062047,29.344 7.16562047,28.68 8.41562047,27.511 C9.96262047,26.065 10.9726205,24.184 10.9906205,22.719 C11.0216205,20.142 9.42162047,18.116 7.26862047,18.004 C7.20862047,18.001 7.14762047,18 7.08562047,18 C5.70762047,18 4.04762047,18.77 2.60262047,20.089 C1.05662047,21.5 0.0606204744,23.293 0.00162047442,24.768 C-0.0743795256,26.674 2.53762047,29.166 4.73762047,29.287" id="Fill-14"></path><path d="M4.73762047,11.287 C5.80062047,11.344 7.16562047,10.68 8.41562047,9.511 C9.96262047,8.065 10.9726205,6.184 10.9906205,4.719 C11.0216205,2.142 9.42162047,0.116 7.26862047,0.004 C7.20862047,0.001 7.14762047,0 7.08562047,0 C5.70762047,0 4.04762047,0.77 2.60262047,2.089 C1.05662047,3.5 0.0606204744,5.293 0.00162047442,6.768 C-0.0743795256,8.674 2.53762047,11.166 4.73762047,11.287" id="Fill-14-Copy"></path><path d="M5.02692047,63.0948 C6.47392047,63.9798 8.75192047,63.9628 9.91192047,62.3958 C10.7609205,61.2488 11.3709205,59.9288 12.0779205,58.4008 C12.3569205,57.7978 12.6439205,57.1778 12.9599205,56.5358 C12.6909205,56.1248 12.4429205,55.6888 12.2029205,55.2628 C11.6509205,54.2898 11.0819205,53.2828 10.4969205,53.1168 C10.2169205,53.0378 9.91592047,52.9978 9.59992047,52.9978 C8.64292047,52.9978 7.55292047,53.3588 6.48692047,54.0438 C4.67592047,55.2078 3.28992047,57.0908 3.03892047,58.7318 C2.74592047,60.6408 3.41492047,62.1088 5.02692047,63.0948" id="Fill-16"></path><path d="M3.54942047,78.6268 C3.37242047,79.7448 3.69742047,80.2748 4.74542047,80.5838 C7.67942047,81.4458 11.1914205,79.9428 12.7434205,77.1628 C14.0414205,74.8358 13.4064205,72.7428 12.4614205,70.6478 C8.82242047,71.2538 4.05042047,75.4568 3.54942047,78.6268" id="Fill-18"></path><path d="M5.74212047,46.3567 C7.32012047,46.2557 10.0711205,43.0637 10.0711205,41.3327 C10.0711205,39.9897 9.74012047,38.9527 9.11312047,38.3337 C8.60512047,37.8317 7.88612047,37.5787 6.97512047,37.5787 C6.95412047,37.5787 6.93312047,37.5787 6.91212047,37.5787 C4.26212047,37.6127 1.67712047,40.0417 1.59312047,42.5787 C1.57012047,43.2547 2.06712047,44.1707 2.88912047,44.9687 C3.81212047,45.8637 4.94112047,46.4087 5.74212047,46.3567" id="Fill-20"></path><path d="M63.4352205,52.4342 C61.9052205,53.6672 60.5922205,55.0162 59.5512205,56.4332 C57.8772205,58.7102 56.3022205,61.0492 54.6352205,63.5262 C53.9342205,64.5662 53.2192205,65.6272 52.4792205,66.7112 L52.0802205,67.2962 L51.5092205,66.8742 C51.0422205,66.5282 50.6102205,66.2162 50.2052205,65.9222 C49.3662205,65.3152 48.6422205,64.7902 47.9412205,64.2182 C47.8252205,64.1232 47.7122205,64.0422 47.6012205,63.9692 C47.5832205,63.9572 47.5652205,63.9452 47.5472205,63.9332 C47.4412205,63.8662 47.3372205,63.8092 47.2342205,63.7622 C47.2142205,63.7532 47.1952205,63.7452 47.1752205,63.7372 C47.0712205,63.6922 46.9672205,63.6552 46.8652205,63.6312 C46.8582205,63.6302 46.8522205,63.6302 46.8462205,63.6282 C46.7472205,63.6062 46.6492205,63.5962 46.5522205,63.5942 C46.5332205,63.5942 46.5142205,63.5922 46.4962205,63.5922 C46.4442205,63.5932 46.3922205,63.5982 46.3402205,63.6052 C46.3192205,63.6072 46.2992205,63.6082 46.2782205,63.6112 C46.2062205,63.6232 46.1342205,63.6412 46.0612205,63.6642 C46.0462205,63.6692 46.0312205,63.6762 46.0162205,63.6822 C45.9582205,63.7022 45.9012205,63.7242 45.8432205,63.7512 C45.8182205,63.7642 45.7922205,63.7792 45.7662205,63.7922 C45.7182205,63.8172 45.6712205,63.8432 45.6232205,63.8732 C45.5942205,63.8902 45.5662205,63.9102 45.5372205,63.9292 C45.4912205,63.9602 45.4452205,63.9942 45.3982205,64.0292 C45.3692205,64.0512 45.3402205,64.0742 45.3102205,64.0982 C45.2632205,64.1372 45.2152205,64.1792 45.1662205,64.2232 C45.1382205,64.2482 45.1102205,64.2732 45.0812205,64.3002 C45.0292205,64.3502 44.9752205,64.4052 44.9212205,64.4602 C44.8972205,64.4862 44.8732205,64.5092 44.8482205,64.5352 C44.7702205,64.6192 44.6912205,64.7082 44.6102205,64.8042 C43.4332205,66.2002 43.4442205,67.1092 44.6512205,68.1582 L45.0662205,68.5162 C46.8792205,70.0782 48.7542205,71.6942 49.3842205,74.5162 C49.4632205,74.8662 49.6372205,75.0912 49.9192205,75.2032 C50.4022205,75.3952 51.1332205,75.2512 51.7412205,74.8432 C52.3692205,74.4212 52.9992205,73.7012 53.6152205,72.7032 C55.1262205,70.2522 56.6362205,67.7422 58.0982205,65.3152 C59.3922205,63.1662 60.7302205,60.9442 62.0652205,58.7682 C62.4702205,58.1072 62.9232205,57.4742 63.3632205,56.8612 C63.9842205,55.9932 64.5722205,55.1742 65.0332205,54.2822 C65.2402205,53.8832 65.1342205,52.9082 64.9152205,52.6872 C64.6702205,52.4402 63.6842205,52.3022 63.4352205,52.4342" id="Fill-22"></path><path d="M44.6102205,64.8042 C44.6912205,64.7082 44.7702205,64.6192 44.8482205,64.5352 C44.7702205,64.6192 44.6912205,64.7082 44.6102205,64.8042" id="Fill-24"></path><path d="M44.9213205,64.4606 C44.9753205,64.4046 45.0283205,64.3506 45.0813205,64.3006 C45.0283205,64.3506 44.9753205,64.4046 44.9213205,64.4606" id="Fill-26"></path><path d="M45.1667205,64.2228 C45.2147205,64.1788 45.2627205,64.1378 45.3107205,64.0988 C45.2627205,64.1378 45.2147205,64.1788 45.1667205,64.2228" id="Fill-28"></path><path d="M62.0648205,58.7681 C60.7308205,60.9441 59.3918205,63.1661 58.0978205,65.3161 C59.3918205,63.1671 60.7308205,60.9441 62.0648205,58.7681" id="Fill-30"></path><path d="M46.5522205,63.5943 C46.6492205,63.5963 46.7472205,63.6063 46.8462205,63.6283 C46.7472205,63.6063 46.6492205,63.5963 46.5522205,63.5943" id="Fill-32"></path><path d="M45.8435205,63.7517 C45.9015205,63.7247 45.9585205,63.7017 46.0155205,63.6817 C45.9585205,63.7017 45.9015205,63.7247 45.8435205,63.7517" id="Fill-34"></path><path d="M46.3399205,63.6049 C46.3919205,63.5979 46.4439205,63.5929 46.4959205,63.5919 C46.4439205,63.5929 46.3919205,63.5989 46.3399205,63.6049" id="Fill-36"></path><path d="M45.6230205,63.8731 C45.6710205,63.8431 45.7190205,63.8171 45.7660205,63.7921 C45.7190205,63.8171 45.6710205,63.8431 45.6230205,63.8731" id="Fill-38"></path><path d="M45.3980205,64.0295 C45.4450205,63.9935 45.4910205,63.9605 45.5370205,63.9295 C45.4910205,63.9605 45.4450205,63.9935 45.3980205,64.0295" id="Fill-40"></path><path d="M47.2340205,63.7622 C47.3370205,63.8092 47.4410205,63.8662 47.5480205,63.9332 C47.4410205,63.8662 47.3370205,63.8092 47.2340205,63.7622" id="Fill-42"></path><path d="M50.2055205,65.9225 C49.3665205,65.3145 48.6415205,64.7895 47.9415205,64.2175 C47.8255205,64.1225 47.7125205,64.0425 47.6005205,63.9685 C47.7125205,64.0425 47.8255205,64.1235 47.9415205,64.2185 C48.6415205,64.7895 49.3665205,65.3145 50.2055205,65.9225" id="Fill-44"></path><path d="M46.8649205,63.6316 C46.9669205,63.6556 47.0709205,63.6926 47.1759205,63.7366 C47.0709205,63.6926 46.9669205,63.6556 46.8649205,63.6316" id="Fill-46"></path><path d="M44.6102205,64.8042 C43.4332205,66.2002 43.4452205,67.1092 44.6512205,68.1582 L45.0662205,68.5162 L44.6512205,68.1582 C43.4452205,67.1092 43.4332205,66.2002 44.6102205,64.8042" id="Fill-48"></path><path d="M46.0617205,63.6642 C46.1337205,63.6412 46.2057205,63.6242 46.2777205,63.6112 C46.2057205,63.6242 46.1337205,63.6412 46.0617205,63.6642" id="Fill-50"></path></g></g></svg> 