<?xml version="1.0" encoding="UTF-8"?> <svg xmlns="http://www.w3.org/2000/svg" xmlns:v="https://vecta.io/nano" width="128" height="128"><path d="M62.761 22.324c2.166.208 4.334.338 6.51.271 2.367-.073 4.703-.308 7.068.003 1.904.251 3.308.467 5.232.192 1.775-.253 3.654.547 5.322.292.164-.025 1.484-.587 1.29-.596.762.036.938.684 1.761.941 1.168.365 2.731.275 4.328.197l.564-.027c2.353-.102 4.688-.063 5.855 1.597 1.03 1.466 1.578 3.542 1.566 5.315-.01 1.652-.489 2.935.784 4.343-1.428 1.258-.258 2.455-.044 3.952.225 1.587-.162 3.17-.381 4.703-.239 1.667.559 2.847.467 4.551-.099 1.824-.641 3.108.65 4.693-1.316 1.197-.566 4.279-.512 5.901.048 1.45.606 2.83.738 4.269.144 1.58-.13 3.144-.276 4.712-.256 2.781.048 5.526-.251 8.305-.256 2.385-.778 5.945-3.342 6.848-1.345.475-3.476-.296-4.858-.38-1.248-.075-2.196-.359-3.356-.639-2.865-.689-6.574-.348-9.555-.363-.733-.004-3.824-.278-4.398.411-.44.53.056 2.32.514 2.742.371.344.903.011 1.261.357.388.375.14.956.373 1.419.208.414.506.736.821 1.039l.478.45c.315.303.613.624.821 1.036.595 1.176.665 2.237 1.454 3.362l1.647 2.553c.4.747.999 1.493 1.608 2.253l.364.458c1.087 1.378 2.076 2.807 1.847 4.36s-.884 4.551-3.06 2.64c-.869-.764-1.539-2.704-2.252-3.669-.817-1.109-1.628-2.416-2.61-3.383-.183-.179-.814-.174-.997-.392-.387-.463-.395-1.354-.699-1.9-.545-.978-1.472-1.807-2.203-2.652l-5.246-5.882c-.894-.976-1.908-1.33-2.917-2.083-.356-.265-.541-.549-.702-.838l-.19-.348a2.62 2.62 0 0 0-.531-.69c-.813-.74-2.336-.44-3.316-.473-1.197-.041-3.307-.545-4.447-.11-1.116.427-1.02 1.973-1.675 2.956-.595.892-.833 1.04-1.709 1.6-.848.545-1.845 1.8-2.744 2.139-.397.149-.961-.198-1.362-.061-.649.218-1.104 1.015-1.635 1.435-1.354 1.068-1.303 1.172-2.183 2.544-.696 1.085-1.987 1.557-2.781 2.595-.838 1.096-1.686 2.067-2.652 3.094-1.017 1.082-3.116 2.508-3.604 3.894-.311.884-1.008 1.434-1.841 2.039-1.016-2.554.364-4.237 1.935-5.846l.306-.311.154-.155.306-.31 1.277-1.433c.853-1.124.432-2.149 1.046-3.193.114-.195 1.135-.663 1.379-.932.571-.629.932-1.76 1.337-2.496l2.622-5.022c.615-1.517.861-1.729-.565-2.04a26.79 26.79 0 0 0-2.706-.237c-.396.018-.921.283-1.241.298-1.615.079-3.299-.51-4.969-.49-1.928.023-3.815.035-5.743-.009-.483-.011-1.249.071-1.68.016-.069-.009-1.517-.445-1.121-.442-.707-.005-1.413.177-2.074.354l-.262.07c-1.599.426-2.89.667-3.209-2.151-.134-1.181-.468-2.521-.441-3.606.011-.452.329-.986.38-1.473.03-.294-.415-.668-.393-1.042.043-.77.492-1.553.506-2.428.009-.54-.07-1.104-.078-1.647l.064-7.065c-.023-3.376-.202-6.711-.478-10.071-.331-4.033.184-7.99.267-12.014.081-3.938-.626-7.97-.189-11.898.119-1.065.373-2.921 1.337-3.546 1.182-.768 4.498-.517 5.969-.808 3.641-.719 7.225-.659 10.874-1.16 3.448-.475 6.62-.799 10.082-.448 1.2.12 1.89.053 2.861-.043.69-.066 1.849.182 2.568.059.711-.123 1.166-.592 1.888-.734.884-.173 2.111.193 2.996.279zm6.409 4.294c-.719.093-1.331.478-2.077.564-2.047.233-4.207-.059-6.235-.274-4.304-.457-8.695.411-13.022.279-1.261 0-2.865-.248-4.105 0-.732.145-1.194.566-1.894.763-2.241.629-5.116.343-7.45.594-2.128.228-3.994.517-6.027 1.061-1.942.52-1.998 1.789-1.83 3.7.401 4.564.199 9.29.043 13.906-.084 2.481.024 4.256.679 6.58.326 1.152.003.941-.124 2.049-.12 1.042.187 2.037.362 3.06.753 4.375.755 8.811.41 13.225l-.015.187-.029.372c-.194 2.539-.243 4.917 2.737 5.173 4.331.372 8.787-.03 13.136.069 4.539.103 9.001.109 13.54-.048 4.088-.142 8.312-.317 12.372-.257 1.933.029 3.768-.608 5.6-.66.511-.014.828.339 1.348.314.922-.044 1.764-.575 2.744-.604 4.392-.13 8.962.164 13.29.72 1.19.153 4.232.608 5.296-.044 1.015-.62.75-2.028.849-3.045.225-2.34.57-4.509.465-6.877-.09-2.003-.292-4.001-.054-6.002.115-.968.752-2.233.669-3.169-.055-.634-.489-1.142-.696-1.752-.594-1.734.079-3.124.218-4.864.334-4.184-.304-8.248-.273-12.416.024-3.172.908-8.541-2.357-10.171-1.856-.927-4.14-1.116-6.2-1.125-2.159-.01-4.028-.524-6.15-.747-4.11-.43-8.32.073-12.448-.192-.839-.054-1.942-.477-2.769-.371zm-4.488 7.316c.763.199.907 1.706 1.07 2.287.27.963.432 1.969.573 2.981l.164 1.216c.192 1.418.408 2.822.882 4.117.41 1.117.621 1.938.868 3.105.194.917.853 1.461 1.057 2.286.257 1.042-.05 1.172.656 2.212.554.814.899 1.449 1.285 2.349.614 1.43 3.917 5.25 2.345 6.486 1.397.436 2.236 1.313 2.583 2.629 1.517-.306 1.815-3.381 2.273-4.653.764-2.119 1.598-4.011 2.659-5.994 1.456-2.719 2.164-7.711 5.453-8.679-.169 1.32 1.136 2.215 1.66 3.296.631 1.301.823 2.652 1.61 3.904 1.157 1.844 4.95 5.088 3.84 7.397-1.792 3.727-3.735.815-5.417-2.529l-.189-.38-.28-.573c-1.199-2.479-2.237-4.875-2.948-4.713-.53.12-1.82 2.965-2 3.417-.554 1.39-.964 2.669-1.588 4.051-.985 2.179-1.749 4.687-2.322 6.818-.351 1.303-1.687 6.883-3.68 5.529-.698-.475-1.413-2.61-1.747-3.333-.74-1.597-1.147-3.301-1.933-4.891-1.382-2.796-3.787-5.53-4.782-8.462-.42-1.236-.204-2.609-.562-3.849-.432-1.499-1.007-2.862-1.313-4.438-.516-2.658-1.301-4.385-3.059-1.032-1.29 2.461-2.541 4.987-3.924 7.398-.177.308-.549.405-.734.753-.23.432-.2 1.117-.426 1.59-.499 1.046-1.704 1.653-2.067 2.733-.096.287.071.927-.033 1.301-.105.381-.56.861-.701 1.243-.43 1.156-.063 2.565-1.534 2.941-2.587.66-4.271-3.529-5.466-5.064-1.896-2.435-3.101-4.016-6.068-2.552-1.012.5-2.371 1.025-3.219 1.91-.693.724-1.811 2.366-3.1 1.975-3.877-1.175 2.772-6.493 3.872-7.274 1.362-.966 2.57-2.271 4.056-3.033.361-.184 1.301-.711 1.715-.685 1.099.068.507-.078 1.261.985 1.833 2.579 4.348 4.992 5.949 7.697.133.225.277.46.582.554.929-.457 1.218-1.794 1.665-2.643.624-1.181 1.457-2.221 2.117-3.378 1.324-2.317 2.827-4.755 3.987-7.156 1.116-2.307 2.47-5.075 3.106-7.503.204-.779.435-2.704 1.806-2.345z" fill="#009344" fill-rule="evenodd"></path></svg> 