<?xml version="1.0" encoding="UTF-8"?> <svg xmlns="http://www.w3.org/2000/svg" xmlns:v="https://vecta.io/nano" width="128" height="128"><path d="M102.876 38.401c.024 1.792-1.618 2.883-2.618 4.147-1.122 1.42-2.047 2.884-2.493 4.641-.408 1.604-1.708 2.172-1.161 3.922.188.605.382 1.08.751 1.562.181.236.535.217.719.535.193.334.021.767.161 1.112.527 1.297 1.827 1.296 3.065 1.271l.336-.006.647.007c1.939.098 2.58 1.457 3.771-.605 1.763-3.052 3.165-6.01 6.464-7.548-.201 1.637-.26 3.533.058 5.15.357 1.81.792 3.236.671 5.064-.15 2.272.591 5.285-1.18 7.242-.42.463-.869.748-1.214 1.265-.432.645-.533 1.299-1.132 1.895-1.131 1.127-2.705 2.021-4.148 2.662-1.315.585-2.939.675-4.169 1.358-.48.266-.78.636-1.29.833-.7.271-1.266.054-1.872.596-.739.661-1.677 1.87-2.284 2.698-.418.569-.592 1.265-.983 1.851-.449.671-1.04 1.202-1.442 1.92l-5.004 8.631-2.214 3.945c-.319.544-.85 1.08-1.083 1.656-.225.554-.039 1.235-.299 1.727-.113.214-.84.6-1.056.815a10.45 10.45 0 0 0-1.404 1.87c-.668 1.233-.805 2.223-1.959 3.235-.511.448-1.282.833-1.686 1.381-.342.463-.305.968-.764 1.372-1.158 1.02-2.97.549-4.252 1.037-1.423.542-2.39 1.885-4.111.718-1.529-1.036-1.57-3.439-2.936-4.624-.673.378-.774 1.062-.792 1.752l-.004.318-.015.613c-.083 1.194-.459 2.047-1.012 3.109-1.149 2.205-2.681 3.171-5.24 2.55-2.356-.571-4.481-1.197-6.937-.948-.195.02-.679.197-1.194.391l-.388.146c-.578.216-1.114.408-1.24.372-.383-.109-.497-.591-.588-1.093l-.054-.301c-.037-.198-.077-.388-.138-.547-.911-2.405-.949-4.918-1.695-7.347-.367-1.196-.726-1.422-1.937-1.802-1.279-.401-2.345-1.03-3.558-1.52-1.178-.475-1.813.162-2.796 1.005l-2.612 2.116c-.567.504-.806 1.286-1.564 1.661-1.71.847-.891-.364-2.176-1.052-.837.317-1.05 1.867-2.361 1.151-.32-.174-.386-.705-.655-.996-.508-.55-1.392-.915-1.96-1.419-1.228-1.09-2.25-2.412-3.373-3.605-1.154-1.225-2.747-2.385-2.148-4.259.102-.32.395-.531.49-.83.225-.705.103-.325.135-1.145.025-.624-.096-.617.107-1.274.402-1.302 1.296-2.356 2.079-3.455.616-.866 2.439-2.123 2.674-3.105.303-1.266-1.594-3.141-2.066-4.264-.652-1.55-.894-3.156-1.208-4.792-.371-1.932-1.534-1.535-3.281-1.791-.976-.144-1.984-.492-2.965-.569-.19-.015-.41.012-.636.05l-.458.08c-.304.05-.596.08-.827.013-1.079-.314-.999-2.05-1.359-2.967-1.094-2.784-1.221-7.133-.769-10.172.226-1.512 1.317-2.711 1.577-4.21.204-1.171-.008-4.061 1.888-4.282.754-.088 1.163.662 1.817.91.894.338 1.832.08 2.745-.059.738-.112 2.572.027 3.125-.335.698-.457.549-1.134.721-1.91.256-1.147.882-3.756 2.216-4.153.661-.196 1.219.014 1.59.607.67 1.071-.422 1.426-.32 2.542.061.678.02 1.324-.938 1.62.931.831.4.834.352 1.739-.035.652.018 1.505-.109 2.156-.429 2.204-1.757 1.968-3.464 1.454-1.795-.54-4.444-1.27-6.283-.507-1.778.738-2.044 2.956-2.075 4.648-.036 1.965.156 3.776.374 5.688.118 1.027-.959 2.756-.347 3.667 1.607 2.39 8.026-1.41 8.986 1.19.248.671-.049 1.566.225 2.322.305.844.863 1.597 1.23 2.417.396.884.585 1.871.995 2.741.315.668.773 1.057 1.147 1.671.909 1.492.825 4.391.565 6.05-.358 2.284-2.02 1.977-3.399 3.466-.859.928-2.573 3.215-1.78 4.571.579.992 2.253.859 2.98 1.965.402.613.437 1.307 1.086 1.767.675.477 1.412.287 2.164.49 1.501.406 1.553 1.29 1.556 2.363l.001.297c.002.402.014.826.103 1.257 1.561-1.709 3.617-3.191 5.345-4.752 1.939-1.752 2.796-3.154 5.698-2.49.409.094.782.436 1.196.563.547.168 1.218.11 1.781.245 1.259.301.821.474 1.556 1.297.861.962 2.09 1.524 2.248 2.9.13 1.138-.433 1.266-.842 2.074-.18.355-.544.296-.586.799-.04.463.654 1.346.798 1.77.378 1.114.763 3.784 1.75 4.243.311.144 1.432-.245 1.883-.274.697-.043 1.408.013 2.106.006 1.353-.014 2.703-.113 4.054-.165.641-.024 2.79.297 3.303-.161.668-.597.3-1.935 1.053-2.655-1.098-.824.577-3.465.855-4.5.521-1.937-.318-4.035.362-5.892 1.122-3.069 3.766-5.547 5.667-8.108 1.104-1.486 2.273-2.933 3.458-4.372l1.527-1.849c3.223-3.905 6.392-7.856 8.476-12.498.822-1.831 1.447-2.878.959-4.887-.416-1.717-.85-3.345-1.438-5.009-1.193-3.377-1.228-7.423 1.032-10.396 2.033-2.675 5.438-4.142 8.451-5.362 1.616-.655 2.851-1.773 4.34-2.516 1.56-.779 3.175.378 4.871.438zm-5.623 3.297c-3.131.907-6.19 1.872-8.925 3.754-1.143.786-1.511 1.535-1.845 2.862-.145.577-.202 1.074-.463 1.617-.219.454-.633.466-.658.991.177 0 .263.021.334-.003.849-.294.916 0 .922.506l.001.176c.001.213.004.451.053.693.241 1.189.829 2.515 1.214 3.691.485 1.479.719 1.738.729 3.213.009 1.46.309 2.444-.088 3.943-.623 2.35-1.959 4.671-3.143 6.784-.681 1.216-1.71 1.956-2.577 3.01-.781.949-1.092 2.132-1.805 3.102-1.457 1.984-3.373 3.873-4.978 5.768-.697.823-1.788 1.526-2.361 2.4-.39.596-.438 1.261-.871 1.815-.617.788-1.607 1.19-2.166 2.105-.607.991-.527 1.988-.87 3.053-.543 1.685-1.642 3.766-.957 5.636.147.402.702.806.919 1.193s.32.955.463 1.379c.35 1.044.627 2.651 1.331 3.548 1.165 1.483 2.329-.11 3.64-.529 1.185-.38 1.972-.153 2.897-1.156.793-.859 1.655-1.95 2.36-2.894 1.34-1.79 2.031-3.946 3.225-5.829l7.63-12.359c2.266-3.606 4.001-7.122 7.397-9.824.908-.722 1.256-.766 2.382-.909 1.06-.136 1.957-.644 2.944-1.009 1.777-.66 3.45-1.313 4.659-2.86 1.438-1.84 1.856-4.488 1.789-6.775-.019-.667-.76-5.651-1.067-5.756-.806 1.529-1.487 3.296-2.633 4.613-1.183 1.359-1.351.654-2.722.925l-.736.571a1.82 1.82 0 0 1-1.32-.126l-2.172-.185c-1.205-.121-2.772.168-3.622-.755-.833-.905-1.186-2.747-1.707-3.895-.545-1.201-1.172-3.415-.915-4.711.242-1.221 1.32-2.607 1.864-3.765.484-1.031 2.067-2.811 1.848-4.008zM87.866 73c.672.341 1.83 1.341 1.921 2.178.083.763-.685 1.897-.928 2.646-.714 2.201-2.253 3.666-3.205 5.684-.417.882-.526 1.706-1.189 2.443-.405.45-.668.27-1.024.791-.231.338-.356.985-.54 1.376-.863 1.831-1.454 4.345-3.326 5.413-.206.118-.453.162-.576.204-1.075-.027-2.042-1.348-2.875-1.898-1.12-.738-1.825-.774-1.536-2.2.52-2.573 2.96-4.527 4.352-6.66 1.513-2.321 2.958-4.694 4.114-7.215.89-1.942 2.403-3.985 4.812-2.762zm-5.762 8.445c-.647 1.188-1.369 1.91-2.237 2.915-.677.784-1.044 2.476-2.078 2.856.312.518.541.946.815 1.343 1.659 2.404 3.691-3.492 4.163-4.243.827-1.315 1.538-2.586 2.176-4.008.295-.658 1.777-2.817 1.375-3.571-.917-1.72-3.745 3.849-4.214 4.708zM59.668 44.761c3.39.161 6.951 1.717 9.018 4.389 2.387 3.087 3.285 6.527 4.364 10.251.552 1.904.612 3.923.453 5.89-.184 2.267-.103 3.979-1.023 6.098-.688 1.588-1.286 3.984-2.419 5.285-.555.637-1.267.579-1.883 1.062-.749.588-1.131 1.412-2.015 1.94a13.16 13.16 0 0 1-4.635 1.648c-.991.137-2.094.222-3.091.226-.904.004-1.397-.319-2.275-.3-.997.023-1.852.509-2.91.404-1.11-.11-2.212-.543-3.241-.944-1.733-.676-3.492-1.464-5.016-2.541-1.685-1.19-2.908-2.813-3.892-4.614-.526-.963-.764-1.866-1.058-2.906-.274-.967-.867-1.945-.973-2.947-.155-1.453-.371-2.895-.266-4.148-.066-1.957.072-3.869.612-5.757.282-.987.582-1.86.653-2.895.053-.759-.269-2.064.06-2.726.307-.617 1.217-.753 1.76-1.177.76-.591 1.467-1.352 2.204-1.982 1.503-1.287 2.576-2.588 4.608-2.947 1.668-.294 2.754-1.006 4.511-1.04 2.151-.042 4.3-.372 6.454-.269zm-4.666 4.005c-1.006.034-2.194-.058-3.175.213-.73.202-1.299.895-2.036.96-.16.014-.324-.534-.544-.549-.196-.013-.358.16-.536.176-.642.059-1.721.734-2.247 1.134-.695.53-1.123 1.278-1.752 1.869-.601.563-1.297.935-1.823 1.596-2.08 2.614-2.823 7.362-2.294 10.567.234 1.418.5 2.893.904 4.307.39 1.362.91 2.209 1.74 3.152 1.122 1.274 2.037 2.462 3.489 3.501 1.302.931 2.276.923 3.691 1.427.661.236 1.125.785 1.807.998.781.244 1.739.116 2.54.072 1.888-.104 3.742-.403 5.604-.716 3.639-.613 6.086-2.323 8.349-5.249 2.132-2.754 2.607-6.241 2.361-9.671-.232-3.228-1.582-5.896-2.892-8.765-.69-1.512-1.748-2.644-3.183-3.522-1.037-.634-3.04-.83-3.776-1.737-.27.155-.471.495-.796.212-.955-.836-4.171-.017-5.431.025zm-5.826-31.756c1.114.096 2.063.821 3.237.844 1.093.021 2.046-.496 3.11-.628 1.379-.171 5.458-.622 6.413.622.316.412.283.844.197 1.284l-.093.442a3.18 3.18 0 0 0-.062.443c-.076 1.406.727 1.977 1.098 3.225.471 1.583-.354 3.292 1.396 4.223.971.516 2.574.619 3.641.794 1.38.227 2.385.682 3.653 1.109 1.83.616 2.96-1.647 4.263-2.753.7-.594 1.45-1.189 2.277-1.596 1.549-.762 1.674-.036 2.889.906.757.587 1.655.754 2.401 1.27.595.411.89 1.17 1.41 1.681 1.401 1.377 3.688 2.471 3.876 4.57.169 1.891-.163 3.258-.941 5.035-.332.757-.778 1.367-1.16 2.06-.42.763-.476 1.573-.882 2.283-.697 1.22-2.037 2.99-2.2.624-.187-2.709 1.844-4.288 2.461-6.683.471-1.828-1.949-3.326-2.959-4.609-1.091-1.386-1.824-2.979-3.612-3.717-1.314-.542-3.202.781-4.182 1.795-.783.811-1.418 2.572-2.618 3.151-1.274.616-2.207-.506-3.222-1.049-.701-.375-1.654-.47-2.409-.776-1.06-.43-2.846-1.503-4.01-1.338-.341.049-.68.508-1.043.44-.61-.114-.982-1.192-1.112-1.66-.299-1.083-.138-2.235-.129-3.323.012-1.419-.009-4.425-1.502-4.972-1.081-.396-3.397-.017-4.527.016-.726.021-1.508.192-2.225.161-.782-.035-1.45-.374-2.206-.457-1.131-.125-.833-.178-1.141.838-.361 1.189.031 2.883.023 4.136v.306l.001.163v.523c-.01 1.752-.181 4.065-2.017 4.286-1.101.133-1.603-.24-2.685.328-.396.208-.671.623-1.112.764-.546.175-1.057-.021-1.596.19-1.011.397-1.115 1.281-2.361 1-.888-.199-1.999-1.126-2.569-1.789-.697-.81-.856-1.848-1.419-2.729-.989-1.545-.664-.481-1.941-.415-.13.007-.259.052-.494.101 1.101 1.576-2.914 3.001-3.889 3.823-.863.728-1.27 1.5-1.845 2.467-.751 1.264-1.195 1.458-.169 2.558 1.151 1.234 3.832 2.201 2.42 4.304-1.218 1.813-3.048-.318-3.975-1.521-.582-.756-.664-1.397-1.324-2.124-.61-.673-.828-1.133-.822-2.09.01-1.62 1.14-3.915 2.446-4.896 1.582-1.188 2.825-2.615 4.376-3.843.731-.578 1.404-1.199 2.354-1.33.148-.021.967.218 1.216.082.395-.216.298-1.012.703-1.186 1.313-.565 1.265 1.022 1.665 1.698.156.264.082.422.292.717.135.19.555-.045.734.096.722.569.87 1.117 1.774 1.618 1.236.684 1.951.86 3.291.321.792-.32 1.295-.893 1.951-1.341.453-.31 1.621-.465 1.956-.892.374-.477.081-1.338.067-1.888-.031-1.287.153-2.544.344-3.813.235-1.566.442-4.059 2.518-3.878z" fill="#009344" fill-rule="evenodd"></path></svg> 