<?xml version="1.0" encoding="UTF-8"?> <svg xmlns="http://www.w3.org/2000/svg" xmlns:xlink="http://www.w3.org/1999/xlink" width="128px" height="128px" viewBox="0 0 128 128" version="1.1"><title>icon / illo / multi-lingual-3</title><g id="icon-/-illo-/-multi-lingual-3" stroke="none" stroke-width="1" fill="none" fill-rule="evenodd"><path d="M52.1396708,30.4977588 C60.5823447,26.0000734 69.5882603,24.0136423 78.9877755,25.472643 C84.4352979,26.3181706 89.6663033,28.3563763 94.2719392,31.8278817 C97.5591282,34.3052403 101.134634,36.3851638 102.745119,40.4034685 C104.216467,44.0738777 105.493992,47.8225076 106.83848,51.5432015 C107.258493,52.7053364 107.434832,53.9967215 108.041228,55.0437603 C110.300148,58.9432442 110.318005,63.0505715 109.526713,67.3009307 C109.41469,67.9024398 109.314781,68.5069716 109.217203,69.111934 L109.071362,70.0193767 C108.607325,72.8919156 108.085529,75.744928 106.457529,78.3006116 C103.883879,82.3408926 101.369753,86.2709198 97.5111373,89.4410896 C92.8612307,93.2612354 88.1737499,96.7573244 82.4483268,98.6778268 C80.9554014,99.1784387 79.4014642,99.5989677 77.8434349,99.7825999 C73.5428572,100.288799 69.2065654,100.515639 64.9190085,101.103411 C59.6593574,101.824903 55.429836,100.239259 52.3145213,95.9568668 C51.3930221,94.6904378 50.3320145,94.4654604 48.8744312,94.304177 C44.7156136,93.844969 41.6110062,95.797098 38.5948744,97.9718139 L38.0301508,98.3816472 L37.4660861,98.7934912 C37.2780172,98.9307515 37.0898224,99.0678124 36.9012658,99.2041398 C34.5069303,100.935423 32.0117768,102.3609 29.159854,103.000074 L28.3187116,102.173916 C28.9143192,100.889608 29.4585879,99.5781088 30.1166953,98.326579 C31.2573156,96.1561431 31.063864,95.3519607 28.8979503,94.1808864 C28.2476553,93.8292661 27.5374647,93.58045 26.8388069,93.3293991 C19.5668872,90.7164581 17.0058857,83.9920925 20.6353352,77.2301066 C22.7167999,73.352599 25.7655226,70.4841373 29.7309082,68.7863774 C32.3387844,67.669685 33.0456268,66.1078801 32.8867733,63.3686686 C32.5262837,57.1657738 34.852539,51.4437496 36.8436023,45.7373695 C37.9072141,42.6890004 40.0351816,40.233618 42.5530284,38.066907 C43.0687753,37.6230981 43.5768441,37.171343 44.0824775,36.7175565 L45.0920506,35.8090276 C47.2791548,33.8422741 49.4861598,31.9114205 52.1396708,30.4977588 Z M61.0179828,74.4957374 C55.29628,69.4676417 48.8517378,66.2844352 40.9674694,68.0645129 C40.1616691,68.2462827 39.3112262,68.3066243 38.4842206,68.2880004 C33.6631838,68.1799814 30.0478712,70.9460114 26.0296584,73.1846109 C25.2268343,73.6323308 24.5471496,74.4748785 24.036363,75.2853931 C20.7008111,80.5753416 20.7774477,88.4387483 26.6155935,90.5697013 C30.2718286,91.904294 32.9645259,93.0418452 33.7409364,98.6055658 C35.6564792,96.8645984 37.0370539,95.900995 38.0456064,94.6271164 C39.6854806,92.5565049 43.8956569,91.2867236 46.4611226,91.3060925 C49.2219,91.3269514 51.9860256,90.9392006 54.7482911,90.7261425 C57.9830249,90.4762091 61.8286193,87.6934175 62.3423821,84.0326928 C62.4361317,83.3644652 62.8974394,82.7331131 63.2538367,82.1248547 C65.510524,78.274538 64.1630592,77.2599049 61.0179828,74.4957374 Z M73.0975465,30.0861694 C72.0439794,30.1975406 71.4346069,30.2061076 70.8542521,30.3390827 C70.2939866,30.467588 69.7634828,30.7242261 69.2314909,30.9201501 C69.3070114,31.5056873 69.2943627,31.8900857 69.4096896,32.2312766 C70.901499,36.6455267 70.5421254,37.4258704 66.5227966,39.4681734 C65.3416258,40.0682373 64.2776421,40.9845359 63.3222888,41.9216934 C62.4056259,42.8204855 62.4249711,43.8988126 63.5737759,44.9834718 C65.1016715,44.4485917 66.6783019,43.7639751 68.3237565,43.3576004 C70.0529161,42.9311118 71.252316,44.2627247 70.7616186,45.9735213 C70.5629587,46.6663324 70.2087935,47.4291697 69.6883343,47.8947686 C67.3899806,49.9508533 65.0581448,51.9790021 62.6132144,53.8536895 C62.0503446,54.2853928 60.8457365,54.3922943 60.1954415,54.0905862 C58.7159088,53.4033623 57.632952,53.8264985 56.414951,54.6224864 C55.6054305,55.1514068 54.6404047,55.4922252 53.7003043,55.7581753 C51.8625142,56.2781561 50.7419831,57.3825567 50.2788153,59.474027 C53.8264199,60.6313196 53.8978482,63.3601016 53.1225537,66.5131374 C57.3249175,68.1174049 60.937998,70.2315964 64.2571809,73.1648695 C66.913048,75.5118604 67.8185502,77.8830625 67.0525563,80.932549 C66.4573207,83.3018887 65.2396917,85.5196294 64.2516005,87.78393 C64.0944354,88.1440886 63.9274172,88.5014702 63.7589936,88.8595795 L63.50636,89.3977272 C62.667774,91.1962927 61.899647,93.056859 62.2579331,95.4175171 C63.5354576,95.526281 64.7400658,95.7818016 65.9223526,95.7028361 C70.2426475,95.4156547 74.5651745,95.1016548 78.8661242,94.6125897 C80.2924576,94.4505613 81.7109786,93.8445377 83.0212411,93.2105783 C83.5655097,92.9472355 84.1090343,92.100218 84.1547931,91.4815302 C84.4516668,87.4609906 84.6112644,83.4300215 84.8229451,79.2575104 C83.9286035,79.2031285 83.3255554,79.1651356 82.7221352,79.1297501 C82.1038342,79.0936196 81.4762326,79.1144785 80.8683481,79.015399 C78.5264678,78.632863 77.7028105,77.4759428 78.0331663,75.1557704 C78.2240137,73.8148455 78.1853234,72.4079919 78.5911997,71.1404455 C79.0260938,69.7831315 79.5342762,67.9985841 80.5859832,67.3776614 C81.2147836,67.0063411 81.8309811,66.5676803 82.4526615,66.1296469 L82.8264723,65.8674459 C84.8876422,64.4317356 87.0479112,63.1508925 89.9572247,64.467482 C90.2250808,64.5885377 90.7433078,64.4957904 90.9765658,64.3006114 C93.3536928,62.3130055 95.5720194,63.1846177 97.7528163,64.3955201 L98.1263222,64.6059568 C98.2507166,64.6768968 98.3750112,64.7484745 98.4992285,64.8202198 C99.9553238,63.9724573 101.310229,63.183919 103.222424,62.0705789 C98.7975904,61.1993502 98.6193917,56.1481609 94.6778156,54.9472882 C93.133551,57.5121794 91.6685272,60.0282759 88.1577529,59.6375453 C87.7704777,59.5947102 87.2135603,60.3422758 86.8701837,60.8201665 C86.3675816,61.5200548 86.0777763,62.3827164 85.5349957,63.0423769 C84.3687059,64.4615224 83.1540531,64.3654228 82.40108,62.711243 C82.0268256,61.8884366 81.8393263,60.7810562 82.0569594,59.928079 C82.5446806,58.0168886 83.2332938,56.1369865 84.0335138,54.3304628 C85.2600713,51.561453 87.1291113,49.3377527 89.7299191,47.6489323 C91.0014913,46.8231461 92.0870523,45.5466602 92.9289388,44.2597448 C94.1860021,42.3377526 93.767477,41.5782676 91.4747036,40.9700092 C89.0186125,40.3185433 87.0781442,39.4394925 86.1462284,36.5464472 C85.7262152,35.2427703 83.8244373,34.1111787 82.7068823,32.740828 C81.8657399,31.7098058 80.2455828,31.6133337 79.1161232,32.9576109 C78.7180593,33.4314043 78.3445489,33.9305264 77.9100269,34.3685618 C75.1540858,37.1427863 74.7537898,37.1312394 71.5015709,34.1100613 C71.9747833,32.9166382 72.4781294,31.6472293 73.0975465,30.0861694 Z M99.7242979,70.9981584 C99.5637369,71.2532589 99.4029959,71.5082966 99.2425184,71.7635156 L98.7623199,72.5299603 C95.9709477,77.0069052 93.3961034,81.6140617 93.4147999,87.658777 C98.2886639,84.4196986 101.438205,80.5537378 103.296456,75.8802423 C102.023396,74.1403923 100.960528,72.6877237 99.7242979,70.9981584 Z M38.7390559,52.846506 C36.8763403,57.4604048 39.1557209,61.0917038 41.0069038,64.870132 L46.2405134,64.870132 C45.0031672,62.8296913 44.1955068,61.4857867 43.3763138,60.1489591 C43.2156596,59.8867934 43.0410437,59.6333336 42.8622868,59.3829545 L42.5922734,59.0089932 C41.7351711,57.827646 40.895431,56.6523486 41.1255789,54.880242 C41.3153103,53.4227312 39.9399439,53.024551 38.7390559,52.846506 Z M82.6759058,41.2952539 C83.9658535,40.705905 85.0267244,41.0351932 86.0205031,41.9600571 C87.068771,42.9358343 87.3267605,44.0936541 86.544637,45.2229038 C85.2724816,47.0590791 83.587024,48.4861167 81.3029269,48.9392084 C79.9114143,49.2153856 79.0681295,48.5300706 79.0028907,47.2997269 C78.9098514,45.5525582 81.0823755,42.0237903 82.6759058,41.2952539 Z M63.4238509,31.4073528 C53.5485192,33.7465217 52.0154154,34.4817954 50.589826,37.5733721 C55.6947158,36.817612 59.8803386,34.7674869 63.4238509,31.4073528 Z" id="multi-lingual-3" fill="#009344"></path></g></svg> 