<?xml version="1.0" encoding="UTF-8"?> <svg xmlns="http://www.w3.org/2000/svg" xmlns:v="https://vecta.io/nano" viewBox="0 0 128 128" fill="#278840"><path d="M30.5 97.45l5.26-.4 4.81-.46 5.02-.56 4.59-.48 3.43-.28 3.68.12 9.83-.13 3.66.15c1.31.09 1.7.78 1.18 1.97-.1.22-.13.48-.25.69-.23.41-.55.64-1.09.53-.69-.14-1.39-.24-2.1-.26l-6.27-.16-5.17-.15-4.1-.26-6.82.41h-.22l-7.61.14c-2.09.02-4.19.05-6.28-.02-.79-.02-1.58-.26-2.34-.49-.28-.09-.55-.41-.69-.7-.86-1.72-1.1-3.56-1.13-5.46-.03-2.04.83-3.83 1.46-5.69.65-1.93 1.9-3.35 3.36-4.7 2.89-2.69 6.49-4.24 9.8-6.26 1.52-.92 3.13-1.69 4.7-2.51.65-.34.71-.58.26-1.18l-4.53-6.03c-2.22-3.13-3.52-6.61-4.09-10.42-.4-2.66-.67-5.31-.54-7.98a41.15 41.15 0 0 1 .59-5.08c.28-1.59.65-3.19 1.17-4.71.73-2.15 2.03-4 3.51-5.7 3.04-3.51 6.85-5.69 11.47-6.34 1.74-.24 3.49-.4 5.23-.6 2.21-.25 4.4-.08 6.57.3 2.01.35 3.67 1.45 5.22 2.68 1.61 1.28 3.2 2.62 4.67 4.06 1.45 1.42 2.66 3.06 3.49 4.95.8 1.83 1.73 3.61 2.49 5.46.33.79.5 1.69.54 2.55.07 1.78.2 3.6-.55 5.29-1.76 3.95-3.25 8.01-5.5 11.75-1.68 2.79-2.9 5.85-4.33 8.79-.21.44-.18.79.06 1.21a8.66 8.66 0 0 0 2.67 2.88c1.1.76 1.17 1.44.21 2.52-1.85-1.37-3.81-2.61-4.93-4.76-.44-.85-.52-1.69-.18-2.59 1.69-4.44 3.27-8.92 5.92-12.93.9-1.36 1.41-2.99 2.09-4.5.51-1.16 1.15-2.29 1.47-3.5.55-2.07.59-4.16-.4-6.16-1.04-2.09-1.96-4.25-3.15-6.25-1.41-2.38-3.63-4.02-5.87-5.58-1.56-1.08-3.07-2.27-5.02-2.55-2.2-.32-4.4-.55-6.64-.3-2.09.23-4.17.42-6.17 1.07-3.42 1.12-6.38 2.95-8.68 5.77-1.31 1.6-2.49 3.28-2.93 5.33a41.74 41.74 0 0 0-.68 4.32c-.17 1.63-.37 3.28-.28 4.91.22 3.8.74 7.56 2.31 11.08.8 1.79 1.87 3.42 3.19 4.91 1.38 1.56 2.6 3.26 3.99 4.81 1.46 1.62.12 4.66-1.33 5.42-2.95 1.56-5.81 3.31-8.72 4.94-2.11 1.19-4.16 2.45-6.04 4-1.99 1.64-3.05 3.75-3.65 6.17-.39 1.55-.03 3.04.42 4.52.22.74.34 1.47-.13 2.19l.1.22zm66.54-10.03l1.02.14c1.17.04 1.62.51 1.7 1.68.06.95.19 1.89.34 2.83.1.62-.45 1.47-1.07 1.53-.39.03-.83.12-1.17-.02-.6-.24-.78.13-1.02.51-.24.39-.51.77-.58 1.06l1.19 2.44c.32.71-.34.96-.7 1.29-.66.61-1.38 1.16-2.11 1.69-.31.22-.7.33-1.11.52l-1.65-1-1.6.67c-.2.11-.41.4-.42.62-.03.45.05.91.12 1.35.09.52-.26.97-.85.93-.66-.04-1.31-.19-1.97-.22-.87-.04-1.75 0-2.84 0-.09-.33-.32-.84-.35-1.36-.07-.97-.31-1.78-1.3-2.15-.17-.06-.43-.05-.59.03a3.61 3.61 0 0 0-.8.61c-.85.84-1.61.63-2.4-.12a23.42 23.42 0 0 1-1.86-2c-.47-.55-.68-1.17-.11-1.82.16-.18.28-.4.42-.6.59-.88.22-1.86-.82-2.08-.47-.1-.96-.17-1.44-.19-.95-.05-1.3-.31-1.32-1.26-.02-1.15.29-2.36.04-3.45-.35-1.56.69-1.59 1.6-1.9.23-.08.47-.17.71-.18.82-.05 1.04-.7 1.3-1.29.05-.11-.05-.31-.13-.44-.09-.14-.24-.25-.35-.38-1.18-1.34-1.17-1.86.12-3.06l2.02-1.71c.4-.31.81-.4 1.28.03.99.9 2.17.99 3.27.29.19-.12.27-.47.33-.74.14-.61.04-1.46.41-1.78s1.2-.14 1.82-.15l2.59.04c.48.02.93.06.97.79.05.87 1.44 2.1 2.29 2.12.25 0 .54-.22.74-.42.54-.53 1.03-.69 1.73-.21.84.57 1.75 1.03 2.65 1.5.74.38.61 1 .43 1.57-.17.53-.46 1.02-.74 1.51-.29.5-.36.97-.13 1.51.16.37.24.78.38 1.25zm1.51 1.52l-.57-.16c-1.71-.46-2.62-1.52-2.75-3.22 0-.12.11-.25.17-.37l.98-2.03-2.45-2.32-1.13.81c-.3.18-.69.42-.98.37-1.31-.26-2.61-.6-2.77-2.29 0-.09-.03-.21-.09-.27-.2-.19-.41-.49-.63-.5l-3.39-.02v.89c-.01.69.05 1.25-.88 1.65-1.39.6-2.61.95-3.88-.12-.18-.15-.4-.24-.58-.34l-.86.66c-.28.24-.53.52-.79.78-1.15 1.18-1.18.85.02 2.04.35.34.61.71.41 1.16a25.01 25.01 0 0 1-1.25 2.48c-.12.21-.46.39-.72.42-1.17.12-1.72.66-1.68 1.81.02.58.13 1.16.2 1.75.12.01.21.04.3.04 1.45 0 2.59.2 3.27 1.91.65 1.64.79 1.49-.28 2.93-.04.06-.1.11-.15.16-.4.36-.24.66.12.89l2.3 1.39c.24-.16.45-.34.69-.44.3-.12.65-.3.93-.23.66.15 1.28.43 1.92.66.36.13.6.3.65.76.09.73.32 1.45.5 2.17l3.05-.25c.58-.01.79-.17.77-.76-.04-.95.19-1.74 1.35-1.88.26-.03.51-.17.74-.3.47-.26.87-.25 1.36.06 1.12.73 1.31.68 2.27-.28l.63-.63c.86-.86.87-.91.28-1.98-.05-.09-.09-.18-.15-.25-.39-.49-.34-1.01-.07-1.51l1.11-1.81c.13-.19.35-.35.56-.44l1.86-.72-.36-2.67zm-12.09 8.07c-2.43.36-4.85-2.13-5.65-4.63-.48-1.48-.2-2.98-.05-4.42.09-.9.8-1.83 1.45-2.55.7-.78 1.77-1.04 2.81-1.27 1.74-.39 3.38 0 4.92.66.78.33 1.35 1.13 2.01 1.73.07.06.07.2.13.26 1.91 1.68 1.14 3.66.41 5.46-.52 1.31-1.45 2.48-2.35 3.6-.93 1.16-2.33 1.19-3.7 1.17zm5.78-6.86c-.09-1.9-1.03-3.93-3.67-4.87-2.05-.73-3.89-.3-5.43 1.33-.94.98-1.14 2.22-1.34 3.45-.3 1.89.39 3.46 1.79 4.69.96.84 2.06 1.47 3.42 1.35 2.74-.24 5.17-3.59 5.23-5.95z"></path></svg> 