<?xml version="1.0" encoding="UTF-8"?> <svg xmlns="http://www.w3.org/2000/svg" xmlns:v="https://vecta.io/nano" viewBox="0 0 128 128" fill="#278840"><path d="M69.2 99.75l1.28 1.68c-2.56 1.21-5.18 1.56-7.85 1.49-3.45-.09-6.91-.13-10.33-.48-4.77-.48-9.43-1.57-13.99-3.1-3.84-1.29-7.56-2.81-10.9-5.12-1.02-.7-1.7-1.76-1.7-3.15V70.16l-.19-24.44c0-2.96.08-5.96.51-8.88.19-1.33 1.22-2.59 2.02-3.78 2.64-3.92 6.87-5.4 11.04-6.79 2.73-.92 5.61-1.45 8.45-1.98 1.75-.33 3.56-.37 5.34-.51 2.15-.17 4.31-.41 6.46-.41 2.12 0 4.26.13 6.35.44 3.16.47 6.34.94 9.41 1.78 6.09 1.66 11.51 4.57 15.83 9.3.64.7.85 1.32.42 2.26-.3.67-.4 1.49-.37 2.23.09 2.49.35 4.97.4 7.45l.25 18.34c.02 1.18.15 2.35.2 3.53.03.72-.07 1.32-1.05.85-.18-.09-.44-.02-.66-.03-.94-.06-1.42-.68-1.33-1.62l.45-4.92c.11-1.18-.59-1.95-1.27-2.82-3.21 2.14-6.89 2.62-10.46 3.35-4.66.95-9.35 1.72-14.05 2.44-3.05.47-6.13.43-9.18-.17-4.44-.88-8.9-1.65-13.29-2.71-3.52-.85-6.97-2.03-10.12-3.9-1.11-.66-2.04-.35-2.09.85-.11 2.74-.06 5.48-.04 8.22.01 1.06.02 2.15.28 3.16.18.7.65 1.5 1.23 1.91 4.16 2.95 8.64 5.27 13.69 6.26 2.45.48 4.94.85 7.43 1.05 3.37.27 6.75.32 10.13.48 1.03.05 1.65.77 1.62 1.84-.02 1.03-.47 1.44-1.65 1.41-2.98-.06-5.97.03-8.93-.25-5.5-.53-11.03-1.15-15.96-3.96-1.96-1.11-3.77-2.48-5.66-3.72-.36-.24-.73-.51-1.14-.62-.65-.18-1.07-.13-1.29.8-.86 3.62.14 7.16.25 10.74.02.66.06 1.33 0 1.99-.1 1.24.44 2.21 1.24 3.04 1.71 1.8 3.82 2.92 6.15 3.79 5.06 1.89 10.27 3.23 15.59 3.87 4.47.54 9.02.45 13.53.49 1.27.01 2.55-.48 3.93-.76zm19.7-55.03h-.1v-2.43c-.02-.8-.67-1.4-1.45-1.25-.67.13-1.38.28-1.96.63-2.77 1.66-5.67 3.01-8.86 3.48-4.36.64-8.74 1.19-13.13 1.54-4.04.32-8.1.34-12.15.48-3.55.12-7.07-.04-10.54-1-4.05-1.12-7.8-2.79-11.13-5.38-.36-.28-.9-.35-1.35-.51-.12.44-.36.89-.33 1.32.27 3.71.45 7.44.92 11.13.37 2.89 2.16 4.74 4.93 5.82 3.99 1.55 8.08 2.75 12.29 3.47 2.58.44 5.2.65 7.8.92 1.2.13 2.41.23 3.61.24 2.67.02 5.35.13 8-.1 2.45-.21 4.87-.84 7.31-1.22 4.66-.73 9.09-2.07 12.93-4.9.98-.72 2.3-1.21 2.43-2.71l.77-9.5zm-61.11-8.85c.23.26.39.46.57.63.21.2.45.37.69.54 3.96 2.85 8.2 5.11 13.08 5.9 2.69.43 5.38 1.05 8.08 1.13 6.13.17 12.28.18 18.39-.61l7.69-1c3.5-.54 6.41-2.46 9.42-4.14l3.02-1.68c-.46-.5-.77-.91-1.15-1.24-.77-.68-1.54-1.36-2.36-1.95-7.34-5.3-15.82-6.92-24.6-7.5-1.71-.11-3.45.09-5.16.2-2.88.2-5.79.24-8.62.71-4.73.79-9.32 2.09-13.6 4.4-2.16 1.17-3.71 2.92-5.45 4.61zm74.68 51.34c-.35 9.79-7.33 17.4-17.01 17.43-9.71.03-17.08-8.31-17.08-17.48 0-9.14 7.34-16.76 16.89-16.61 9.57.15 16.83 6.27 17.2 16.66zM85.6 102.77c8.19.23 15.29-6.99 15.36-15.45.06-8.41-6.73-15.06-14.3-15.4-9.53-.43-16.72 6.92-16.71 15.1.01 8.52 7.01 15.96 15.65 15.75zM88.11 87l4.63 5.22c.68.73.55 1.45.23 2.22-.36.85-1.01.73-1.48.22l-3.37-3.88-1.62-1.73-3.06 4.37c-.46.64-.92 1.28-1.47 1.83-.18.18-.71.24-.93.11-.98-.57-1.13-1.75-.48-2.62l3.88-5.42-4.11-4.46c-.51-.57-.96-1.2-1.38-1.84-.24-.36-.45-.78-.5-1.19-.04-.32.2-.67.37-1.15.92-.16 1.61.48 2.25 1.15l4.61 4.89 4.64-5.26c.05-.06.11-.1.16-.15.66-.67 1.6-1.04 2.25-.4.66.65.12 1.54-.39 2.23l-3.98 5.36c-.12.17-.18.39-.24.53z"></path></svg> 