<?xml version="1.0" encoding="UTF-8"?> <svg xmlns="http://www.w3.org/2000/svg" xmlns:v="https://vecta.io/nano" viewBox="0 0 128 128"><defs><mask id="A" x="48.02" y="25.55" width="71.31" height="71.84" maskUnits="userSpaceOnUse"><path d="m48.02,25.55h71.31v71.84H48.02V25.55Z" fill="#fff" fill-rule="evenodd"></path></mask><mask id="B" x="8.67" y="33.22" width="75.17" height="69.23" maskUnits="userSpaceOnUse"><path d="m8.67,33.22h75.17v69.23H8.67V33.22Z" fill="#fff" fill-rule="evenodd"></path></mask></defs><g mask="url(#A)"><path d="M92.67 67.46a2.16 2.16 0 0 0-.06 1.42c.54 1.95.8 3.51 2.04 5.09.94 1.19 1.16 1.49 1.17 3.03 0 1.72.15 2.07 1.37 3.32.96.98 1.67 1.99 2.59 3.07.95 1.13 2.11 2.04 3.17 3.05 1.01.97 1.44 2.33 2.31 3.26.44.47.8.43 1.31.76s1.29 1.33 1.77 1.58c1.2.62 2.21-.33 3.38-1.08 2.96-1.9 4.71-4.8 2.14-7.84-1.94-2.3-4.26-4.7-6.58-6.62-2.38-1.98-4.22-4.14-6.45-6.29-1.04-1-2.11-2.01-3.51-2.46-1.55-.5-3.09.09-4.64-.28m-40.52-8.88c.34-.15.55-.84 1-.22 2.91 4.07 4.42 10.58 9.22 13.05 1.29.66 2.62.64 4.02.85 1.31.19 2.54.83 3.85.94 2.49.21 5.02-1.05 7.57-1.1 9.32-.18 16.63-10.41 17.68-19.06.27-2.22.47-5.2-.3-7.33-.77-2.11-2.22-4.35-3.36-6.3-2.4-4.09-6.96-7.29-11.39-8.83-2.32-.81-4.59-.43-6.9.18-2.28.6-4.33.31-6.63.59-2.59.31-3.8 1.67-5.82 3.01-1.05.7-2.42 1.24-3.59 1.82-1.03.51-1.89.59-2.61 1.56-.56.77-.89 2.2-1.25 3.07-.81 2.02-1.02 4.18-1.97 6.15-1.25 2.62-.72 4.87.09 7.68.24.82.73 1.67.69 2.53-.02.53-.85.92-.31 1.41m34.12-29.16c1.21-1.16 4.19 1.73 5.07 2.49 1.81 1.55 2.46 2.99 3.63 5.04.88 1.56 2.61 3.33 3 5.13.17.8 0 1.57.12 2.38.19 1.27.73 2.38.73 3.71.01 2.27-.82 4.45-1.28 6.65-.21 1-.37 2-.55 3.01-.19 1.01-1.03 2.58-1.03 3.57 0 1.9 2.6 1.69 4.09 2.59 1.7 1.03 3.04 2.58 4.42 3.98 2.91 2.95 5.59 6.1 8.8 8.71 1.53 1.25 3.03 2.6 4.15 4.25.74 1.1 2.27 3.58 1.84 4.96-.12.37-.76.83-1 1.27-.48.89-.68 2.13-1.09 3.08-.36.83-.7 1.89-1.31 2.57-.8.91-1.99 1.19-2.94 1.92-1.37 1.06-2.34 3.28-4.31 2.5-1.48-.59-3.29-2.38-4.42-3.51-1.77-1.77-3.03-4.17-4.98-5.7-2.02-1.59-3.85-2.76-5.4-4.88-.63-.87-1.48-1.91-1.78-2.94-.25-.89 0-1.84-.16-2.75-.2-1.16-.84-2.11-1.2-3.21-.33-1.02-.21-2.41-.9-3.28l-6.8 4.41c-2.26 1.45-5.25 1.31-7.84 1.58-1.72.18-2.24-.28-2.7 1.34-.13.47-.5 3.61-.33 4.11.73 2.14 4.74 2.1 3.88 5.29-.71 2.64-3.26 1.36-4.67 2.68-.64.6-.33 1.91-1.51 2.04s-1.63-1.44-1.84-2.28c-.3-1.2-.06-2.54-.52-3.72-.47-1.22-1.1-1.44-.93-2.75.21-1.61 1.46-6.06 3.62-5.93-3.19.14-8.32-.92-10.81-2.95-2.35-1.93-4.42-5.07-5.49-7.87-1.35-3.54-3.63-6.41-4.58-10.1-1.06-4.14-1.69-8.08-.9-12.34.77-4.17 2.32-6.98 5.37-9.81 1.36-1.27 2.45-1.97 4.12-2.79 1.73-.85 3.04-2.48 4.7-3.3 3.05-1.51 6.43-1.72 9.76-1.89 1.02-.05 2.25.03 3.24-.24.7-.19 1.3-.75 2.02-.85.96-.12 1.19.33 2.06.47.62.1 1.18-.23 1.83-.01 1.88.63 3.68 1.36 4.79 3.38" fill-rule="evenodd" fill="#009247"></path></g><g mask="url(#B)"><path d="m17.52,33.22c2.39,1.47,2.49,5.76,2.77,8.22.41,3.64.39,7.16.4,10.81l-.23,21.68.08,10.37c-.05,1.85-1.1,6.65.44,7.97.77.66,3.14.79,4.1,1,1.72.38,3.44.64,5.19.87,1.71.22,8.11.19,8.43,2.26.63-2.15,6.86-.29,8.43-.17,3.86.27,7.21-1.19,11-1.28l11.15-.16c3.73-.37,7.58-1.21,11.3-1.04.67.03,2.64-.31,3.12.48.59.96-.89,2.63-1.59,3.25-2.48,2.2-6.65,1.15-9.71,1.54-3.31.42-6.76,1.21-10.1,1.19-1.71-.01-3.37-.44-5.08-.37-1.86.08-3.77.51-5.61.8-6.85,1.06-13.81-.55-20.67-1.54l-5.32-.77c-.61-.08-2.7-.58-3.33-.06s0,1.41-.26,2.04c-.45,1.12-2.02,2.35-3.18,2.13-2.97-.55-.22-4.46-2.56-5.87-1.82-1.1-7.46-.16-7.6-2.62-.19-3.5,3.78-3.06,5.91-2.6,1.31.28,2.17.99,2.79-.34.72-1.54.2-4.84.23-6.5l.09-23.17c-.04-1.79.73-2.97.64-4.92-.11-2.13-.37-4.26-.58-6.38l-.55-6.29c-.18-1.68-.02-4.4-.86-5.87-1.1-1.94.45-3.13,1.18-4.65" fill-rule="evenodd" fill="#009247"></path></g><path d="M42.64 86.93c-2.12-1.69-1.04-6.59-1.16-9-.17-3.38-1.24-6.68-.75-10.05.24-1.62.58-3.22.4-4.87-.18-1.63-.83-3.15-.96-4.8-.1-1.2-.44-3.38.15-4.48.52-.96 2.22-1.58 3.04-.64.61.71.31 2.39.78 3.35.65 1.33 1.52 2.05 1.75 3.6.38 2.62-.44 5.24-.4 7.8.05 3.02-.7 6.04-.3 9.17.37 2.92 1.66 6.3-1.06 8.51-.53.43-1 .94-1.49 1.41M29.08 72.77c0-1.84-.51-9.42 2.93-7.32.94.57.88 1.43 1.38 2.25.26.43.76.98.96 1.32.96 1.65.73 4.17.68 6.09-.05 2.39-.41 4.7-.88 7.03-.37 1.84-.35 4.62-1.26 6.21-2.35 4.06-3.26-5.37-3.35-6.8l-.46-8.79m30.25 9.38c-.44 2.06-1.15 3.5-2.83 4.72-.82.59-1.11 1.07-1.94-.27-.65-1.06-.62-3.02-.74-4.24-.18-1.91-.63-6.11 1.83-6.37 2.22-.24 3.42.94 3.45 2.99.02.94.13 1.87.23 3.18m17.83-19.34l3.35-.76c3.37-.52 5.31-5.25 6.16-8.08 1.24-4.11-.27-6.28-2.28-9.78-1.88-3.27-3.95-3.36-7.31-4.28-.8-.22-1.55-.8-2.34-.97-.85-.18-1.45.15-2.25.08-2.19-.19-3.11-1.04-5.45-.24-2.95 1.01-6.13 2.39-7.01 5.65-.23.86-.16 1.54-.62 2.34-.44.76-1.23 1.14-1.63 1.95-.82 1.67-.1 3.48.44 5.12 1.06 3.22 2.49 8.6 6.12 9.89 1.75.62 4.58.19 6.44.15 1.33-.02 4.14.46 4.83-1.09-1.57-.75-1.14-3.83-1.31-5.33-.3-2.64-.27-5.29-.29-7.94-.02-1.92.57-4.86-1.83-4.86-2.82 0-2.87 1.61-2.81 3.82.06 2.19.59 3.84.21 5.96-.39 2.15.64 4.53.06 6.54-.56 1.94-2.17 1.6-3.09-.01-.91-1.59-.48-4.13-.54-5.87l-.46-7.69c-.09-1.78-.66-4.53.71-5.97 1.48-1.56 1.6.27 3.18.21 1.94-.06 3.27-2.2 5.42-1.46 2.03.7 1.91 2.59 1.94 4.36.04 2.48.32 4.96.5 7.43.14 1.92.4 4.08.88 5.92.3 1.14.92.35.76 1.8-.1.93-1.16 2.41-1.76 3.09m-6.11 6.3c-2.77-.33-6.42-.23-9-1.37-2.12-.94-3.45-3.87-4.39-5.91-1.7-3.7-4.13-10.05-3.25-14.18.19-.9.8-1.56 1.13-2.4.42-1.09.54-2.2 1.1-3.26 1.03-1.98 2.68-3.59 4.47-4.89 2-1.45 4.07-1.5 6.22-2.43.89-.38 1.2-.94 2.23-1.06.7-.08 1.59.29 2.28.41 1.09.19 2.12.02 3.15.11 1.23.11 2.24.58 3.42.94.95.3 2.09.25 2.95.59.6.23 1.65 1.02 2.29 1.36 2.19 1.19 3.25 2.85 4.4 5.04.88 1.66 2.6 3.49 2.58 5.34-.04 4.83-1.88 10.1-4.37 14.2-2.75 4.53-7.57 5.89-12.51 7.21-.9.24-1.79.21-2.69.3" fill-rule="evenodd" fill="#009247"></path></svg> 