<?xml version="1.0" encoding="UTF-8"?> <svg xmlns="http://www.w3.org/2000/svg" xmlns:v="https://vecta.io/nano" viewBox="0 0 128 128" fill-rule="evenodd" fill="#009247"><path d="M98.4 107c2 0 1.9 0 2-1.8.3-5.9 0-11.6 0-17.6-.1-5.8.5-11.6.7-17.4.1-2.9-.3-5.9-.4-8.8-.1-2.6.2-5.3 0-7.9-.2-2.9-.1-5.7-.1-8.6-.1-2.9-.5-5.8-.4-8.7.1-2.5.3-5.2-.4-7.7-.4-1.3-.8-1.7-1.7-2.6s-.4-.8-.8-2c-.6-2-4.2-1.8-6.1-2-2.7-.2-5.4-.6-8.1-.8-2.4-.1-5.1.1-7.5.2-2.1.1-4.5.6-6.6.5-1.2 0-2.3-.6-3.4-.8-1.1-.1-2.1 0-3.2 0-2.3 0-4.7-.3-7-.3-2.4 0-4.6.5-7 .3-2.4-.3-4.6.4-7 .2-2.6-.2-5.4-.2-7.9-.1-1.1.1-2 .5-3.1.5-.6 0-2-.6-2.5-.2-1 .7.4 5.8.5 6.8.3 2.5-.1 4.7-.2 7.2-.2 5.7-.4 11.3-.2 16.9.1 2.7.7 5.3.7 8 0 2.6-.3 5-.1 7.6.4 5.5-.7 10.8.1 16.3.4 2.9.2 5.4.1 8.3 0 2.5.2 5.1.2 7.6 0 1.9-1.2 4.1.5 5.1 1.7 1.1 4.5 1.3 6.5 1.6 5.1.8 10.5.5 15.6-.1 5.5-.7 10.7-.1 16.1 0 2.7 0 5.4-.9 8.1-.9 2.5 0 5 .4 7.5.4 2.7 0 5.5.2 8.2 0 1.3-.1 2.4-.2 3.7.1 1.1.3 2 .8 3.2.7M58.1 17.6c.3-1.2.9-.9 1.8-.9 1.3 0 2.7.1 4.1.2 3 .4 6 .6 9 .8 2.6.1 5.4-.9 7.8-.5 3 .4 6 .2 9 .4 2.8.2 5.9.2 8.6 1 .5.2 1 .5 1.6.6.4 0 1-.2 1.3-.2 1.4.2 1 .7.4 1.8-1.1 2.4.5 4.6.7 7 .2 2.8.1 5.7.1 8.5v17.5c0 6.2.5 12.3.1 18.5-.3 5.6-.5 11.2-.4 16.7 0 3 .1 6 .4 9 .2 2.3 1.3 6 .2 8.2-.6 1.2-1.3 1.1-1.6 2.4-.2 1.1 0 1.7-1.1 2.4s-2 .2-3.1-.1c-1.4-.3-2.6-.2-4-.2-5.9.1-11.7-.4-17.6-.4-3 0-5.9.4-8.9.4l-8.8-.1c-2.7 0-5.6-.1-8.3.4-3.1.6-5.8.2-8.9.1-2.9 0-5.9-.2-8.7-.7-1.3-.2-2.5-.6-3.7-1.1-1.4-.6-2-.5-2-2.2 0-5.9.6-11.7.4-17.6-.1-2.9-.6-5.7-.6-8.6 0-3 .3-6 .4-9 0-3.2-.5-6.4-.2-9.6.3-2.9-.8-5.1-.9-7.9-.3-7 .7-14 1-20.9.1-3-.7-5.6-1.1-8.5-.2-1.4.4-2.8.2-4-.2-1-1.2-2-.5-3.1 1.4-2.2 5.3 0 7.2-.3 1.6-.3 2.7-.7 4.4-.5 1.5.2 2.5.3 4 0 1.4-.3 2 0 3.4.2 1.6.1 2.9-.2 4.5-.4 2.8-.4 6 0 8.9-.1.3 0 .7.1.9.8m-9.9 25v-2.2c-.1-2.3-4.6.8-5.3 1.8-.6.8-.6 2.2-.9 3.2-.5 1.3-.9 2.3-.9 3.7 0 2.8 1.7 4.2 3.4 6.2 1.5 1.9 5.1 2.8 7.4 2.8 3 .1 4.2-1 5.9-3.2 1.3-1.7 3.6-4.2 0-4.3-1.9 0-7.2.9-8.6-.5-.7-.7-.4-2.3-.5-3.3-.4-1.3-.6-2.7-.5-4.2m.4-5.7c.8-.3.7-1.5 1.8-1.4.7.1 1.1.8 1.3 1.4.4 1.6-1.2 2.3-1.2 3.8 0 1.2.4 5.6 1.5 6.2 1.2.7 4.3.2 5.7.1 1.5-.1 4.4-.9 5 .9.5 1.5-.7 4-1.2 5.5-.3.8-.3 2.3-.8 2.9-.4.6-1.5.7-2 1.3-.9.9-1.1 2.9-2.2 3.5-.5.3-2.1.2-2.7.3-1.1.2-2.2.4-3.3.4-2 0-3.9-.4-5.5-1.4-1.7-1-3.1-2.4-4.3-4-1.3-1.8-1.5-3.1-1.7-5.2-.3-2.3 0-3.9.9-6.1.7-1.7.9-3.5 1.7-5.1.8-1.7 2.2-2 3.6-3.1 1.3-1 2.2-2.3 3.2-.4 0 .2.1.3.2.4m17.3 3.6c.9 4.1-3.5 5-6.5 4.7-.9-.1-1.7-.5-2.6-.5s-1.6.4-2.4-.3c-.9-.9-.4-3.7-.4-4.8 0-1.7-1-3.5-.6-5 .6-2 1.7-2.2 3.3-1.5 1.5.7 3.5 1.1 4.6 2.5.4.5.6 1.3 1.1 1.8.7.7 1.6.5 1.9 1.6.2 1.2.2 1.2 1.6 1.5m23.6 52.3c-2.4-1.2-5.2.5-7.8 0-2.7-.5-5-1-7.8-1-2.1 0-3.3 1-5.5 1.2-1.9.1-4.4.2-3.8-2.4.6-2.2 2.6-1.5 4.5-1.6 2.5-.2 4.5-1.3 7.1-1.1 1.2.1 2.5-.1 3.7.2 1.4.3 2.3.8 3.8.6 1.1-.1 6.4-1.9 6.5.6.1 1.1.1 2.3-.7 3.5m1.7 4.2c-1.2 7.1-8.3 1.7-12.3 1.3-2.8-.3-5.3.7-8 1.2-1.2.2-5.6 1.6-6.3.1-.2-.6.4-1.9.8-2.3.8-.9 1.5-.5 2.8-.7 2.7-.6 5.6-.8 8.2-1.6 3.2-1 5.1 0 8.2.9 1.1.3 2.7 1 3.8.9.8-.1 1.5-1.3 2.4-1.1.4.1.4.6.4 1.3M77.1 43.3c0 2-.1 4-.5 5.9-.6 2.7-.6 4.1.2 6.8.7 2.2-.5 3.4-2.9 2.9-.5-.1-1-.6-1.5-.6-.4 0-.8.3-1.2.4-.7.1-2.5-.1-3-.5-.9-.9-.9-4.5 0-5.3 1.4-1.1 3.4-.1 4.2-1.9.9-2.3-.3-5.6.8-7.8.4-.9 4-2.3 3.9-.6v.7m2.8 11.1l-.1-3.2c0-1.1.5-2 .7-3 .4-2.3-.2-4.7-.5-7-.1-.7-.7-2.4-.3-3.1.3-.5 2.1-1.2 2.6-1.2 2.1 0 1.4 3.3 1.6 4.8.3 2.4 1 4.3.5 6.7-.3 1.1-.8 2.2-.7 3.4s.7 2.3.7 3.5c.1 2-.7 3.7-2.8 3.3s-1.6-2.5-1.7-4.2m-32 43.1c.3-2.5 1-5.4 2.1-7.6.5-1 1.3-2 2.2-2.8.5-.4 2.1-2.1 2.8-2.1 2.4.2-1 5.1-1.6 5.6-2.1 2-2.6 3.9-3.1 6.8s-1.8 3.4-4.8 2.9c-1.3-.2-2-.8-2.9-1.8-.9-1.1-1.4-1.3-2.7-2-1.1-.6-1.8-1.2-1.5-2.5.2-1.1.9-1.9 1.8-1.9.2 0 .9.5 1.3.6.6.1 1-.1 1.6.1 1.1.5 2.2 2.1 2.7 3.1.4.8 1.3 1 2.1 1.6m-1.6-21.2c1-1.5 6.7-12.2 8.7-10.6 2 1.7-1.1 4-1.9 5.1-1.3 1.6-3.1 3.2-4 5.1-.6 1.2-1.3 4.9-2.7 5.4-1.6.6-3-2.3-3.8-3.2-1.2-1.3-3.5-2.9-1.7-4.9 1.5-1.6 3.7 2 5 3 .2 0 .3.1.4.1m23-6.5c4.8-.6 9.5.9 14.4.7 1.2 0 5.1-.7 5.4.9.3 1.5-2.4 2.3-3.4 2.2-.8-.1-1.6-.7-2.4-.8s-1.5.1-2.3 0c-2.3-.1-4.6-.6-6.9-.7-2.1-.1-4.4.3-6.5.1-.6-.1-2.3-.1-2.3-1.1 0-.9 1.3-1.4 2-1.4.7.1 1.3.1 2 .1m-1.2 5.6c4.5-.1 9 1.3 13.5 1.1 1.5 0 4.3-.9 5.8-.2s.6 2.4-.7 2.9c-1.6.6-3.7-.4-5.3-.5-2.1-.1-4.1.1-6.2-.1s-4.1-.8-6.2-1.1c-.7-.1-5-.1-2.8-1.8.6-.4 1.2-.2 1.9-.3m22.2-17.2c-1.6 0-1.8-1-2-2.4-.2-1.2-1-4.3-.2-5.4.8-1 2.6-.9 3.3 0 .6.7.4 1.3.3 2.1-.1 1.3 0 2 .4 3.3.6 1.8.1 2.4-1.8 2.4"></path></svg> 