<?xml version="1.0" encoding="UTF-8"?> <svg xmlns="http://www.w3.org/2000/svg" xmlns:v="https://vecta.io/nano" viewBox="0 0 128 128" fill="#278840"><path d="M32.55 73.35l-4.05.28c-.71-.78-.93-5.18-.32-6.41 1.2.02 2.32.19 3.4.03 2.87-.42 5.75-.62 8.65-.54.14 0 .29.09.43.1.37.02.8.13 1.1 0 .21-.1.28-.55.35-.86.58-2.24 1.86-3.17 4.63-3.69 1.3-.24 2.66-.2 3.98-.33 1.35-.13 2.21.62 2.9 1.59.4.57.63 1.26.92 1.86l5.75-.01c1.96-.07 3.94-.45 5.81.52.3.15.86.12.93.31.22.61.4 1.29.37 1.93-.07 1.42-.26 2.84-.43 4.25-.05.45-.17.81-.81.81-2.56-.01-5.12.06-7.68.05-1.41 0-2.83-.15-4.24-.13l-9.37.27c-1.31.03-2.63-.11-3.94-.13-1.89-.02-3.77 0-5.79 0v.88l.03 4.78c.06.97-.26 1.81-.53 2.68-.04.14-.08.29-.09.43l-.14 4.92.13 9.1c0 .92-.09 1.83-.14 2.75v.72l2.58.22 6.34.15 5.81-.13 5.44.14 6.08.15c.17 0 .34.06.5.1.47.11.73-.12.78-.55l.16-2.15c.06-3.73-.08-7.48.21-11.19.28-3.56.16-7.1.25-10.65.02-.64.13-1.27.21-1.92.97-.26 1.08-.17 1.1.84l.16 6.11c.11 2.3.18 4.6.47 6.88.43 3.36.45 6.73.39 10.1-.01.75-.34 1.5-.52 2.26 1.96.27 4.01.16 6.09-.09 1.55-.19 3.13-.06 4.7-.09l11.04-.24c1.71-.02 3.42.13 5.13.13 1.61 0 3.23-.11 4.84-.13.56 0 1.13.09 1.82.16v-.83-9.94c0-1.32-.15-2.64-.13-3.96.07-3.65.05-7.31.34-10.94.17-2.16-.26-4.22-.34-6.33-.05-1.29-.03-2.59-.03-3.88l.02-4.18.16-8.87c.06-2.05.19-4.11.29-6.16.01-.25 0-.49 0-.87-.7.06-1.35.17-2 .16l-6.4-.13c-1.79 0-3.57.14-5.36.12-.9 0-1.86-.13-2.24-1.19-.09-.25-.14-.52-.14-.78l-.01-3.89-.27-6.21c-.02-1.31.12-2.62.19-3.86-.13-.11-.17-.16-.21-.17-1.78-.11-3.55-.27-5.33-.31-1.52-.03-3.05.13-4.58.12-1.99 0-3.97-.15-5.96-.12-2.18.03-4.37.2-6.55.26-.97.03-1.94-.1-2.91-.12l-4.56-.01h-6.88c-.63 1.22-.5 2.36-.49 3.48.02 1.56.07 3.12.15 4.69.06 1.21.19 2.41.28 3.61.02.25.09.54 0 .74-.49 1.01-.12 2.04-.13 3.06l-.14 15.74c0 .84.16 1.68.12 2.52-.03.5-.32.99-.49 1.49h-.37c-.15-.39-.4-.76-.44-1.16-.1-.98-.11-1.98-.13-2.97l-.29-10.58c-.04-2.15-.04-4.3 0-6.46.02-1.03.24-2.05.28-3.08.04-1.3 0-2.61-.03-3.91-.02-.77-.1-1.53-.11-2.3-.02-1.21-.01-2.42 0-3.63 0-.55-.13-1.18.64-1.38.35-1.18 1.37-.74 2.14-.85 1.34-.19 2.68-.34 4.02-.5.29-.04.59-.1.88-.1l7.4-.01c1.79-.02 3.57-.09 5.36-.14l5.51-.15c2.04-.05 4.09-.18 6.13-.12 1.49.05 2.96.42 4.45.52 1.08.07 2.19.05 3.25-.16.79-.16 1.27.03 1.74.58 1.78 2.13 3.68 4.14 5.77 5.98.82.72 1.5 1.59 2.26 2.37l3.05 3.06c.82.86 1.56 1.79 2.36 2.67.46.5.66 1.23 1.43 1.49.19.07.36.56.34.85-.05 1.04-.25 2.08-.26 3.12l-.15 17.31c0 2.58.06 5.17.16 7.75l.41 7.8c.05 1.93.07 3.89-.17 5.81-.39 3.15-.6 6.3-.55 9.47.03 1.76.18 3.51.29 5.27.05.84-.19 1.55-.85 2.17-.87-.99-1.92-.14-2.88-.29-.33-.05-.68.11-1.02.1-2.21-.05-4.38.26-6.56.57-3.54.5-7.12.63-10.7.46-2.19-.1-4.37-.47-6.57-.54-1.6-.06-3.21.27-4.81.24-1.62-.02-3.23-.3-4.86-.39-.55-.03-1.1.19-1.66.27-.44.07-.88.11-1.32.14-2.22.15-4.44.38-6.66.42-2.44.05-4.87-.05-7.31-.11-1.24-.03-2.48-.07-3.72-.18-1.74-.15-3.48-.37-5.22-.56-.82-.09-1.61-.03-2.39.33-.99.46-1.2.32-1.29-.77-.04-.44.13-.89.12-1.33l-.27-7.43c-.01-.34.08-.68.11-1.03l.32-3.99.41-5.33c.04-.61-.12-1.23-.11-1.84l.13-6.67c0-.05-.03-.09-.08-.26zm-3.44-5.37c.07 1.13.19 2.3.19 3.48 0 .7.17 1.04.92.93 1.04-.15 2.07-.36 3.11-.42 1.32-.08 2.65 0 3.97-.04.96-.02 1.93-.12 2.89-.15l7.53-.14 4.08-.02 5.85.06 4.57.03c.84.02 1.75-.48 2.46.46.25.33 1.29-.19 1.29-.62.02-1.22.02-2.44-.01-3.66 0-.2-.21-.53-.36-.56-.92-.16-1.85-.33-2.78-.33-1.26 0-2.51.21-3.76.26l-5.96.16c-.67.02-1.33.1-1.99.17l-6.68.73c-.53.06-1.05.17-1.56.26-4.53-1.09-9.17-.4-13.76-.59zM96.5 41.9c.02-.09.03-.18.05-.26L83.73 27.88v1l.3 8.46.17 4.01c.01.19.21.48.36.51a6.61 6.61 0 0 0 1.54.17c1.61-.02 3.22-.11 4.83-.13 1.86-.03 3.72 0 5.57 0zM43.68 66.87l9.01-1.15c-.25-.7-.72-1.04-1.3-1.3-1.48-.66-3-.76-4.52-.27-1.35.43-2.87.75-3.19 2.72zm-2.85 13.36l.29 4.41.48 7.9c.06.65.14 1.25-.21 1.81-.1.17-.31.35-.49.38-.13.02-.37-.18-.43-.34-.2-.57-.46-1.16-.5-1.75l-.18-5.27-.27-4.21c0-.55.29-1.1.44-1.66.07-.26.1-.52.13-.79.06-.5.06-.51.72-.5zm14.64 10.08l-.53-6.58a6.22 6.22 0 0 1 .16-1.92c.14-.6.74-.48 1.19-.45.44.03.71.25.69.77l-.15 4.37-.02 5.49c0 .39-.16.79-.3 1.17-.06.16-.29.37-.44.37-.18 0-.42-.18-.5-.35-.13-.26-.18-.57-.19-.86V90.3h.11zm-7.29-9.38h.83c.03.96.51 1.8.52 2.83l.4 7.25.13 1.92c-.01.37-.19.75-.39 1.07-.05.08-.62 0-.69-.13-.23-.48-.46-1-.49-1.52l-.31-6.52v-4.89z"></path></svg> 