<?xml version="1.0" encoding="UTF-8"?> <svg xmlns="http://www.w3.org/2000/svg" xmlns:v="https://vecta.io/nano" viewBox="0 0 128 128"><defs><mask id="A" x="30.87" y="13.35" width="66.26" height="101.29" maskUnits="userSpaceOnUse"><path d="m30.87,13.35h66.26v101.29H30.87V13.35Z" fill="#fff" fill-rule="evenodd"></path></mask></defs><g mask="url(#A)"><path d="m76.33,33.38c.39.14.75.19,1.03.37,1.91,1.2,4.19,1.07,6.35.96,1.31-.07,2.4-.29,3.67-.61.7-.17,2.27-.12,2.75-.41,1.21-.72.52-2.41-.25-3.71-.99-1.67-1.9-2.51-2.31-4.54-.31-1.53-.38-3.28-2.25-3.62-1.24-.23-3.7,1-4.64,1.82-1.44,1.26-2.11,3.52-2.64,5.28-.22.73-.32,1.55-.56,2.26-.28.84-.92,1.42-1.16,2.2m-13.15-4.1c-.93-1.57-.89-2.88.26-3.9,1.06-.94.46-1.6-.75-1.91-1.17-.3-2.43-.37-3.6-.68-2.71-.71-6.87-.87-9.56-.07-4.51,1.34-12.66-1.91-15.76,3.29-1.83,3.08.4,3.56,3.17,3.59,1.47.02,3-.33,4.46-.23,1.03.07,2.12.55,3.05.76,5.92,1.34,13.07,1.32,18.73-.84m20.24,74.35v-2.81c.03-1.73-11.95.08-13.78.08-5.15,0-10.27-.02-15.42-.02-2.98,0-5.89-.19-8.85-.4-2.42-.17-4.72.32-7.13.43-2.44.11-4.31-.89-3.56,1.99.5,1.91-.02,4.13.59,5.94.71,2.07,2.48,2.58,4.4,2.43,2.49-.19,5.02-.21,7.49-.54,1.3-.17,2.55-.64,3.85-.26.98.28,1.49.89,2.55,1,2.39.25,5.11-.89,7.59-.9,5.02,0,9.95.58,14.95.35,1.7-.08,3.98-1.18,5.42-1.98,2.16-1.19,1.78-3.06,1.9-5.31m.42-60.7c-1.29.09-2.27-.34-2.85-1.51-.4-.8.04-2.16-.48-2.83-.51-.66-1.21-.42-1.96-.52-2.11-.27-3.72-1.43-5.92-1.51-1.8-.06-4.25-.17-1.93-2.58,1.03-1.07,2.64-.89,3.68-2.12,1-1.18,1.26-2.91,1.59-4.35.34-1.45.62-2.85,1.47-4.1.85-1.26,2.29-1.77,3.04-3.04,1.14-1.92.42-6.48,3.46-7.03.4-.07,3.21.65,3.44,1,.63.94-.6,1.83-.36,2.87.28,1.22,1.86,1.7,2.49,2.77.87,1.5.42,3.32,1.07,4.9.51,1.23,1.58,1.84,2.18,2.93.83,1.51.68,1.73,2.25,2.66,1.65.97,2.74,1.47,1.74,3.34-.64,1.2-2.71,2.68-3.82,2.96-1.18.29-2.1-.1-3.23.74-1.17.87-1.51,2.33-2.27,3.5-1.06,1.62-1.51,1.3-1.03,3.16.55,2.13,0,3.78,0,5.9,0,1.53.7,2.91.69,4.44-.03,2.06-.47,3.9-.22,6,.39,3.33-.19,6.8-.21,10.17,0,1.98-.68,3.91-.79,5.89-.09,1.81-.03,3.63-.06,5.44-.05,4.39.17,8.76.16,13.15-.01,3.95.21,8.27-.49,12.18-.73,4.06-2.45,4.6-5.97,6.15-2.35,1.03-4,.6-6.46.58-.66,0-1.36.09-2.03.09-.99,0-2.03.25-2.91.26-1.36.02-2.88-.62-4.38-.66-1.82-.06-4.15.33-5.85-.52-1.25.49-2.53,1.08-3.89,1.2-1.5.13-2.83-.46-4.31-.56-1.41-.09-2.55.41-3.9.59-1.38.18-2.47-.47-3.81-.44-2.3.05-5.82,1.72-7.65-.73-.79-1.05-.51-2.58-.92-3.83-.44-1.35-.91-2.43-1.14-3.86-.41-2.61-.49-4.51-.25-7.14.3-3.19.63-6.43.66-9.63.02-2.85-.46-5.55-.37-8.37.11-3.2-.87-6.59.4-9.69-1.21-2-.59-5.02-.67-7.26l-.45-8.6c-.37-5.68.29-11.34-.09-17.02-.33-4.88-1.65-9.77,1.14-14.34,2.42-3.96,8.69-4.05,12.76-4.25,1.27-.06,2.53.2,3.79.06s2.27-.89,3.48-1.1c1.05-.18,1.85.19,2.85.45,1.41.37,2.8.42,4.24.58,1.38.15,2.71.69,4.05.86,1.12.14,2.22-.24,3.34-.44,1.3-.23,2.6-.44,3.9-.62.9-.12,3.84-.85,4.65-.35,1.78,1.11-.14,3.79-1.53,4.28-1.84.64-5.18-.56-6.92.42-1.19.67-.18.12-.31,1.45-.1,1.08-.53,1.49-1.01,2.42-1.43,2.76.45,1.04,1.79,2.63,1.62,1.91-1.37,3.64-2.92,3.65-.89,0-1.28-.4-2.3-.25-1.44.22-2.81.32-4.26.47-2.21.23-3.92.76-6.22.56-2.91-.25-5.8-.33-8.7-.75-2.57-.38-4.55-.61-7.1-.31-2.48.29-3.02.1-2.65,2.72.79,5.62.05,11.59.19,17.28.07,2.79.41,5.53.51,8.31.04,1.28-.09,2.55-.1,3.83,0,1.39.4,2.54.5,3.9.19,2.53-.32,5.22-.3,7.77.02,3.05-.17,6.17.02,9.2.14,2.26-.35,4.4-.06,6.66.23,1.79.6,1.51,1.4,2.8.44.71.21,2.01.84,2.6,1.13,1.04,5.55.17,7.03.14,3.05-.06,6.09.05,9.14.19,6.4.3,12.88-.26,19.3-.08,3.2.09,6.26-1.08,9.48-1.25.86-.04,2.03.26,2.43-.71.15-.36-.33-1.21-.37-1.58-.11-1.04.11-1.97.2-3,.26-2.97-.43-5.88-.26-8.86.19-3.32.89-6.57.96-9.91.14-6.61.38-13.31.02-19.92-.19-3.48.18-6.99-.6-10.49" fill-rule="evenodd" fill="#009247"></path></g><path d="m50.18,61.48c-.34,0-.49.14-.57.34-.59,1.42,6.84,4.66,7.94,5.25,1.16.62,2.78,2.64,4.25,2.36,1.34-.26,2.51-3.07,3.22-4.09.66-.94,2.08-1.55,1.21-2.43-.89-.89-4.21-.61-5.32-.63-3.51-.06-7.44.68-10.73-.8m-2.73,3.83c-.26.39-.2.67-.22.95-.15,2.3.3,4.58.6,6.85.17,1.31-.16,3.75.81,4.67.98.93,4.52.22,5.73.05,1.98-.28,3.58-.07,5.57.19,2.17.28,4.37.44,6.56.4,1.13-.02,4.25.21,5.1-.83.91-1.11.5-3.91.58-5.25l.21-6.5c0-1.36.44-3.35-1.22-2.73-1.6.6-2.75,2.77-3.91,3.93-.42.42-1.07.71-1.44,1.18-.43.55-.44,1.21-.78,1.7-.32.45-.76.52-1.1,1.05-.44.69-.36,1.39-.91,2.06-1.78,2.13-5.79-1.23-7.4-2.65-.62-.55-1.19-1.43-1.96-1.74-.67-.27-1.39-.02-2.07-.37-1.57-.82-2.3-2.36-4.14-2.93m27.3-2.53l-.17,7.87c0,2.55.36,4.59.8,7,.82,4.48-6.42,4.61-9.35,4.57-4.47-.05-8.94-1.29-13.32-.64-1.87.28-5.71.47-7.4-.59-2.14-1.34-.58-2.12-.14-3.86,1.12-4.43-1.12-9.62-.99-14.11.02-.73.05-1.67.5-2.3.76-1.05,1.28-.5,2.27-.97,1.83-.86,2.75-1.78,4.98-1.56,2.46.25,4.77.38,7.27.35,2.26-.02,5.21-.44,7.39.09,2.16.53,3.04.74,5.3.3,1.74-.34,2.89-.41,2.86,1.76v2.09m-.37-15.42c2.38,2.64-3.94,7.73-5.83,9.01-2.18,1.47-2.64-.76-1.42-2.3,1.44-1.82,3.54-2.99,5.06-4.76.64-.74,1.32-1.46,2.18-1.94m-28.74,4.28c0-1.02.63-3.42,2.12-2.6.31.17.37,1.47.6,1.8.62.89.9.52,1.75.86.84.33,1.06-.23,1.42.94.25.82-.42,1.63-.98,2.08-1.42,1.16-3.7.93-4.37-.86-.28-.74-.65-1.47-.54-2.22m12.15,2.35c.13-2.29-.18-5,.57-7.2.38-1.12,1.79-3.95,2.9-2.38.53.75-.82,5.37-.99,6.43-.12.74-.54,4.72-1.8,4.47-.65-.13-.77-.72-.67-1.32m-2.11,54.02c-1.84,0-2.42-2.09-1.03-3.38.71-.66,1.51-.4,2.38-.39,1.27.01,2.48-.5,3.69-.51,2.04-.01,3.68,1.67,2.39,3.54-1.61,2.33-3.78-.36-6.08.54-.46.18-.94.23-1.36.2m-4.22-81.38c.04-1.61,2.47-4.91,3.63-2.39.56,1.22-1.32,5.09-2.98,4.33-.68-.32-.6-1.1-.65-1.94m5.87.23c0-1.07,1.69-3.56,2.84-2.16.88,1.08-.65,4.02-2.11,3.65-1.02-.25-.63-.98-.73-1.5" fill-rule="evenodd" fill="#009247"></path></svg> 