<?xml version="1.0" encoding="UTF-8"?>
<svg width="112px" height="104px" viewBox="0 0 112 104" version="1.1" xmlns="http://www.w3.org/2000/svg" xmlns:xlink="http://www.w3.org/1999/xlink">
    <!-- Generator: sketchtool 52.6 (67491) - http://www.bohemiancoding.com/sketch -->
    <title>3EB8F7E5-4D4F-4755-9904-71ABB23CACA5</title>
    <desc>Created with sketchtool.</desc>
    <defs>
        <path d="M69.9999987,82.6000013 C66.9072041,82.6000013 64.3999987,80.0927958 64.3999987,77.0000011 L64.3999987,54.6000002 C64.3999987,51.5072055 66.9072041,49 69.9999987,49 C73.0927934,49 75.5999988,51.5072055 75.5999988,54.6000002 L75.5999988,77.0000011 C75.5999988,80.0927958 73.0927934,82.6000013 69.9999987,82.6000013 Z M69.9999987,91 C73.0927934,91 75.5999988,93.5072054 75.5999988,96.6000001 C75.5999988,99.6927947 73.0927934,102.2 69.9999987,102.2 C66.9072041,102.2 64.3999987,99.6927947 64.3999987,96.6000001 C64.3999987,93.5072054 66.9072041,91 69.9999987,91 Z M74.6349647,34.7259119 C74.1950409,34.0340691 73.6005941,33.4497864 72.8967161,33.0173846 C70.3366942,31.4447287 66.964319,32.2096624 65.3643053,34.7259119 L26.0308721,105.179719 C25.487902,106.033617 25.2000002,107.020308 25.2000002,108.027265 C25.2000002,110.994546 27.647302,113.400003 30.6662018,113.400003 L109.333068,113.400003 C110.357542,113.400003 111.361397,113.117024 112.230149,112.583338 C114.790171,111.010682 115.568412,107.695969 113.968398,105.179719 L74.6349647,34.7259119 Z M83.9714718,28.6447081 L123.493243,99.7211955 C128.316268,107.336661 125.970368,117.368686 118.253528,122.128352 C115.634792,123.743561 112.608807,124.600001 109.520669,124.600001 L30.4771256,124.600001 C21.3770604,124.600001 14,117.319852 14,108.339333 C14,105.291763 14.8678411,102.30553 16.504551,99.7211955 L56.0263227,28.6447081 C60.8493476,21.0292429 71.0149165,18.7141601 78.7317563,23.4738258 C80.8535015,24.7824959 82.645381,26.5508359 83.9714718,28.6447081 Z" id="path-1"></path>
    </defs>
    <g id="WPSAL-Screens" stroke="none" stroke-width="1" fill="none" fill-rule="evenodd">
        <g id="Custom-icons" transform="translate(-165.000000, -908.000000)">
            <g id="Custom-Icons" transform="translate(151.000000, 228.000000)">
                <g id="Low" transform="translate(0.000000, 659.250000)">
                    <g id="Atoms-/-icons-/-custom-warning">
                        <mask id="mask-2" fill="white">
                            <use xlink:href="#path-1"></use>
                        </mask>
                        <use id="custom-warning" fill="#1BC31A" fill-rule="nonzero" xlink:href="#path-1"></use>
                    </g>
                </g>
            </g>
        </g>
    </g>
</svg>