<svg width="128" height="128" viewBox="0 0 128 128" fill="none" xmlns="http://www.w3.org/2000/svg">
<path d="M0 0H74L128 54V128L0 0Z" fill="#020E26"/>
<path d="M53.4673 13.4687L59.6384 7.29761L62.3141 9.97336C62.7842 10.4434 63.1157 10.9014 63.3085 11.3474C63.5034 11.7954 63.5666 12.2162 63.4983 12.6099C63.432 13.0057 63.2422 13.3602 62.9288 13.6736C62.7018 13.9006 62.4447 14.0573 62.1574 14.1437C61.8722 14.2321 61.5769 14.2502 61.2716 14.1979C60.9682 14.1437 60.6729 14.0211 60.3857 13.8303L60.3254 13.8906C60.5805 14.1658 60.7543 14.4741 60.8467 14.8156C60.9411 15.1551 60.9441 15.4976 60.8557 15.8432C60.7693 16.1867 60.5805 16.5041 60.2892 16.7953C59.9518 17.1328 59.563 17.3448 59.1231 17.4311C58.6852 17.5195 58.2292 17.4773 57.7551 17.3046C57.281 17.1318 56.82 16.8215 56.372 16.3735L53.4673 13.4687ZM56.4805 13.8062L57.2639 14.5896C57.5452 14.8709 57.8083 15.0296 58.0534 15.0657C58.3005 15.0999 58.5275 15.0135 58.7344 14.8066C58.879 14.662 58.9684 14.5063 59.0026 14.3395C59.0367 14.1728 59.0187 14.0021 58.9483 13.8273C58.88 13.6545 58.7605 13.4828 58.5898 13.312L57.7822 12.5045L56.4805 13.8062ZM58.8188 11.4679L59.5058 12.1549C59.6524 12.3016 59.8051 12.4081 59.9638 12.4744C60.1225 12.5406 60.2762 12.5617 60.4248 12.5376C60.5775 12.5135 60.7171 12.4382 60.8437 12.3116C61.0345 12.1208 61.1119 11.9069 61.0757 11.6698C61.0415 11.4308 60.92 11.2068 60.7111 10.9979L60 10.2867L58.8188 11.4679Z" fill="white"/>
<path d="M59.1352 19.1366L65.3063 12.9655L66.9816 14.6409L62.1605 19.4621L64.6554 21.957L63.3055 23.3069L59.1352 19.1366Z" fill="white"/>
<path d="M65.5858 25.5872L63.7778 23.7793L71.9859 19.6451L74.2759 21.9352L70.1418 30.1432L68.3338 28.3353L71.4555 22.5137L71.4073 22.4655L65.5858 25.5872ZM67.683 22.815L71.0819 26.214L69.8284 27.4675L66.4295 24.0685L67.683 22.815Z" fill="white"/>
<path d="M80.0644 32.3519L78.3649 30.6525C78.4935 30.4998 78.5889 30.3401 78.6512 30.1734C78.7154 30.0086 78.7436 29.8399 78.7355 29.6671C78.7315 29.4944 78.6883 29.3226 78.606 29.1519C78.5256 28.9791 78.4051 28.8124 78.2444 28.6517C77.9631 28.3704 77.6568 28.2007 77.3253 28.1424C76.9959 28.0862 76.6534 28.1354 76.2978 28.2901C75.9443 28.4468 75.5887 28.7039 75.2311 29.0615C74.8535 29.4391 74.5873 29.8057 74.4326 30.1613C74.282 30.5169 74.2388 30.8554 74.3031 31.1768C74.3693 31.4962 74.5381 31.7915 74.8093 32.0627C74.964 32.2173 75.1217 32.3369 75.2824 32.4212C75.4451 32.5036 75.6088 32.5528 75.7735 32.5689C75.9382 32.585 76.101 32.5689 76.2617 32.5207C76.4264 32.4725 76.5851 32.3921 76.7378 32.2796L78.4252 33.9911C78.1439 34.2322 77.8044 34.425 77.4067 34.5697C77.011 34.7123 76.5821 34.7816 76.12 34.7776C75.662 34.7736 75.193 34.6701 74.7129 34.4672C74.2328 34.2643 73.7667 33.9369 73.3147 33.4849C72.7482 32.9184 72.3615 32.2887 72.1546 31.5956C71.9497 30.9046 71.9527 30.1925 72.1637 29.4592C72.3766 28.728 72.8246 28.0209 73.5076 27.3379C74.1946 26.6509 74.9057 26.2049 75.6409 26C76.3782 25.7931 77.0923 25.7941 77.7833 26.003C78.4764 26.21 79.1001 26.5906 79.6546 27.1451C80.0443 27.5348 80.3496 27.9466 80.5706 28.3805C80.7916 28.8144 80.9231 29.2573 80.9653 29.7093C81.0095 30.1593 80.9583 30.6083 80.8117 31.0562C80.665 31.5042 80.4159 31.9361 80.0644 32.3519Z" fill="white"/>
<path d="M76.9675 36.969L83.1386 30.7979L84.814 32.4732L82.319 34.9682L82.4034 35.0526L86.7545 34.4137L88.7071 36.3663L83.8739 37.0292L82.5842 42.5857L80.5834 40.5849L81.5115 36.8846L80.2339 37.0533L78.6429 38.6443L76.9675 36.969Z" fill="white"/>
<path d="M84.7236 44.7251L90.8947 38.5539L95.2338 42.893L93.8838 44.2429L91.2201 41.5792L90.1595 42.6399L92.558 45.0384L91.2081 46.3884L88.8095 43.9898L86.399 46.4004L84.7236 44.7251Z" fill="white"/>
<path d="M89.6789 49.6803L95.85 43.5092L98.5137 46.1729C98.9717 46.6309 99.2891 47.1151 99.4659 47.6253C99.6426 48.1355 99.6698 48.6428 99.5472 49.147C99.4247 49.6512 99.1445 50.1223 98.7065 50.5602C98.2646 51.0021 97.7935 51.2763 97.2933 51.3828C96.7951 51.4913 96.2919 51.4461 95.7837 51.2472C95.2775 51.0503 94.7893 50.7169 94.3193 50.2468L92.7283 48.6558L94.03 47.3541L95.2835 48.6076C95.4804 48.8045 95.6722 48.9481 95.859 49.0385C96.0499 49.1289 96.2367 49.157 96.4195 49.1229C96.6043 49.0907 96.7841 48.9873 96.9589 48.8125C97.1356 48.6357 97.2411 48.4539 97.2752 48.2671C97.3134 48.0803 97.2883 47.8905 97.1999 47.6976C97.1155 47.5048 96.9749 47.3099 96.7781 47.113L96.1875 46.5224L91.3542 51.3557L89.6789 49.6803ZM96.1272 50.4638L94.8375 54.839L93.0175 53.019L94.3434 48.6799L96.1272 50.4638Z" fill="white"/>
<path d="M103.193 50.8525L97.0221 57.0236L95.3468 55.3482L101.518 49.1771L103.193 50.8525Z" fill="white"/>
<path d="M100.191 60.192L97.8161 57.8176L103.987 51.6465L106.338 53.9968C106.972 54.6316 107.397 55.3035 107.612 56.0126C107.831 56.7218 107.835 57.4329 107.624 58.146C107.417 58.8592 106.992 59.5371 106.35 60.18C105.707 60.8228 105.029 61.2497 104.316 61.4606C103.605 61.6695 102.895 61.6675 102.188 61.4546C101.483 61.2396 100.817 60.8188 100.191 60.192ZM100.914 58.0707L101.553 58.7095C101.858 59.0148 102.167 59.2258 102.481 59.3423C102.796 59.4608 103.13 59.4558 103.484 59.3272C103.84 59.2006 104.232 58.9224 104.662 58.4925C105.092 58.0626 105.369 57.6689 105.494 57.3113C105.62 56.9558 105.621 56.6173 105.497 56.2959C105.374 55.9765 105.152 55.6561 104.831 55.3347L104.24 54.7441L100.914 58.0707Z" fill="white"/>
<path d="M105.253 65.2542L103.445 63.4463L111.653 59.3121L113.943 61.6022L109.809 69.8103L108.001 68.0023L111.123 62.1807L111.074 62.1325L105.253 65.2542ZM107.35 62.4821L110.749 65.881L109.495 67.1345L106.096 63.7356L107.35 62.4821Z" fill="white"/>
<path d="M115.691 63.3506L117.56 65.2188L116.258 68.9312L116.306 68.9794L120.018 67.6776L121.887 69.5459L115.39 71.5105L113.45 73.451L111.786 71.7877L113.727 69.8472L115.691 63.3506Z" fill="white"/>
<path d="M52.5512 21.038C52.7361 20.821 52.8174 20.589 52.7953 20.3419C52.7752 20.0968 52.6296 19.8387 52.3584 19.5675C52.1856 19.3948 52.0229 19.2742 51.8702 19.2059C51.7216 19.1376 51.586 19.1125 51.4635 19.1306C51.3409 19.1487 51.2334 19.2019 51.141 19.2903C51.0627 19.3606 51.0085 19.441 50.9783 19.5314C50.9522 19.6218 50.9492 19.7252 50.9693 19.8417C50.9914 19.9562 51.0366 20.0858 51.1049 20.2304C51.1732 20.3751 51.2656 20.5358 51.3821 20.7125L51.7799 21.3272C52.049 21.7411 52.2459 22.1288 52.3704 22.4904C52.495 22.8519 52.5543 23.1904 52.5482 23.5058C52.5442 23.8192 52.4789 24.1115 52.3524 24.3827C52.2278 24.6559 52.049 24.911 51.816 25.148C51.4082 25.5518 50.9633 25.7939 50.4811 25.8742C49.999 25.9546 49.4978 25.8813 48.9775 25.6543C48.4593 25.4293 47.939 25.0556 47.4167 24.5333C46.8803 23.997 46.4916 23.4496 46.2506 22.8911C46.0115 22.3347 45.9462 21.7812 46.0547 21.2308C46.1672 20.6804 46.4806 20.1461 46.9948 19.6278L48.5858 21.2188C48.407 21.4176 48.2955 21.6236 48.2513 21.8365C48.2072 22.0494 48.2282 22.2654 48.3146 22.4843C48.403 22.7053 48.5537 22.9223 48.7666 23.1352C48.9454 23.314 49.1172 23.4415 49.2819 23.5179C49.4466 23.5942 49.5993 23.6243 49.7399 23.6083C49.8805 23.5922 50.002 23.5349 50.1045 23.4365C50.1969 23.3401 50.2481 23.2266 50.2582 23.096C50.2722 22.9654 50.2401 22.8047 50.1617 22.6139C50.0854 22.4211 49.9578 22.185 49.7791 21.9058L49.2969 21.1585C48.8691 20.4936 48.636 19.8648 48.5979 19.2722C48.5637 18.6796 48.7887 18.1433 49.2728 17.6631C49.6625 17.2694 50.1095 17.0314 50.6137 16.949C51.122 16.8667 51.6463 16.9309 52.1866 17.1419C52.729 17.3548 53.2443 17.7053 53.7324 18.1935C54.2306 18.6917 54.5781 19.2059 54.775 19.7363C54.9719 20.2666 55.0171 20.7819 54.9106 21.2821C54.8082 21.7822 54.556 22.2352 54.1543 22.641L52.5512 21.038Z" fill="#FF8977"/>
<path d="M51.996 28.9681L50.1881 27.1601L58.3962 23.026L60.6862 25.316L56.5521 33.5241L54.7441 31.7161L57.8658 25.8946L57.8176 25.8464L51.996 28.9681ZM54.0933 26.1959L57.4922 29.5948L56.2387 30.8483L52.8398 27.4494L54.0933 26.1959Z" fill="#FF8977"/>
<path d="M57.1464 34.1184L63.3175 27.9473L64.9929 29.6227L60.1717 34.4439L62.6667 36.9388L61.3168 38.2888L57.1464 34.1184Z" fill="#FF8977"/>
<path d="M61.994 38.966L68.1651 32.7949L72.6126 37.2424L71.2627 38.5924L68.4905 35.8202L67.4299 36.8808L69.973 39.424L68.6231 40.7739L66.0799 38.2308L65.0193 39.2914L67.7794 42.0516L66.4295 43.4015L61.994 38.966Z" fill="#FF8977"/>
<path d="M80.4734 45.1032L74.3023 51.2743L72.9042 49.8762L73.9166 44.4041L73.8805 44.368L70.6382 47.6102L68.9628 45.9349L75.134 39.7638L76.5562 41.186L75.5197 46.6098L75.5679 46.658L78.7981 43.4278L80.4734 45.1032Z" fill="#FF8977"/>
<path d="M84.1586 54.9595C83.4716 55.6465 82.7585 56.0925 82.0192 56.2974C81.282 56.5003 80.5648 56.4963 79.8678 56.2853C79.1727 56.0724 78.546 55.6867 77.9875 55.1283C77.425 54.5658 77.0383 53.936 76.8274 53.239C76.6205 52.5419 76.6185 51.8247 76.8214 51.0875C77.0283 50.3503 77.4732 49.6401 78.1562 48.9571C78.8433 48.2701 79.5544 47.8242 80.2896 47.6193C81.0289 47.4144 81.745 47.4174 82.4381 47.6283C83.1351 47.8392 83.7649 48.2259 84.3274 48.7884C84.8858 49.3469 85.2705 49.9746 85.4814 50.6717C85.6944 51.3667 85.6984 52.0839 85.4935 52.8231C85.2906 53.5604 84.8456 54.2725 84.1586 54.9595ZM82.435 53.2359C82.8047 52.8663 83.0668 52.5057 83.2215 52.1542C83.3802 51.8026 83.4294 51.4662 83.3691 51.1448C83.3129 50.8233 83.1462 50.524 82.8689 50.2468C82.5917 49.9696 82.2914 49.8019 81.968 49.7436C81.6486 49.6853 81.3121 49.7346 80.9585 49.8912C80.609 50.0479 80.2494 50.3111 79.8798 50.6807C79.5102 51.0503 79.246 51.4109 79.0873 51.7625C78.9327 52.114 78.8834 52.4505 78.9397 52.7719C78.9999 53.0933 79.1687 53.3926 79.4459 53.6698C79.7231 53.9471 80.0214 54.1148 80.3408 54.1731C80.6643 54.2313 81.0007 54.1821 81.3503 54.0254C81.7038 53.8687 82.0654 53.6056 82.435 53.2359Z" fill="#FF8977"/>
<path d="M83.0256 59.9977L87.3768 52.0065L89.245 53.8748L86.292 58.5151L86.3402 58.5634L91.1373 55.7671L92.6077 57.2375L89.7994 62.0467L89.8476 62.0949L94.5 59.1298L96.3683 60.998L88.3771 65.3492L86.7741 63.7461L89.1726 59.2504L89.1244 59.2022L84.6287 61.6007L83.0256 59.9977Z" fill="#FF8977"/>
<path d="M101.494 72.2947C100.807 72.9817 100.094 73.4277 99.3544 73.6326C98.6171 73.8355 97.9 73.8314 97.2029 73.6205C96.5079 73.4076 95.8811 73.0219 95.3227 72.4634C94.7602 71.901 94.3735 71.2712 94.1626 70.5741C93.9557 69.8771 93.9536 69.1599 94.1565 68.4227C94.3634 67.6854 94.8084 66.9753 95.4914 66.2923C96.1784 65.6053 96.8895 65.1593 97.6248 64.9544C98.364 64.7495 99.0802 64.7525 99.7732 64.9635C100.47 65.1744 101.1 65.5611 101.663 66.1236C102.221 66.682 102.606 67.3098 102.817 68.0068C103.03 68.7019 103.034 69.419 102.829 70.1583C102.626 70.8955 102.181 71.6077 101.494 72.2947ZM99.7702 70.5711C100.14 70.2015 100.402 69.8409 100.557 69.4894C100.715 69.1378 100.765 68.8013 100.704 68.4799C100.648 68.1585 100.481 67.8592 100.204 67.582C99.9269 67.3048 99.6266 67.137 99.3032 67.0788C98.9837 67.0205 98.6473 67.0697 98.2937 67.2264C97.9442 67.3831 97.5846 67.6463 97.215 68.0159C96.8454 68.3855 96.5812 68.7461 96.4225 69.0976C96.2678 69.4492 96.2186 69.7857 96.2748 70.1071C96.3351 70.4285 96.5039 70.7278 96.7811 71.005C97.0583 71.2822 97.3566 71.45 97.676 71.5082C97.9994 71.5665 98.3359 71.5173 98.6854 71.3606C99.039 71.2039 99.4006 70.9407 99.7702 70.5711Z" fill="#FF8977"/>
<path d="M110.694 75.3237L104.523 81.4949L103.125 80.0967L104.137 74.6247L104.101 74.5885L100.859 77.8308L99.1834 76.1554L105.354 69.9843L106.777 71.4065L105.74 76.8304L105.788 76.8786L109.019 73.6484L110.694 75.3237Z" fill="#FF8977"/>
<path d="M113.439 78.0688L109.04 82.1548L107.666 80.7807L111.752 76.3814L113.439 78.0688ZM106.328 83.4926C106.095 83.2596 105.976 82.9784 105.972 82.6489C105.972 82.3195 106.091 82.0382 106.328 81.8052C106.555 81.5742 106.832 81.4597 107.159 81.4617C107.489 81.4657 107.77 81.5842 108.003 81.8173C108.224 82.0382 108.338 82.3145 108.344 82.6459C108.352 82.9794 108.242 83.2616 108.015 83.4926C107.856 83.6473 107.673 83.7488 107.464 83.797C107.259 83.8452 107.055 83.8442 106.852 83.794C106.651 83.7417 106.476 83.6413 106.328 83.4926Z" fill="#FF8977"/>
</svg>
