<svg width="113" height="101" viewBox="0 0 113 101" fill="none" xmlns="http://www.w3.org/2000/svg">
<path d="M99.083 31.3069C100.352 31.3069 101.586 31.5741 102.815 31.9475C104.036 32.3209 105.098 33.0245 106.046 34.0042C107.505 35.5197 108.963 37.0398 110.422 38.5598C112.158 40.3698 112.687 42.672 112.193 45.3079C111.77 47.5788 111.233 49.8191 110.744 52.0725C110.634 52.5777 110.518 53.0834 110.373 53.5754C109.915 55.1216 109.122 56.3957 108.14 57.5159C106.998 58.8162 105.724 59.9059 104.411 60.925C103.741 61.4434 103.045 61.9135 102.357 62.4055C101.445 63.06 100.516 63.6885 99.6211 64.387C98.5723 65.2085 97.4302 65.5598 96.2051 65.3928C95.3194 65.2698 94.4467 65.0016 93.5654 64.8127C93.019 64.6941 92.4941 64.3646 91.7891 64.4963L91.8027 64.5012C91.8027 65.5951 91.7542 66.6011 91.8203 67.594C91.9613 69.707 92.847 71.2755 94.332 72.387C95.5527 73.3007 96.8704 73.9687 98.1924 74.6145C100.255 75.6205 102.318 76.6265 104.394 77.6018C104.878 77.8302 105.403 77.9486 106.086 78.177C106.531 78.7393 107.122 79.4429 107.668 80.1985C108.069 80.7561 108.051 81.1515 107.729 81.718C107.514 82.1002 107.205 82.2272 106.861 82.1086C106.579 82.012 106.315 81.8322 106.051 81.6653C105.491 81.3183 104.949 80.923 104.376 80.6067C101.56 79.0691 98.7345 77.5623 95.9229 76.0247C94.6537 75.3306 93.3975 74.5879 92.1328 73.885C91.8378 73.7225 91.5604 73.4678 91.1465 73.5334C90.7543 74.2935 90.5556 75.1856 90.3926 76.0774C90.2913 76.6308 90.4497 77.1273 90.8594 77.4348C91.1679 77.6633 91.4947 77.8831 91.834 78.0237C93.7508 78.8144 95.6769 79.5699 97.5938 80.3606C99.1624 81.0107 100.736 81.6607 102.282 82.3811C103.595 82.9918 104.376 84.1785 104.543 85.9006C104.556 86.0499 104.525 86.2085 104.508 86.4456C104.085 86.3138 103.702 86.1862 103.318 86.0764C101.243 85.4789 99.2897 84.4462 97.3154 83.4973C95.4029 82.5792 93.5033 81.621 91.5908 80.6897C91.2209 80.5097 90.8333 80.3911 90.4678 80.2024C89.7187 79.807 88.9737 79.8905 88.2334 80.1936C87.828 80.3605 87.4264 80.5667 87.043 80.804C85.4125 81.8012 83.7911 82.8209 82.165 83.8225C81.5128 84.2223 80.8514 84.6 80.1992 84.9954C78.8332 85.8256 77.3966 85.9664 75.9336 85.5227C75.0656 85.2592 74.2151 84.9122 73.3691 84.552C72.1485 84.0337 70.9364 83.4751 69.7246 82.926C65.3397 80.9315 61.0736 78.5943 56.7812 76.3274C56.1423 75.9892 55.4945 75.6774 54.8291 75.4358C53.5775 74.9745 52.577 74.0912 51.7529 72.8918C50.7924 71.4993 50.5452 69.9532 51.1885 68.2883C51.5631 67.3174 51.7436 66.3153 51.7568 65.261C51.7745 63.9607 52.0351 62.7303 52.4053 61.509C53.2557 58.7196 54.0845 55.9172 55.1553 53.2375C56.7682 49.187 58.7774 45.4739 61.5537 42.4338C61.7519 42.2186 61.9463 41.9991 62.1533 41.8059C63.0434 40.9713 63.938 40.1366 64.8369 39.3108C65.1542 39.0208 65.4761 38.7306 65.8066 38.467C66.494 37.9181 67.2388 37.8345 67.9922 38.2209C68.6312 38.5504 69.2703 38.9066 69.874 39.3196C70.9449 40.0488 71.9897 40.8306 73.043 41.595C74.3516 42.5438 75.6689 43.4753 76.9688 44.4504C78.5772 45.6585 80.164 46.8976 81.7637 48.1233C81.9003 48.2287 82.0503 48.3172 82.2354 48.4358C82.6143 47.8559 82.8695 47.2051 83.0898 46.5549C83.9095 44.1784 85.113 42.1227 86.6553 40.3743C87.9156 38.9509 89.2332 37.6018 90.5244 36.218C90.8461 35.871 91.1593 35.5104 91.4678 35.1458C93.5963 32.6725 96.1084 31.3113 99.083 31.3069ZM76.4707 46.3352C76.4002 46.8009 76.3434 47.1439 76.3037 47.4866C75.8278 51.5941 75.0922 55.6187 73.8936 59.5198C73.021 62.3621 71.8702 65.0201 70.4512 67.511C68.6268 70.7178 66.3788 73.4239 63.7744 75.6995C63.541 75.9058 63.321 76.1344 62.9775 76.468C64.1453 77.1489 65.172 77.7119 66.1768 78.3313C68.6666 79.8688 71.2934 80.9972 73.9463 82.0295C75.5548 82.6533 77.1369 82.702 78.666 81.6477C79.0097 81.4105 79.3843 81.2301 79.7588 81.0676C81.8212 80.167 83.5534 78.6076 85.25 76.9954C86.0696 76.2134 86.6912 75.2288 87.123 74.0735C87.4227 73.2697 87.7532 72.4788 88.0176 71.6575C88.6742 69.6235 89.1275 67.5366 89.123 65.3313C89.123 65.0196 89.0836 64.7079 89.0615 64.3831C88.7179 64.2162 88.4139 64.0666 88.1055 63.9172C87.3299 63.5438 86.6024 63.0645 85.959 62.4143C83.8922 60.3232 82.5261 57.7574 82.2881 54.4319C82.2132 53.3953 82.1296 52.3586 82.0459 51.2649C81.1954 50.4038 80.2653 49.6304 79.3486 48.844C78.41 48.0445 77.5283 47.1523 76.4707 46.3352ZM72.668 43.5022C72.3861 43.8623 72.3591 44.2661 72.2754 44.6438C71.3896 48.5537 70.5486 52.4775 69.5967 56.3655C68.9401 59.0628 68.0717 61.6681 66.8555 64.093C64.8547 68.0819 62.1616 71.1264 58.6582 73.0989C58.4468 73.2174 58.2392 73.3446 58.041 73.4807C57.9927 73.516 57.9757 73.6089 57.9141 73.7317C57.9933 73.9424 58.0814 74.1885 58.165 74.4124C58.707 74.5178 59.1964 74.6189 59.6855 74.7112C60.2583 74.8209 60.796 74.7105 61.3203 74.3811C62.682 73.5333 63.9952 72.6019 65.1982 71.4553C66.4586 70.256 67.5693 68.8898 68.4727 67.2864C70.4557 63.7719 71.9146 59.9628 72.752 55.8245C73.4129 52.5648 73.6327 49.2564 73.4873 45.9045C73.4476 44.9822 73.1306 44.2353 72.668 43.5061V43.5022ZM66.582 41.8235C65.6963 42.008 64.9561 42.4477 64.2422 42.9573C62.6426 44.1038 61.3602 45.6719 60.3467 47.5344C58.271 51.3389 56.4989 55.3331 55.3311 59.6868C54.6172 62.3312 54.1279 65.0371 53.9824 67.8176C53.956 68.2919 53.9652 68.7886 54.0488 69.2542C54.3749 70.9982 55.5515 71.5474 56.6885 70.928C56.7501 70.8972 56.8124 70.8664 56.874 70.8313C58.7291 69.8297 60.4878 68.6129 62.1006 67.1106C62.9994 66.2717 63.7571 65.2701 64.4092 64.137C65.3655 62.4676 66.0225 60.6261 66.5293 58.7063C66.9127 57.2523 67.2388 55.776 67.5781 54.3088C67.8734 53.0305 68.1638 51.7561 68.4238 50.469C68.6617 49.2917 68.7591 48.0925 68.6621 46.8801C68.499 44.8725 67.7591 43.2205 66.5869 41.8235H66.582ZM59.9209 58.76C60.9721 58.8697 61.9925 59.159 62.9209 59.8547C62.6872 60.7284 62.225 61.3743 61.8506 62.0725C61.2954 63.1135 60.6652 64.0974 60.0703 65.1077C59.6649 65.7973 59.0965 66.0573 58.4268 65.9739C58.0037 65.9212 57.5802 65.8024 57.166 65.675C56.7343 65.5432 56.5183 65.1562 56.4258 64.6467C56.2848 63.8472 56.2405 63.0517 56.5225 62.2874C56.7516 61.6636 56.9641 61.0264 57.2549 60.4465C57.8542 59.2475 58.7532 58.637 59.9209 58.76ZM20.7246 17.8772C23.7124 17.9826 26.6915 18.2153 29.6484 18.8479C31.9797 19.3399 34.2413 20.1348 36.458 21.1057C38.8949 22.1688 41.2659 23.4387 43.6367 24.6995C44.9939 25.42 45.8002 26.6459 46.2012 28.3108C46.3554 28.9653 46.4745 29.6461 46.501 30.3225C46.5671 31.9831 47.2192 33.0952 48.4355 33.8245C50.5904 35.1116 52.5388 36.7807 54.3809 38.6389C55.5397 39.8075 56.1389 41.332 56.4209 43.0715C56.5663 43.9633 56.4301 44.8335 56.126 45.6594C55.8704 46.3535 55.658 46.5505 55.041 46.4231C54.3273 46.2781 53.6043 46.085 52.9258 45.7776C50.6872 44.7628 48.4661 43.6913 46.2363 42.6458C46.0557 42.5579 45.8666 42.4958 45.6904 42.4299C45.0471 43.3788 43.9317 46.3398 43.4072 48.4661C43.491 48.923 43.7863 49.1917 44.0771 49.4553C44.8218 50.1274 45.5712 50.7906 46.3291 51.4407C47.7921 52.6927 49.2464 53.9577 50.7314 55.1702L50.7402 55.1663C52.0357 56.2249 52.2299 57.9159 51.0713 59.3655C50.5822 59.9716 50.0485 60.5121 49.4316 60.925C48.894 61.2897 48.3343 61.4787 47.7129 61.259C47.0122 61.013 46.2895 60.8551 45.6064 60.552C43.5793 59.647 41.574 58.6801 39.5557 57.7532C39.1238 57.5555 38.6785 57.3889 38.2334 57.2307C37.3785 56.9277 36.5899 57.1387 35.8496 57.6877C35.6205 57.8591 35.4088 58.0569 35.1797 58.2151C34.717 58.5358 34.2626 58.8695 33.7822 59.1418C32.0196 60.1433 30.2745 59.9983 28.6484 58.7551C26.7006 57.2659 24.6465 56.058 22.5312 54.9817C21.3062 54.3579 20.0902 53.7114 18.8828 53.0393C15.1371 50.957 11.814 48.124 8.80859 44.7239C7.69374 43.4588 7.08561 41.8901 6.87402 40.0803C6.70656 38.635 6.77292 37.1936 6.95801 35.7571C7.02852 35.2036 7.11213 34.65 7.17383 34.092C7.33248 32.6159 6.87847 31.4951 5.81641 30.7483C5.44194 30.4892 5.05419 30.2608 4.66211 30.0413C2.00475 28.5564 2.93861 29.4041 0.28125 27.9192L1.18066 25.5344C3.22052 26.7246 3.01361 26.5184 5.05371 27.7043C6.07171 28.2974 5.73684 27.9682 6.77246 28.5129C7.6274 28.9654 8.2053 28.7763 8.82227 27.9329C9.28488 27.3047 9.62857 26.5887 9.94141 25.7981C9.79603 25.6663 9.70339 25.5471 9.58887 25.4856C6.04131 23.5175 6.53877 24.3527 2.99121 22.3889L3.95215 19.8362C4.56902 20.2227 5.18586 20.6137 5.80273 21.009C8.75977 22.9069 7.67625 21.9979 10.6377 23.887C11.0651 23.5707 11.2722 23.0523 11.5674 22.6262C11.6555 22.5032 11.7351 22.3757 11.8145 22.2483C13.2775 19.8805 13.5945 19.6034 16.0137 18.6721C17.5384 18.0835 19.1162 17.8201 20.7246 17.8772ZM41.7549 51.4622C40.856 52.389 39.9128 53.3162 38.9434 54.4934C40.4373 55.3149 41.7769 56.1196 43.1562 56.7961C44.196 57.3056 45.28 57.6831 46.3594 58.0696C46.9499 58.2804 47.501 58.0917 47.8535 57.4504V57.4456C48.2368 56.7428 48.4932 55.97 48.4668 55.1311C47.5458 54.4634 42.5793 51.7479 41.7549 51.4622ZM41.0938 28.0383C41.0276 31.7637 40.5337 35.4013 39.4805 38.9026C38.2994 42.83 36.5678 46.3709 34.2939 49.5295C32.7603 51.6602 31.0676 53.5716 29.2432 55.3245C28.992 55.5615 28.6707 55.7286 28.5518 56.137C29.2921 56.73 30.8694 57.5862 31.6494 57.8147C33.5134 56.2728 35.4172 54.7311 37.29 53.1409C37.9379 52.5873 38.5379 51.9366 39.1152 51.2776V51.2825C40.0141 50.2546 40.7715 49.0904 41.2783 47.7112C42.4285 44.5789 43.3102 41.3405 43.7773 37.9534C44.1431 35.3131 44.1565 32.6683 43.7158 30.0413C43.6057 29.378 43.4513 28.706 43.209 28.0999C42.8212 27.1202 42.1244 26.6365 41.124 26.5969C41.1108 27.1549 41.1026 27.599 41.0938 28.0383ZM63.75 47.1399C64.2347 46.604 64.7859 46.4637 65.4072 46.7581C66.1517 47.1095 66.8171 47.6236 67.5088 48.1243C67.4736 48.4711 67.4689 48.748 67.416 49.0159C67.0988 50.6148 66.7332 52.205 66.4512 53.8127C66.0854 55.8948 65.0279 57.0022 63.3271 57.2922C63.0319 57.3406 62.7318 57.3982 62.4365 57.3938C61.2864 57.3938 60.4046 56.5369 60.1357 55.1838C59.9948 54.4679 59.9819 53.7343 60.2197 53.0491C60.4621 52.3506 60.7133 51.6294 61.0791 51.0188C61.7357 49.9118 62.4766 48.8748 63.1904 47.8206C63.3578 47.5747 63.5562 47.355 63.75 47.1399ZM19.5527 21.3694C17.3053 21.2552 15.6437 22.3884 14.5596 24.7649C14.3833 25.1514 14.2118 25.5429 14.0576 25.9426C13.5156 27.3309 12.8978 28.6442 12.0693 29.8215C11.0381 31.2844 10.4258 33.0155 10.0732 34.887C9.74713 36.6223 9.66351 38.3841 9.68555 40.1545C9.71199 42.6146 10.6418 44.464 12.3691 45.7073C13.7131 46.6737 15.0837 47.5744 16.4453 48.4924C17.6616 49.3096 18.8877 50.123 20.1172 50.9182C21.4655 51.7923 22.8186 52.6486 24.1758 53.4963C24.4357 53.6588 24.7175 53.8084 25.0039 53.8918V53.8879C25.7398 54.1076 26.4453 53.9884 27.1328 53.5842C28.7059 52.6529 30.05 51.3527 31.2441 49.8284C34.3158 45.9053 36.4707 41.3404 37.6826 36.1389C38.0704 34.4696 38.2472 32.7608 38.2119 31.0168C38.1811 29.532 38.2158 28.0467 38.2334 26.5618C38.2422 25.8809 38.2734 25.2045 38.291 24.5149C37.899 24.2997 37.5507 24.0583 37.1807 23.9133C35.6913 23.3379 34.1838 22.8766 32.6416 22.5559C30.1209 22.0287 27.5731 21.7956 25.0215 21.6506C23.1971 21.5452 21.3771 21.466 19.5527 21.3694ZM46.3555 36.8684C46.3159 36.9868 46.2722 37.0614 46.2764 37.1272C46.3909 38.7701 47.0516 40.0137 48.2412 40.8C48.8493 41.1998 49.4973 41.5253 50.1494 41.8196C51.1189 42.2501 52.0536 42.7554 52.9746 43.634C53.455 42.1447 53.3405 40.9101 52.5781 39.7854C52.1992 39.2232 51.7231 38.7887 51.1855 38.4504C50.1499 37.7959 49.0525 37.3605 47.9023 37.1057L47.8975 37.1096C47.382 36.9954 46.8709 36.8157 46.3555 36.8684Z" fill="#485D89"/>
<path d="M62.9766 76.4684C63.3203 76.1346 63.5406 75.9061 63.7742 75.6996C66.3787 73.424 68.6262 70.7178 70.4507 67.5108C71.8653 65.0198 73.0155 62.362 73.8925 59.5196C75.0911 55.6228 75.8271 51.5943 76.303 47.4867C76.3427 47.144 76.4044 46.8014 76.4705 46.3357C77.5282 47.1528 78.4095 48.0446 79.3482 48.8442C80.2693 49.6262 81.1947 50.4038 82.0452 51.2648C82.129 52.3543 82.2127 53.3911 82.2876 54.4323C82.53 57.7579 83.8917 60.3235 85.9586 62.4147C86.602 63.0649 87.3291 63.5437 88.1047 63.9172C88.4132 64.0621 88.7173 64.2159 89.061 64.3828C89.0831 64.7079 89.1227 65.0198 89.1227 65.3318C89.1316 67.5371 88.6732 69.6239 88.0166 71.6579C87.7522 72.4794 87.4217 73.2702 87.122 74.0742C86.6901 75.2296 86.0687 76.218 85.2491 76.9956C83.5524 78.6123 81.8205 80.1675 79.7581 81.0681C79.3835 81.2306 79.0089 81.4107 78.6651 81.648C77.1404 82.7023 75.5539 82.654 73.9454 82.0302C71.2924 80.9978 68.6659 79.8731 66.176 78.3311C65.1712 77.7117 64.1444 77.145 62.9766 76.4684Z" fill="#B6C3F2"/>
<path d="M66.5818 41.824C67.7541 43.221 68.4944 44.8728 68.6575 46.8805C68.7589 48.093 68.6575 49.2924 68.4195 50.4697C68.1595 51.7569 67.8643 53.0353 67.5734 54.3094C67.2341 55.7811 66.9036 57.2528 66.5246 58.7069C66.0178 60.6267 65.3611 62.4675 64.4048 64.1369C63.757 65.2703 62.999 66.272 62.0956 67.111C60.4827 68.6135 58.7287 69.8304 56.869 70.8321C56.8073 70.8628 56.7456 70.8936 56.6839 70.9287C55.547 71.5481 54.3703 70.999 54.0442 69.2549C53.9605 68.7936 53.9517 68.2972 53.9781 67.8183C54.1235 65.0375 54.6127 62.3313 55.3266 59.6866C56.4989 55.333 58.266 51.3396 60.3417 47.5351C61.3597 45.6724 62.6377 44.104 64.2374 42.9574C64.9513 42.4478 65.6917 42.0085 66.5774 41.824H66.5818ZM67.5073 48.1238C66.8154 47.6274 66.15 47.109 65.4052 46.7575C64.7838 46.4632 64.233 46.6037 63.7482 47.1397C63.5543 47.355 63.356 47.5746 63.1885 47.8206C62.4746 48.875 61.7343 49.9118 61.0776 51.0189C60.7163 51.6295 60.4607 52.3456 60.2183 53.0485C59.9803 53.7295 59.9935 54.4631 60.1345 55.1836C60.399 56.5367 61.2847 57.3934 62.4349 57.3934C62.7302 57.3934 63.0299 57.3406 63.3251 57.2923C65.0262 57.0024 66.0839 55.8953 66.4496 53.8129C66.7317 52.205 67.0975 50.6147 67.4148 49.0156C67.4676 48.7476 67.472 48.4708 67.5073 48.1238ZM62.9197 59.8535C61.9899 59.155 60.9675 58.8651 59.9142 58.7552C58.7508 58.6366 57.8474 59.2473 57.248 60.4422C56.9572 61.0221 56.7456 61.6635 56.5165 62.283C56.2344 63.0518 56.2785 63.8469 56.4195 64.6421C56.5077 65.1517 56.728 65.5383 57.1599 65.6701C57.5741 65.7975 57.9972 65.9161 58.4203 65.9688C59.0901 66.0523 59.6586 65.7931 60.064 65.1034C60.659 64.0929 61.2892 63.1089 61.8444 62.0677C62.219 61.3736 62.6773 60.7234 62.9153 59.8491L62.9197 59.8535Z" fill="#D9E4FD"/>
<path d="M72.6684 43.502C73.1311 44.2312 73.4484 44.9825 73.4881 45.9006C73.6379 49.2526 73.4131 52.5607 72.7521 55.8204C71.9148 59.9588 70.4561 63.7676 68.473 67.2822C67.5696 68.8857 66.4546 70.2563 65.1987 71.4513C63.9956 72.5979 62.6823 73.5293 61.3206 74.3771C60.7962 74.7066 60.2585 74.8165 59.6856 74.7066C59.1965 74.6144 58.7073 74.5133 58.1653 74.4079C58.0815 74.1794 57.9934 73.9378 57.9141 73.727C57.9714 73.6083 57.9934 73.5117 58.0419 73.4765C58.2446 73.3404 58.4517 73.2129 58.6588 73.0943C62.1623 71.1218 64.8549 68.0773 66.8557 64.0883C68.072 61.6633 68.9357 59.0582 69.5968 56.3608C70.5443 52.4728 71.3904 48.5497 72.2762 44.6398C72.3599 44.262 72.3863 43.8578 72.6684 43.4976V43.502Z" fill="#D9E4FD"/>
<path d="M38.2843 24.5193C38.2667 25.209 38.2358 25.8856 38.227 26.5665C38.2094 28.0514 38.1741 29.5363 38.205 31.0212C38.2402 32.7653 38.064 34.4742 37.6762 36.1436C36.4643 41.3451 34.3093 45.9097 31.2377 49.8328C30.0434 51.3572 28.6993 52.6576 27.126 53.5889C26.4385 53.9931 25.7334 54.1117 24.9975 53.892C24.711 53.8086 24.429 53.6592 24.169 53.4967C22.8117 52.6488 21.4587 51.7921 20.1102 50.9179C18.8807 50.1227 17.6556 49.31 16.4393 48.4928C15.0775 47.5747 13.707 46.6741 12.3629 45.7076C10.6354 44.4643 9.70552 42.6148 9.67908 40.1546C9.65705 38.3842 9.74078 36.6225 10.0669 34.8872C10.4194 33.0157 11.032 31.2848 12.0632 29.8219C12.8917 28.6445 13.5087 27.3309 14.0507 25.9427C14.205 25.5429 14.3768 25.1519 14.5531 24.7653C15.6372 22.3886 17.2986 21.2552 19.5461 21.3694C21.3706 21.4661 23.1907 21.5451 25.0151 21.6506C27.5667 21.7956 30.1139 22.0284 32.6347 22.5556C34.1727 22.8763 35.6842 23.3376 37.1738 23.9131C37.5439 24.058 37.8921 24.2997 38.2843 24.5149V24.5193Z" fill="#D9E4FD"/>
<path d="M41.1232 26.5972C42.1235 26.6367 42.8198 27.12 43.2077 28.0996C43.45 28.7059 43.6043 29.378 43.7188 30.0414C44.1595 32.6685 44.1463 35.3132 43.7805 37.9535C43.3134 41.3406 42.432 44.5784 41.2818 47.7107C40.775 49.0902 40.017 50.2544 39.118 51.2824C38.5407 51.9414 37.9414 52.5915 37.2936 53.1451C35.4206 54.7354 33.5169 56.2774 31.6527 57.815C30.8727 57.5866 29.295 56.7299 28.5547 56.1368C28.6737 55.7283 28.9954 55.5613 29.2466 55.3241C31.071 53.5712 32.7633 51.6602 34.2969 49.5295C36.5708 46.3708 38.3028 42.8299 39.4838 38.9024C40.5371 35.4011 41.0306 31.7635 41.0967 28.0381C41.1056 27.5988 41.1144 27.1551 41.1276 26.5972H41.1232Z" fill="#B6C3F2"/>
<path d="M38.9414 54.4937C39.9109 53.3163 40.854 52.3894 41.753 51.4624C42.5771 51.748 47.5437 54.4629 48.4647 55.1307C48.4912 55.9698 48.2356 56.743 47.8522 57.4459C47.4996 58.0873 46.9488 58.2762 46.3582 58.0653C45.2785 57.6787 44.1944 57.3009 43.1544 56.7913C41.775 56.1148 40.4353 55.3108 38.9414 54.4893V54.4937Z" fill="#D9E4FD"/>
<path d="M52.9761 43.6382C52.0551 42.7596 51.1208 42.2544 50.1513 41.8238C49.4991 41.5295 48.8513 41.2044 48.2431 40.8046C47.0533 40.0182 46.3922 38.775 46.2776 37.1319C46.2732 37.066 46.3173 36.9913 46.357 36.8727C46.8726 36.82 47.3838 37.0001 47.8994 37.1143C49.0496 37.3692 50.1469 37.8041 51.1825 38.4587C51.7202 38.7969 52.1961 39.2319 52.5751 39.7942C53.3375 40.9188 53.4521 42.1533 52.9717 43.6426L52.9761 43.6382Z" fill="#D9E4FD"/>
<path d="M105.259 39.377C105.651 39.9525 105.902 40.4884 106.078 41.0376C106.184 41.3802 106.135 41.7932 106.078 42.1622C105.871 43.5812 105.404 44.9123 104.624 46.1029C104.214 46.7311 103.765 47.3418 103.28 47.9129C100.653 51.0057 98.0091 54.0853 95.365 57.1605C94.3602 58.3291 93.7521 58.3379 92.5622 57.3318C91.5046 56.4312 90.4072 55.579 89.332 54.7003C89.0455 54.4631 88.7458 54.2346 88.4946 53.9623C87.5383 52.9079 87.296 51.6734 87.7587 50.3115C87.8777 49.9557 88.0319 49.5955 88.2479 49.2967C88.7238 48.629 89.2438 47.9963 89.7594 47.3593C89.8652 47.2275 89.9974 47.1177 90.134 47.0167C90.5394 46.7135 90.8347 46.7048 91.2313 47.0167C91.4429 47.1836 91.6324 47.3813 91.8086 47.5878C92.0951 47.9261 92.3507 48.2907 92.6327 48.6334C92.8751 48.9189 93.1131 49.2133 93.3995 49.4505C94.0165 49.9601 94.5101 50.0084 95.1359 49.5252C95.6382 49.1342 96.101 48.6641 96.4976 48.1633C97.4098 47.0167 98.2736 45.8217 99.1638 44.6531C99.4722 44.2446 99.7895 43.8448 100.124 43.4538C100.64 42.852 101.239 42.3555 101.967 42.0524C102.35 41.8898 102.654 41.6438 102.936 41.3407C103.615 40.6246 104.395 40.0315 105.254 39.3813L105.259 39.377Z" fill="white"/>
<path d="M16.8799 62.2031C17.489 62.8096 17.2326 63.5982 16.6699 64.0527C16.1715 64.4784 15.4766 64.5971 14.8672 64.6768C13.0976 64.8767 11.3951 65.1616 9.64258 65.3643C7.65585 65.5113 5.79777 65.9958 3.87012 66.624C3.06609 66.8526 2.17466 67.1138 1.33691 66.874C0.510973 66.6261 -0.220925 65.8348 0.0625 64.7383C0.647513 63.1823 2.81118 63.1524 4.01758 62.7725L4.01953 62.7656L4.08691 62.7539C7.34359 62.1012 10.8219 61.6896 14.2109 61.6709C15.1925 61.6795 16.1183 61.5382 16.8799 62.2031ZM24.6211 85.9922C25.7836 87.1907 24.9122 88.4814 24.3945 89.1777C22.7536 91.1053 21.2938 93.2884 19.1729 94.6758C18.202 95.2706 17.3656 96.1583 16.1982 96.4346C15.233 96.7092 13.8906 95.5835 13.8584 94.3662C13.8365 93.5572 14.2698 93.0499 14.8613 92.6465L14.9072 92.6084C16.9697 91.3132 18.907 89.6278 20.3975 87.6406C21.2154 86.4832 22.7026 84.5121 24.624 85.9961L24.6211 85.9922ZM21.2656 11.0371C21.2377 11.6181 20.755 12.3856 19.8164 12.71C18.4463 13.0662 17.9738 11.8457 17.4189 11.3262L17.4141 11.3271L17.3906 11.2939C16.1924 9.726 15.1417 7.92542 14.4248 6.00098C14.2284 5.43726 13.9227 4.97151 14.2988 4.24219C14.6594 3.62593 15.3459 3.42248 15.8271 3.54199C16.2718 3.63765 16.5101 3.98176 16.7002 4.29395C17.2271 5.21457 17.8084 6.05901 18.334 6.96875C18.8635 8.03682 19.6375 8.88208 20.541 9.70313C20.891 10.0604 21.2847 10.4529 21.2656 11.0371ZM48.9697 13.4678C49.0477 14.2791 49.141 15.1791 48.7734 15.9414C48.4004 16.6912 47.5341 17.2554 46.5527 16.793C45.1911 15.9615 45.5307 13.8809 45.3789 12.6572L45.373 12.6543V12.5879C45.3136 9.34924 45.5188 5.94024 46.0771 2.68457C46.2521 1.74402 46.2763 0.831301 47.0303 0.21582C47.7032 -0.263404 48.4005 0.119385 48.7314 0.738281C49.0463 1.29058 49.0385 1.97851 49.0098 2.57715C48.8968 4.30983 48.8751 5.99212 48.7676 7.70898C48.568 9.64128 48.7075 11.5086 48.9697 13.4678ZM53.8662 96.2334C53.9443 97.0096 54.0375 97.8713 53.6699 98.6006C53.2969 99.3176 52.4306 99.8575 51.4492 99.415C50.0876 98.6197 50.4263 96.6295 50.2744 95.459L50.2695 95.4551V95.3916C50.2097 92.2938 50.4138 89.0329 50.9717 85.9189C51.1464 85.0194 51.1711 84.1471 51.9248 83.5586C52.5977 83.1 53.2949 83.4655 53.626 84.0576C53.9411 84.586 53.933 85.2437 53.9043 85.8164C53.7915 87.4739 53.7704 89.0833 53.6631 90.7256C53.4638 92.5737 53.6037 94.3596 53.8662 96.2334ZM86.7422 1.69824C87.9267 1.18166 88.3741 2.2884 87.9844 3.38379C87.7175 4.24552 87.1253 5.0538 86.4609 5.66602C85.1304 6.85762 83.883 7.99164 82.5371 9.13184C81.3289 10.0244 80.089 10.8249 78.9004 11.751C77.5559 12.7824 76.2882 13.9876 74.9336 15.0078C74.1355 15.6213 72.5239 15.924 72.5479 14.5771L72.5508 14.5801L72.5527 14.5303C72.7629 13.1187 74.2515 12.1109 75.2559 11.2129C78.4372 8.61331 81.9177 6.41847 84.7314 3.375C85.318 2.77022 86.0202 2.02158 86.7422 1.69824ZM89.2285 96.3467C90.0513 97.0411 91.4426 98.2957 90.0684 99.6953C88.9974 100.526 88.0756 99.7825 87.583 99.3447C86.2422 97.9726 84.6802 96.7263 83.8174 95.0137C83.4541 94.2319 82.8458 93.5378 82.7549 92.6221C82.6433 91.8621 83.6767 90.8882 84.6396 90.9307C85.2795 90.9585 85.6321 91.3203 85.8857 91.7988L85.9102 91.8369C86.7067 93.4995 87.8244 95.0873 89.2285 96.3467Z" fill="#D9E4FD"/>
</svg>
