<?xml version="1.0" encoding="UTF-8"?><svg id="Layer_2" xmlns="http://www.w3.org/2000/svg" viewBox="0 0 447.25 66.24"><defs><style>.cls-1{fill:#009344;}.cls-2{fill:#bdd63a;}.cls-3{fill:#384a2f;}</style></defs><g id="Layer_1-2"><path class="cls-2" d="m66.24,33.12h0s-14.83,22.97-33.12,22.97S0,33.12,0,33.12h0v18.69l33.12,14.43,33.12-14.43v-18.69Z"/><path class="cls-1" d="m33.12,10.15c18.29,0,33.12,22.97,33.12,22.97V14.43L33.12,0,0,14.43v18.69S14.83,10.15,33.12,10.15Z"/><path class="cls-3" d="m33.12,48.31c8.38,0,15.17-6.79,15.17-15.17s-6.79-15.17-15.17-15.17c-2.83,0-5.47.79-7.74,2.14,1.38,1.38,2.24,3.28,2.24,5.38,0,4.19-3.4,7.59-7.59,7.59-.72,0-1.41-.13-2.07-.32,0,.13-.02.25-.02.38,0,8.38,6.79,15.17,15.17,15.17Z"/><polygon class="cls-3" points="115.91 36.58 115.68 36.58 110.89 18.34 103.84 18.34 99.05 36.53 98.82 36.53 94.77 18.34 85.82 18.34 94.54 47.9 102.22 47.9 107.25 31.39 107.48 31.39 112.5 47.9 120.18 47.9 128.9 18.34 119.95 18.34 115.91 36.58"/><path class="cls-3" d="m149.01,19.63c-1.65-.87-3.57-1.3-5.76-1.3h-12.76v29.57h8.03v-8.78h4.45c2.25,0,4.22-.42,5.91-1.25s3-2.03,3.94-3.58c.94-1.55,1.41-3.38,1.41-5.5s-.46-3.93-1.37-5.5c-.91-1.57-2.19-2.79-3.84-3.65Zm-3.7,11.33c-.36.62-.88,1.09-1.54,1.42-.67.33-1.47.5-2.42.5h-2.83v-8.14h2.83c.94,0,1.75.16,2.42.48.67.32,1.18.78,1.54,1.39.36.6.54,1.32.54,2.17s-.18,1.56-.54,2.18Z"/><path class="cls-3" d="m172,18.34l-9.76,29.57h8.66l1.71-5.66h9.75l1.71,5.66h8.66l-9.76-29.57h-10.97Zm2.42,17.9l2.95-9.76h.23l2.95,9.76h-6.12Z"/><path class="cls-3" d="m204.12,25.9c.93-.65,2.07-.98,3.41-.98.77,0,1.46.11,2.06.32.61.22,1.12.53,1.55.92.43.4.77.87,1.01,1.42.24.55.4,1.16.45,1.83h8.14c-.15-1.84-.59-3.47-1.31-4.89-.72-1.43-1.68-2.63-2.86-3.6-1.18-.98-2.56-1.72-4.13-2.23-1.57-.51-3.29-.77-5.16-.77-2.66,0-5.06.58-7.22,1.74-2.16,1.16-3.87,2.87-5.14,5.13s-1.91,5.03-1.91,8.32.62,6.04,1.87,8.3c1.25,2.26,2.94,3.98,5.1,5.14,2.15,1.16,4.58,1.75,7.3,1.75,2.17,0,4.07-.33,5.7-1,1.64-.66,3.01-1.54,4.12-2.63,1.11-1.09,1.97-2.29,2.58-3.58.61-1.3.96-2.57,1.05-3.82l-8.14-.06c-.1.64-.28,1.21-.56,1.71-.28.51-.63.94-1.06,1.29s-.94.63-1.53.82c-.59.19-1.25.28-1.99.28-1.3,0-2.41-.31-3.34-.92-.92-.61-1.63-1.53-2.12-2.74-.49-1.22-.73-2.73-.73-4.54,0-1.71.24-3.18.71-4.4.48-1.22,1.18-2.16,2.11-2.82Z"/><polygon class="cls-3" points="222.57 24.8 231.47 24.8 231.47 47.9 239.38 47.9 239.38 24.8 248.27 24.8 248.27 18.34 222.57 18.34 222.57 24.8"/><rect class="cls-3" x="250.26" y="18.34" width="8.03" height="29.57"/><polygon class="cls-3" points="275.46 39.18 275.23 39.18 269.16 18.34 260.1 18.34 269.86 47.9 280.83 47.9 290.59 18.34 281.52 18.34 275.46 39.18"/><rect class="cls-3" x="292.4" y="18.34" width="8.03" height="29.57"/><polygon class="cls-3" points="302.42 24.8 311.31 24.8 311.31 47.9 319.22 47.9 319.22 24.8 328.11 24.8 328.11 18.34 302.42 18.34 302.42 24.8"/><polygon class="cls-3" points="343.84 30.35 343.61 30.35 337.84 18.34 328.89 18.34 339.74 38.6 339.74 47.9 347.71 47.9 347.71 38.6 358.57 18.34 349.62 18.34 343.84 30.35"/><polygon class="cls-3" points="375.25 18.34 367.22 18.34 367.22 47.9 387.2 47.9 387.2 41.44 375.25 41.44 375.25 18.34"/><path class="cls-3" d="m409.81,19.67c-2.18-1.16-4.6-1.74-7.28-1.74s-5.13.58-7.3,1.74c-2.17,1.16-3.89,2.87-5.17,5.13-1.28,2.26-1.91,5.03-1.91,8.32s.64,6.04,1.91,8.3c1.28,2.26,3,3.97,5.17,5.14,2.17,1.17,4.6,1.75,7.3,1.75s5.1-.58,7.28-1.74c2.18-1.16,3.9-2.87,5.18-5.13,1.28-2.26,1.92-5.03,1.92-8.32s-.64-6.07-1.92-8.32-3.01-3.97-5.18-5.13Zm-1.86,17.93c-.47,1.22-1.15,2.14-2.06,2.77-.91.63-2.03.95-3.36.95s-2.45-.32-3.36-.95c-.91-.63-1.6-1.55-2.06-2.77-.47-1.22-.7-2.71-.7-4.48s.23-3.26.7-4.48c.47-1.22,1.15-2.14,2.06-2.77.91-.63,2.03-.95,3.36-.95s2.45.31,3.36.95c.91.63,1.6,1.56,2.06,2.77s.7,2.71.7,4.48-.23,3.27-.7,4.48Z"/><path class="cls-3" d="m434.14,31.39v5.72h5.36c-.02.82-.21,1.55-.6,2.17-.4.66-1.01,1.16-1.83,1.51-.81.36-1.83.54-3.05.54-1.39,0-2.55-.33-3.48-.98-.93-.65-1.64-1.6-2.11-2.83-.47-1.23-.71-2.72-.71-4.45s.25-3.18.74-4.39c.5-1.21,1.22-2.14,2.17-2.79.95-.64,2.1-.97,3.44-.97.63,0,1.2.07,1.73.21.52.14.99.35,1.39.62s.73.61,1,1c.27.39.47.84.59,1.35h8.11c-.15-1.48-.59-2.84-1.3-4.09-.71-1.24-1.65-2.32-2.81-3.23-1.16-.91-2.49-1.61-4-2.11-1.51-.5-3.13-.74-4.89-.74-1.99,0-3.86.33-5.6,1s-3.28,1.66-4.61,2.96c-1.33,1.3-2.37,2.9-3.11,4.79-.75,1.89-1.12,4.05-1.12,6.5,0,3.12.61,5.81,1.83,8.07,1.22,2.26,2.91,4,5.09,5.23,2.18,1.22,4.7,1.83,7.58,1.83,2.58,0,4.87-.51,6.86-1.52,2-1.02,3.57-2.48,4.71-4.39,1.14-1.91,1.71-4.21,1.71-6.91v-4.1h-13.11Z"/></g></svg>